{"glyphs":{"0":{"ha":607,"x_min":0,"x_max":0,"o":"m 306 17 b 193 64 263 17 225 35 b 61 313 119 132 78 217 b 49 456 53 360 49 408 b 103 765 49 560 68 664 b 193 892 119 817 144 865 b 342 933 239 917 290 933 b 404 925 363 933 383 931 b 515 819 460 910 494 869 b 568 593 546 746 557 669 b 572 485 572 557 572 521 b 517 163 572 375 556 268 b 324 18 483 72 415 29 z m 301 307 b 357 361 324 307 343 325 l 360 365 b 388 531 378 415 386 465 l 388 538 b 367 604 388 556 382 582 b 300 633 350 628 326 633 b 267 600 281 632 272 617 b 235 408 244 538 235 474 l 236 382 b 296 307 238 346 267 311 z "},"1":{"ha":607,"x_min":0,"x_max":0,"o":"m 360 -1 l 351 -1 b 300 31 328 -1 313 13 b 251 182 268 76 251 126 l 251 353 l 250 404 l 251 456 b 246 563 251 492 250 528 b 197 613 243 596 226 613 l 186 613 b 119 608 164 610 142 608 b 75 651 93 608 76 625 l 75 656 b 124 767 75 699 99 735 b 169 810 138 783 153 797 b 299 901 213 840 256 872 b 385 939 324 919 353 932 b 406 940 393 940 400 940 b 472 897 436 940 456 928 b 510 758 499 854 508 807 l 510 729 b 500 497 510 651 501 575 b 493 274 497 422 493 349 l 493 247 b 461 75 493 188 482 131 b 360 -1 443 28 407 6 z "},"2":{"ha":607,"x_min":0,"x_max":0,"o":"m 426 -3 l 404 -1 b 257 25 354 3 306 11 b 99 229 153 56 108 101 l 99 261 b 157 438 99 326 121 383 b 224 546 181 472 204 507 b 240 610 233 567 240 588 l 240 615 b 211 651 239 639 228 651 b 186 643 204 651 196 649 b 119 600 164 631 143 614 b 69 582 100 588 83 582 b 14 640 43 582 25 601 b 4 714 7 665 4 689 b 7 757 4 728 6 743 b 28 794 8 772 18 783 b 310 936 101 881 203 914 b 347 939 322 939 335 939 b 436 926 378 939 407 933 b 574 772 515 908 561 853 b 578 729 576 757 578 743 b 526 543 578 664 556 603 b 425 399 500 490 464 443 b 379 339 408 379 393 360 b 375 325 376 333 375 329 b 390 310 375 318 381 314 b 497 286 425 299 463 293 b 638 175 563 274 614 240 b 646 133 643 161 646 147 b 585 39 646 94 624 61 b 426 -3 535 13 482 -3 z "},"3":{"ha":607,"x_min":0,"x_max":0,"o":"m 342 6 l 332 6 b 169 28 276 7 222 17 b 90 65 140 33 114 49 b 38 169 57 89 38 129 b 46 211 38 183 40 199 b 143 276 63 254 94 276 b 175 274 153 276 164 275 l 231 264 b 253 263 238 263 244 263 b 282 282 267 263 276 269 b 285 293 283 286 285 290 b 274 314 285 301 281 308 b 222 392 250 336 229 360 b 217 436 218 407 217 422 b 233 515 217 464 222 489 b 278 596 244 544 261 571 b 324 674 296 621 311 646 b 326 688 325 678 326 683 b 321 704 326 693 325 699 b 299 714 314 710 307 714 l 289 713 b 222 668 261 706 240 689 b 183 628 210 654 197 640 b 118 601 164 611 142 601 b 86 607 108 601 97 603 b 39 683 50 618 42 651 l 36 724 b 43 789 36 746 39 767 b 101 872 51 825 71 853 b 317 939 167 914 240 929 b 369 943 333 942 351 943 b 428 938 389 943 408 942 b 560 783 506 922 550 867 l 561 742 b 517 554 561 676 543 615 b 489 493 507 535 499 514 b 479 451 482 479 479 465 b 494 396 479 432 485 414 b 558 285 515 358 540 324 b 582 211 568 261 578 238 l 583 189 b 519 71 583 140 558 101 b 342 6 467 31 408 6 z "},"4":{"ha":607,"x_min":0,"x_max":0,"o":"m 464 6 b 410 31 446 6 429 14 b 342 158 374 65 353 110 b 335 236 338 185 335 211 b 338 300 335 258 336 279 l 339 307 b 313 331 339 322 333 329 b 101 371 240 333 172 354 b -8 513 38 385 -8 447 b 0 560 -8 528 -6 544 b 119 747 28 631 71 692 b 299 904 172 807 233 858 b 400 940 329 925 364 938 l 410 940 b 549 844 467 940 522 901 b 579 689 572 796 575 743 b 581 642 581 674 581 657 b 582 593 581 625 581 610 b 585 546 583 578 585 561 l 585 481 b 576 303 585 422 578 363 b 563 117 576 240 572 178 b 510 24 556 79 542 47 b 464 6 494 11 479 6 z m 321 561 b 354 593 343 561 351 569 l 357 646 l 356 646 l 357 697 b 349 714 357 704 356 710 l 344 715 b 324 700 336 715 331 706 b 276 639 306 682 290 660 b 260 594 265 621 260 606 b 315 561 260 574 278 564 z "},"5":{"ha":607,"x_min":0,"x_max":0,"o":"m 256 8 b 117 19 210 8 164 13 b 8 136 50 31 8 75 b 13 172 8 147 10 160 b 35 229 18 192 25 211 b 126 283 56 265 88 283 l 143 282 b 238 275 175 279 206 275 l 267 276 b 324 319 293 282 315 292 l 326 333 b 299 378 326 353 314 367 b 165 424 260 408 214 419 b 94 438 140 425 118 431 b 67 474 78 442 68 456 b 63 610 64 519 63 564 b 64 682 63 633 63 658 b 78 810 67 725 74 767 b 221 933 88 882 154 931 b 403 943 282 936 342 943 l 471 943 b 601 839 531 942 592 893 l 604 814 b 517 676 604 754 568 696 b 482 671 506 672 493 671 b 444 675 469 671 457 672 l 339 692 b 321 669 326 692 322 683 b 326 626 321 654 322 640 b 365 592 332 607 344 594 b 404 583 379 590 392 586 b 586 371 514 557 578 481 l 588 342 b 531 149 588 272 569 207 b 300 10 478 68 404 14 z "},"6":{"ha":607,"x_min":0,"x_max":0,"o":"m 335 -7 b 286 -3 318 -7 303 -6 l 215 15 b 35 251 97 46 40 150 b 33 311 33 271 33 292 l 35 392 b 40 421 35 401 36 413 b 194 706 74 525 121 624 b 332 856 240 756 281 810 b 469 919 371 890 417 911 l 492 922 b 579 872 528 922 557 904 b 589 844 586 864 589 854 b 586 826 589 839 589 832 b 535 760 576 797 558 776 b 374 636 479 719 422 683 b 283 518 338 601 308 564 l 364 526 b 390 528 372 528 382 528 b 444 522 408 528 426 526 b 599 343 533 506 590 439 l 600 307 b 453 29 600 192 551 99 b 335 -7 417 4 376 -7 z m 357 210 b 429 285 399 210 428 242 l 429 288 b 367 336 429 318 403 333 l 363 336 b 285 261 324 336 286 299 b 357 210 285 235 319 210 z "},"7":{"ha":607,"x_min":0,"x_max":0,"o":"m 219 8 b 144 18 196 8 171 11 b 107 79 121 25 107 50 b 110 107 107 89 107 97 b 182 265 125 164 153 215 b 356 603 246 375 294 492 b 364 636 361 614 364 625 l 363 646 b 311 692 360 674 340 692 l 307 692 b 158 658 256 692 208 672 b 78 646 132 651 104 646 b 13 660 56 646 35 649 b -15 688 -1 665 -11 674 b -24 743 -21 706 -24 724 b 64 875 -24 796 0 850 b 257 922 126 900 190 914 b 444 932 319 931 382 929 l 467 932 b 528 929 488 932 508 931 b 644 794 604 919 642 875 l 644 761 b 564 465 643 656 611 558 b 374 104 500 344 436 225 b 219 8 338 35 283 8 z "},"8":{"ha":607,"x_min":0,"x_max":0,"o":"m 311 -3 b 226 4 283 -3 254 -1 b 150 14 201 10 176 11 b 76 57 119 18 96 33 b 24 199 43 101 26 147 b 33 279 24 225 26 251 b 107 400 47 326 69 367 b 114 413 113 406 114 408 b 106 426 114 417 110 421 b 24 614 54 483 25 547 l 24 625 b 43 728 24 657 29 693 b 235 931 76 821 139 896 b 326 949 267 942 297 947 l 336 949 b 581 758 447 949 539 879 b 603 660 590 728 603 697 b 517 426 601 565 565 503 b 507 408 510 419 507 414 b 519 385 507 400 513 393 b 581 238 560 336 579 285 l 581 228 b 438 26 581 139 522 61 b 311 -3 396 8 354 -1 z m 297 175 b 386 238 339 176 372 199 b 392 269 390 249 392 260 l 392 276 b 364 333 392 299 382 318 b 306 354 347 349 325 354 b 222 292 269 353 236 331 b 214 247 218 276 214 260 l 214 242 b 293 175 215 200 243 175 z m 326 603 b 418 689 374 606 418 647 l 418 690 b 344 765 415 733 385 765 l 339 765 b 247 674 293 764 247 719 l 247 672 b 324 603 249 633 282 603 z "},"9":{"ha":607,"x_min":0,"x_max":0,"o":"m 101 1 b 26 15 76 1 51 6 b -21 83 -4 26 -21 53 b -17 111 -21 92 -19 101 b 17 167 -10 132 1 151 b 103 240 44 193 71 219 b 304 406 174 289 240 342 b 243 397 283 400 263 397 b 103 439 193 397 147 413 b 29 565 53 467 35 510 l 28 588 b 113 807 28 672 64 742 b 321 935 164 881 232 928 l 342 936 b 539 824 425 936 489 896 b 608 608 588 753 608 682 b 561 399 608 539 590 469 b 429 199 531 324 476 263 b 214 31 371 122 296 72 b 101 1 179 13 140 1 z m 321 610 b 403 690 364 610 403 650 b 326 763 403 726 364 763 b 251 676 286 763 251 724 l 251 674 b 318 610 251 635 278 610 z "},"\u0000":{"ha":0,"x_min":0,"x_max":0,"o":""},"\u001d":{"ha":0,"x_min":0,"x_max":0,"o":""}," ":{"ha":419,"x_min":0,"x_max":0,"o":""}," ":{"ha":419,"x_min":0,"x_max":0,"o":""},"!":{"ha":246,"x_min":0,"x_max":0,"o":"m 138 74 l 133 74 b 104 108 114 74 108 92 b 43 432 74 214 57 322 b 29 604 36 490 29 546 l 29 663 b 50 846 29 725 36 785 b 78 910 56 869 64 892 b 132 943 93 932 113 943 b 186 904 153 943 174 931 b 232 715 217 846 228 781 l 233 668 b 203 360 233 564 215 463 b 165 113 193 276 183 194 b 138 74 163 94 160 75 z m 132 -132 b 78 -60 99 -131 76 -101 b 128 1 78 -24 99 1 b 193 -62 165 1 194 -26 b 132 -132 193 -103 167 -132 z "},"\"":{"ha":281,"x_min":0,"x_max":0,"o":"m 94 581 l 83 582 b 24 638 58 588 42 618 b -69 815 -24 696 -57 754 b -72 847 -71 826 -72 838 b -69 875 -72 857 -71 867 b 0 935 -61 911 -35 935 b 24 931 8 935 14 933 b 104 840 68 921 104 879 b 94 800 104 818 101 822 b 90 753 92 785 90 769 b 106 646 90 719 96 685 b 117 599 110 631 117 613 l 115 593 b 94 581 114 586 108 581 z m 322 574 l 313 575 b 250 631 286 581 268 611 b 158 808 201 692 171 749 b 154 843 156 821 154 832 b 157 869 154 853 156 861 b 226 929 165 906 192 929 l 244 926 l 247 925 b 332 833 294 915 332 872 b 321 792 332 808 328 814 b 317 744 318 776 317 761 b 332 640 317 713 322 676 b 343 593 336 625 343 607 l 342 588 b 322 574 340 579 335 574 z "},"#":{"ha":885,"x_min":0,"x_max":0,"o":"m 665 63 l 661 63 b 597 104 626 63 606 78 b 583 181 590 129 583 154 l 583 186 b 526 243 583 231 564 243 l 456 243 b 282 246 397 243 340 244 l 276 246 b 244 215 257 246 247 239 b 228 139 242 189 236 164 b 175 96 221 114 204 96 b 124 140 146 96 129 114 b 111 217 117 165 111 192 b 67 263 110 249 97 263 b 36 267 57 263 46 264 b -14 314 13 274 -12 283 l -14 317 b 29 363 -14 343 7 363 l 38 363 b 114 450 107 363 114 403 l 114 476 l 113 500 l 115 535 b 119 581 117 550 119 567 b 49 642 119 615 107 642 l 46 642 b 0 689 22 642 0 660 l 0 692 b 51 736 1 721 28 736 l 54 736 b 133 833 122 736 133 778 b 147 883 133 850 139 868 b 186 908 157 900 171 908 b 225 886 201 908 215 901 b 244 828 238 868 244 849 l 244 815 b 310 751 244 765 269 751 l 329 753 b 428 756 363 756 394 756 b 508 754 454 756 482 756 b 549 789 538 754 549 764 l 549 807 b 554 854 549 824 551 839 b 604 908 558 883 574 903 l 615 910 b 674 871 640 910 660 896 b 693 796 686 847 693 822 b 743 747 693 760 711 747 l 758 747 b 838 739 786 747 811 743 b 885 690 864 735 883 719 l 885 688 b 843 636 885 658 867 643 b 772 624 821 629 796 624 l 753 625 b 711 582 719 625 711 608 l 713 563 b 721 435 718 519 721 476 l 721 415 b 767 364 721 381 729 364 b 844 353 793 364 819 360 b 893 299 872 347 892 329 l 893 296 b 846 236 893 264 874 246 b 804 226 833 232 818 226 l 794 228 l 772 231 b 725 160 733 231 726 201 b 665 63 724 115 714 71 z m 318 367 b 393 372 344 367 372 372 l 536 372 b 567 400 556 372 567 378 l 567 407 b 558 596 563 469 560 533 b 525 629 557 622 546 629 l 361 629 b 258 528 260 629 258 629 l 258 524 b 250 432 258 494 250 461 b 267 382 250 413 254 394 b 318 367 281 369 299 367 z "},"$":{"ha":501,"x_min":0,"x_max":0,"o":"m 249 -28 b 219 -11 239 -28 229 -22 b 196 56 206 8 199 32 b 168 85 194 74 186 81 b 25 164 111 97 67 128 b -7 221 8 179 -4 197 l -7 228 b 21 256 -7 247 1 256 l 32 256 b 108 226 60 251 83 239 b 165 203 138 211 156 203 b 179 263 179 203 179 221 l 178 326 b 179 375 178 343 178 358 b 151 421 179 397 174 410 b 31 613 74 464 36 531 l 31 621 b 157 789 31 692 81 758 b 183 824 175 796 183 806 b 196 896 183 847 188 872 b 242 936 204 917 215 935 b 289 897 269 936 281 917 b 301 824 297 874 301 849 b 328 786 303 806 308 794 b 408 728 360 774 386 753 b 431 685 419 715 429 701 l 431 679 b 406 647 431 660 421 647 b 385 653 399 647 393 649 b 310 694 361 664 339 679 l 311 600 l 308 522 b 351 463 308 493 321 476 b 472 368 400 442 440 408 b 510 265 497 336 510 300 b 458 149 510 224 493 183 b 319 75 421 110 374 85 b 293 46 300 71 294 64 b 276 -8 292 26 286 8 b 249 -28 269 -22 258 -28 z m 307 208 l 318 213 b 367 275 344 226 367 244 b 306 349 367 311 336 325 b 300 219 304 301 303 261 b 307 208 300 211 303 208 z m 171 568 b 182 582 178 569 182 575 l 179 625 l 176 625 l 176 672 b 169 685 176 678 176 683 l 168 685 b 157 678 164 685 161 679 b 144 626 149 667 144 646 b 157 575 144 607 149 586 b 168 568 160 571 164 568 z "},"%":{"ha":413,"x_min":0,"x_max":0,"o":"m 22 -4 b 7 -1 17 -4 13 -4 b -12 49 -14 10 -10 32 b 7 136 -11 81 -4 108 b 385 879 108 396 242 640 b 435 932 397 900 413 919 b 458 939 443 938 451 939 b 485 903 475 939 485 926 l 485 897 b 469 821 485 871 478 846 b 361 569 442 733 401 651 b 128 103 283 414 218 253 b 63 15 110 72 92 40 b 22 -4 50 6 38 -4 z m 319 -3 b 238 72 278 -3 239 33 l 238 74 b 314 158 238 114 276 157 b 399 78 360 158 399 124 l 399 75 b 319 -3 399 35 360 -3 z m 331 57 b 347 74 342 57 347 64 l 347 76 b 315 107 346 96 332 104 b 293 90 303 106 293 103 l 293 86 b 328 57 296 67 310 58 z m 97 750 l 96 750 b 25 825 58 751 25 788 l 25 828 b 106 901 26 868 64 901 l 110 901 b 179 836 143 900 179 865 l 179 835 b 97 750 178 792 136 750 z m 104 807 b 138 838 121 808 138 818 b 113 861 138 850 132 861 l 106 861 b 78 835 96 860 78 854 b 100 807 78 821 86 807 z "},"&":{"ha":660,"x_min":0,"x_max":0,"o":"m 60 18 l 43 21 b 3 85 13 31 4 56 l 3 94 b 36 217 3 138 21 176 b 47 263 42 233 47 247 b 40 293 47 272 44 282 b 29 354 33 314 29 335 b 47 433 29 381 36 407 b 118 485 61 464 83 483 l 122 485 b 193 440 154 485 178 468 b 213 368 207 418 213 393 b 207 324 213 353 211 339 l 204 308 b 236 285 204 292 218 288 l 253 283 b 293 289 267 283 279 286 b 343 347 325 297 339 314 l 343 353 b 301 414 343 379 328 404 b 258 429 288 421 272 424 b 213 490 229 442 213 464 l 214 504 b 279 551 221 533 246 551 l 289 551 b 339 549 306 550 322 549 b 425 560 368 549 397 551 b 533 617 465 571 504 586 b 560 672 551 635 560 654 b 511 732 560 697 543 721 b 425 749 482 743 453 749 b 281 690 374 749 325 729 b 224 663 263 674 244 663 b 197 668 215 663 207 665 b 151 742 165 682 151 708 b 183 899 153 796 164 849 b 229 936 192 919 206 936 l 232 936 b 283 900 257 936 274 921 l 292 875 b 314 842 299 850 300 842 b 342 846 321 842 329 843 b 419 853 368 850 394 853 b 563 825 468 853 517 844 b 682 654 640 793 682 725 b 632 525 682 610 667 564 b 485 432 592 479 542 450 b 469 417 475 429 469 425 b 471 406 469 414 469 410 b 483 333 479 381 483 357 b 338 151 483 249 429 179 b 256 139 311 143 285 139 b 188 150 235 140 210 140 l 174 153 b 151 129 161 153 156 144 b 111 47 143 100 132 71 b 60 18 97 31 81 18 z "},"'":{"ha":83,"x_min":0,"x_max":0,"o":"m 0 528 b -8 531 -4 528 -6 528 b -12 539 -12 533 -12 536 l -11 550 b 0 669 -3 590 0 629 b -33 890 0 743 -12 817 b -36 906 -35 896 -36 901 b -4 940 -36 922 -25 935 b 14 942 1 942 8 942 b 101 875 50 942 86 917 b 115 772 114 840 114 803 b 79 599 115 707 108 650 b 13 532 64 569 44 544 b 0 528 8 529 4 528 z "},"(":{"ha":232,"x_min":0,"x_max":0,"o":"m 238 1 b 211 10 229 1 219 6 b 92 135 161 42 118 81 b 35 336 63 199 46 267 b 25 451 29 378 25 419 l 25 476 b 129 846 25 617 53 739 b 199 917 149 874 169 899 b 232 933 208 924 221 929 b 260 939 240 936 250 939 b 283 926 268 939 278 936 b 289 910 288 921 289 915 b 272 876 289 899 281 888 b 131 493 169 757 131 626 b 182 190 131 394 151 293 b 239 94 192 154 219 126 b 263 54 247 82 256 69 b 268 32 265 47 268 39 b 257 8 268 24 265 15 b 238 1 251 3 244 1 z "},")":{"ha":242,"x_min":0,"x_max":0,"o":"m 13 3 b -7 10 7 3 0 4 b -17 33 -14 17 -17 25 b -11 56 -17 40 -14 49 b 13 96 -4 69 4 83 b 69 190 32 126 58 154 b 119 490 99 292 119 392 b -21 872 119 624 82 751 b -37 906 -29 882 -37 893 b -32 922 -37 911 -36 917 b -10 933 -26 931 -18 933 b 19 928 0 933 10 931 b 53 911 31 925 42 918 b 121 842 81 894 101 869 b 225 464 200 733 225 608 b 214 336 225 429 221 382 b 158 136 204 267 188 199 b 39 11 132 81 89 43 b 13 3 32 7 22 3 z "},"*":{"ha":539,"x_min":0,"x_max":0,"o":"m 276 314 b 226 368 243 314 232 342 b 208 514 215 415 210 461 b 119 433 175 485 147 458 b 94 413 111 426 104 418 b 63 400 85 406 74 400 b 43 407 57 400 50 401 b 33 429 36 414 33 421 b 40 454 33 438 36 446 b 121 582 64 499 86 544 b 142 613 128 592 140 597 l 68 621 b 24 632 53 624 38 626 b -33 682 -1 640 -33 651 l -33 689 b 38 721 -28 724 10 719 l 132 721 b 92 775 122 744 106 758 b 69 818 82 789 69 803 b 78 839 69 825 72 832 b 107 853 88 849 96 853 b 149 838 121 853 136 844 b 215 794 171 825 190 810 b 228 874 219 822 222 849 b 269 922 233 897 239 921 l 275 922 b 317 876 303 922 311 897 b 335 785 324 849 328 819 b 382 824 353 800 367 813 b 418 854 393 835 406 846 b 450 867 429 863 440 867 b 474 858 458 867 467 864 b 488 833 485 850 488 842 b 479 806 488 824 485 815 b 433 746 468 783 450 765 l 403 713 l 469 713 b 554 697 499 713 526 708 b 588 663 571 690 586 683 l 588 660 b 557 621 588 640 574 631 b 476 604 532 608 506 604 l 425 604 l 494 524 b 522 461 514 501 522 479 b 510 432 522 450 518 440 b 481 422 503 425 493 422 b 417 446 463 422 440 431 b 343 500 393 461 371 479 b 329 369 342 453 339 411 b 276 314 324 342 311 314 z "},"+":{"ha":464,"x_min":0,"x_max":0,"o":"m 228 18 l 225 18 b 168 75 190 18 176 44 b 157 185 160 111 157 147 l 158 233 b 126 271 158 261 149 271 l 111 269 b 60 267 94 268 76 267 b 1 272 40 267 21 268 b -50 322 -26 278 -50 289 b 3 371 -49 356 -25 368 b 128 379 44 375 86 378 b 156 408 150 379 156 388 b 163 565 156 461 156 514 b 207 621 167 593 174 619 l 213 621 b 260 572 242 621 251 597 b 282 414 274 521 278 467 b 310 383 283 393 289 383 l 365 386 b 432 379 388 386 410 383 b 482 332 458 374 481 363 l 482 326 b 436 276 482 299 461 285 b 376 268 417 269 397 268 b 322 271 358 268 340 269 l 317 271 b 290 247 299 271 290 264 l 292 211 l 292 182 b 283 75 292 146 292 110 b 228 18 276 44 263 19 z "},",":{"ha":303,"x_min":0,"x_max":0,"o":"m 101 -186 l 94 -183 b 92 -175 92 -181 92 -178 b 94 -164 92 -171 93 -167 l 128 -54 b 139 -12 132 -40 136 -26 l 142 7 b 110 29 142 21 135 24 b 69 68 89 35 71 43 l 69 71 b 111 110 69 90 85 104 b 136 113 119 111 128 113 b 233 -14 193 113 233 67 l 233 -18 b 114 -181 226 -83 183 -142 b 101 -186 110 -182 106 -186 z "},"-":{"ha":374,"x_min":0,"x_max":0,"o":"m 58 278 b 7 279 40 278 24 278 b -28 288 -4 281 -17 283 b -54 322 -43 293 -54 304 l -54 325 b -25 360 -54 344 -42 356 b 15 367 -12 364 1 365 b 354 389 128 375 242 374 l 364 389 b 413 353 390 389 410 374 l 413 347 b 364 303 413 325 394 307 b 136 279 286 292 208 279 z "},"­":{"ha":374,"x_min":0,"x_max":0,"o":"m 58 278 b 7 279 40 278 24 278 b -28 288 -4 281 -17 283 b -54 322 -43 293 -54 304 l -54 325 b -25 360 -54 344 -42 356 b 15 367 -12 364 1 365 b 354 389 128 375 242 374 l 364 389 b 413 353 390 389 410 374 l 413 347 b 364 303 413 325 394 307 b 136 279 286 292 208 279 z "},".":{"ha":99,"x_min":0,"x_max":0,"o":"m 47 11 b -42 104 -1 13 -42 53 b 43 179 -42 149 -8 179 b 129 99 90 179 129 144 l 129 96 b 47 11 129 47 94 11 z "},":":{"ha":181,"x_min":0,"x_max":0,"o":"m 103 3 b 6 94 56 3 6 49 l 6 97 b 99 178 6 142 47 178 b 183 93 150 178 183 144 b 103 3 183 42 149 3 z m 85 451 b 6 526 40 451 6 483 l 6 529 b 100 625 6 578 51 624 l 103 625 b 183 536 146 625 182 585 l 183 532 b 85 451 183 485 143 453 z "},";":{"ha":133,"x_min":0,"x_max":0,"o":"m 22 -146 b 11 -133 17 -146 11 -140 b 14 -119 11 -129 13 -124 b 44 0 25 -67 31 -54 b 50 26 47 8 50 18 b 24 51 50 38 44 47 b 4 76 13 54 4 64 b 26 106 6 93 13 100 b 76 117 42 113 58 117 b 150 43 119 117 150 86 b 101 -72 149 -4 131 -36 b 38 -136 82 -96 63 -119 b 22 -146 33 -140 28 -146 z m 64 479 b -7 553 26 479 -7 514 b 69 639 -7 597 31 639 b 144 557 110 639 144 600 l 144 556 b 64 479 144 515 107 479 z "},";":{"ha":133,"x_min":0,"x_max":0,"o":"m 22 -146 b 11 -133 17 -146 11 -140 b 14 -119 11 -129 13 -124 b 44 0 25 -67 31 -54 b 50 26 47 8 50 18 b 24 51 50 38 44 47 b 4 76 13 54 4 64 b 26 106 6 93 13 100 b 76 117 42 113 58 117 b 150 43 119 117 150 86 b 101 -72 149 -4 131 -36 b 38 -136 82 -96 63 -119 b 22 -146 33 -140 28 -146 z m 64 479 b -7 553 26 479 -7 514 b 69 639 -7 597 31 639 b 144 557 110 639 144 600 l 144 556 b 64 479 144 515 107 479 z "},"<":{"ha":507,"x_min":0,"x_max":0,"o":"m 499 182 l 488 183 b 432 208 467 188 449 197 b 344 279 401 231 372 254 b 22 557 240 376 136 471 b -24 597 6 569 -10 583 b -46 647 -37 611 -46 628 b -28 689 -46 663 -40 676 b 14 717 -17 701 -1 710 b 381 910 140 774 261 840 b 433 933 397 919 414 929 l 451 936 b 476 924 461 936 471 932 b 482 908 481 918 482 914 b 468 883 482 900 476 890 b 389 821 446 860 418 840 b 110 661 301 760 208 707 b 83 642 92 651 83 647 b 106 619 83 638 90 631 b 486 285 240 515 365 403 b 529 226 504 268 521 250 b 532 211 532 221 532 215 b 499 182 532 193 519 182 z "},"=":{"ha":632,"x_min":0,"x_max":0,"o":"m 129 7 l 58 10 b 19 18 46 11 32 14 b -12 47 3 21 -10 29 l -12 54 b 10 89 -12 69 -4 81 b 104 118 39 107 72 114 b 536 164 247 140 390 158 b 614 154 563 164 589 164 b 654 101 638 144 653 128 l 654 97 b 622 47 654 75 642 58 b 542 28 597 32 569 29 l 342 19 b 129 7 258 13 192 7 z m 290 497 b 56 508 213 497 133 497 b -11 554 10 517 -11 529 l -11 557 b 54 604 -7 596 25 601 b 417 628 175 614 296 628 b 539 622 457 628 499 626 b 594 610 558 621 576 615 b 629 569 614 604 628 590 l 629 567 b 597 524 629 546 615 532 b 468 499 556 506 513 499 b 290 497 408 497 350 497 z "},">":{"ha":528,"x_min":0,"x_max":0,"o":"m -14 165 b -49 194 -35 165 -49 176 b -46 211 -49 199 -49 204 b 0 271 -36 235 -18 253 b 410 617 131 392 265 508 b 435 639 426 628 435 633 b 406 658 435 644 425 649 b 104 824 300 706 199 761 b 19 888 74 843 44 863 b 6 915 13 896 6 904 b 10 929 6 919 7 924 b 39 940 17 938 28 940 l 57 939 b 114 915 78 935 96 925 b 508 717 242 843 371 775 b 553 688 525 710 540 700 b 572 644 565 675 572 661 b 547 593 572 625 563 607 b 500 551 532 579 517 564 b 153 265 376 463 264 365 b 58 192 124 239 92 214 b -1 167 40 181 21 169 z "},"?":{"ha":376,"x_min":0,"x_max":0,"o":"m 122 114 l 115 114 b 72 153 93 117 79 131 b 65 199 68 168 65 183 b 76 265 65 222 69 244 b 132 399 89 313 108 357 b 236 582 168 460 203 519 b 264 681 254 614 264 646 b 251 744 264 701 260 722 b 160 813 235 786 204 810 l 153 813 b 57 718 94 813 57 775 l 58 707 b 60 694 58 703 58 699 l 60 679 b 36 640 60 663 57 647 b 19 638 31 639 25 638 b -22 667 1 638 -12 650 b -42 732 -36 688 -42 710 l -40 747 b 163 935 -33 858 53 935 b 193 933 172 935 183 935 b 397 682 315 917 397 815 l 397 679 b 347 508 396 618 378 561 b 254 349 318 456 286 401 b 188 200 225 303 201 254 b 165 140 183 179 178 158 b 122 114 154 124 140 114 z m 114 -97 b 38 -21 71 -97 38 -64 b 118 63 38 25 74 63 b 190 -21 160 63 189 24 b 114 -97 190 -62 154 -97 z "},"@":{"ha":517,"x_min":0,"x_max":0,"o":"m 242 -1 b 67 97 174 -1 114 29 b 7 303 25 156 7 229 b 82 536 7 393 35 482 b 278 629 135 599 201 629 l 308 628 b 468 510 385 619 436 574 b 510 339 496 456 510 399 b 499 247 510 308 506 278 b 464 181 492 222 481 200 b 394 146 444 157 419 146 b 326 179 369 146 346 157 b 317 186 324 183 321 186 b 310 183 315 186 313 186 b 249 164 290 171 269 164 b 194 181 231 164 213 169 b 135 288 154 206 135 242 l 136 297 b 153 365 138 321 143 343 b 271 447 175 418 219 447 b 329 435 289 447 308 443 b 356 411 340 431 350 422 b 385 318 371 382 382 351 b 396 257 386 299 388 278 b 413 293 404 269 408 281 b 433 390 422 325 432 357 l 433 401 b 289 553 433 492 374 553 b 251 549 276 553 264 551 b 146 474 206 539 169 515 b 101 314 117 421 101 368 b 136 175 101 268 113 221 b 257 88 165 115 204 88 b 324 100 278 88 299 92 b 378 118 342 107 360 113 l 390 119 b 414 107 399 119 407 117 b 418 93 417 103 418 97 b 410 69 418 85 414 76 b 347 19 393 49 374 29 b 242 -1 310 6 275 -1 z m 258 258 b 281 272 267 258 274 263 b 296 328 290 290 296 308 l 296 351 b 274 381 294 365 288 376 l 263 382 b 236 367 251 382 243 378 b 224 319 228 356 224 338 b 236 272 224 301 228 283 b 258 258 243 263 251 258 z "},"A":{"ha":706,"x_min":0,"x_max":0,"o":"m 549 4 b 453 56 515 4 481 21 b 378 250 406 113 386 179 l 372 283 b 353 301 369 293 367 301 b 331 283 339 301 333 296 b 268 113 318 224 294 167 b 200 25 251 79 231 47 b 142 7 183 13 163 7 b 51 57 106 7 69 25 b 25 133 39 81 31 107 b 8 276 14 182 8 229 b 63 556 8 371 29 464 b 251 896 107 679 172 790 b 361 950 276 931 318 950 b 478 896 401 950 444 933 b 503 858 488 885 496 872 b 679 308 592 685 649 501 b 683 264 682 293 682 279 b 686 222 685 250 686 236 b 653 78 686 172 674 125 b 549 4 629 29 590 4 z m 338 528 b 400 600 375 528 400 556 l 400 611 b 356 696 394 639 378 669 b 340 703 351 701 346 703 b 326 693 335 703 329 700 b 283 583 306 658 286 624 l 283 581 b 335 528 283 550 304 528 z "},"B":{"ha":738,"x_min":0,"x_max":0,"o":"m 326 -8 b 169 28 272 -8 219 -1 b 86 122 131 50 107 85 b 39 329 51 186 42 256 b 33 431 35 363 33 397 b 50 675 33 511 42 593 b 68 811 54 721 57 767 b 124 885 76 844 96 868 b 335 944 190 924 261 944 b 415 936 361 944 388 942 b 563 768 507 919 563 850 b 542 683 563 742 556 713 b 478 583 525 647 501 615 b 468 572 475 581 468 576 l 469 568 b 481 564 472 564 476 564 l 486 564 b 669 482 557 558 621 535 b 728 332 711 438 728 386 b 719 260 728 308 725 285 b 568 60 700 169 647 106 b 393 -6 514 28 457 0 b 326 -8 371 -7 349 -8 z m 292 636 b 381 721 344 642 381 676 l 381 728 b 297 803 376 771 340 803 l 289 803 b 211 700 254 799 211 740 l 211 694 b 285 636 217 660 247 636 z m 372 203 b 461 293 403 206 461 265 l 461 294 b 364 358 460 325 407 358 l 358 358 b 279 278 318 356 279 315 l 279 274 b 369 203 281 244 333 203 z "},"C":{"ha":650,"x_min":0,"x_max":0,"o":"m 433 6 b 104 144 306 8 190 43 b -1 404 42 221 6 307 l -3 440 b 132 778 -3 569 53 678 b 290 904 175 831 226 875 b 407 928 329 921 368 928 b 504 914 440 928 472 924 b 607 868 540 903 576 890 b 632 822 624 856 632 842 b 586 604 632 746 618 674 b 501 544 568 564 536 544 b 444 560 483 544 464 549 b 357 588 417 575 389 588 l 344 588 b 289 557 321 586 303 576 b 261 463 269 529 261 496 b 290 356 261 422 274 383 b 428 276 322 303 371 276 b 471 282 442 276 457 279 b 536 294 492 286 514 293 l 547 294 b 636 221 593 294 626 268 b 643 168 640 203 643 185 b 638 124 643 153 642 138 b 478 7 621 56 561 13 b 433 6 463 6 449 6 z "},"D":{"ha":757,"x_min":0,"x_max":0,"o":"m 249 -4 b 151 14 217 -4 185 1 b 65 56 121 24 89 31 b 46 100 53 68 46 82 l 46 106 b 65 346 49 186 64 265 l 65 392 b 54 576 65 453 63 515 b 38 750 47 633 38 692 l 38 761 b 61 835 39 788 44 813 b 221 929 100 889 153 921 b 324 936 256 933 290 936 b 551 903 401 936 476 925 b 736 688 660 871 714 793 b 744 632 740 669 742 651 l 744 597 b 569 171 744 433 681 293 b 367 22 511 108 446 57 b 249 -4 326 4 288 -4 z m 331 357 l 343 363 b 432 435 376 382 407 404 b 456 494 446 453 456 474 l 454 500 b 340 604 451 568 410 604 l 331 604 b 307 583 314 603 307 596 l 308 574 b 324 406 315 519 324 463 l 322 375 b 331 357 322 364 325 357 z "},"E":{"ha":650,"x_min":0,"x_max":0,"o":"m 325 -1 l 200 0 b 19 388 42 7 19 231 b 64 711 19 497 35 606 b 272 917 96 824 163 894 b 444 940 329 928 386 940 b 625 832 526 940 603 924 b 639 725 633 796 639 760 b 563 579 639 651 611 579 b 506 604 546 579 526 588 b 436 650 483 621 464 640 b 390 660 419 657 404 660 b 285 547 332 660 299 607 l 285 543 b 317 514 285 528 301 514 b 415 533 353 517 381 533 b 513 489 451 533 483 515 b 533 444 526 478 533 461 b 456 336 533 399 499 350 b 300 315 406 321 353 315 b 253 269 263 315 256 308 b 301 221 253 243 274 221 b 439 263 354 226 388 238 b 554 292 481 281 508 288 b 636 185 611 292 636 244 b 325 -1 636 56 506 -1 z "},"F":{"ha":679,"x_min":0,"x_max":0,"o":"m 240 -7 l 226 -7 b 85 117 144 -7 100 32 b 50 458 64 229 56 344 b 42 611 47 510 43 561 l 40 631 b 51 781 40 681 50 731 b 69 871 53 813 57 842 b 126 914 81 899 100 914 l 146 911 l 163 910 l 171 910 b 276 926 206 919 240 925 b 472 932 342 928 407 932 b 589 925 511 932 550 931 b 719 782 678 913 715 871 b 721 738 721 768 721 754 l 721 728 b 693 608 721 688 713 649 b 603 556 674 569 638 556 b 538 575 578 556 554 563 b 476 636 514 592 493 614 b 443 653 467 647 456 653 l 432 651 b 364 632 410 646 386 640 b 313 558 326 621 313 600 b 317 482 313 533 315 508 b 333 464 317 469 322 464 l 375 465 b 431 463 393 465 413 464 b 503 404 468 458 492 439 b 513 344 508 385 513 365 l 511 322 b 436 257 507 281 481 257 l 419 257 b 321 261 386 257 354 260 b 285 235 290 261 285 258 l 286 224 b 303 72 288 172 293 122 b 306 46 304 63 306 53 b 240 -7 306 10 285 -6 z "},"G":{"ha":756,"x_min":0,"x_max":0,"o":"m 361 -1 b 290 3 338 -1 314 0 b 63 175 183 18 110 82 b 1 421 21 256 1 339 b 47 647 1 496 18 572 b 435 928 117 822 249 914 b 497 932 456 931 476 932 b 551 928 515 932 533 931 b 693 856 607 919 654 897 b 721 786 711 835 721 813 l 719 768 b 635 554 706 692 676 621 b 550 510 615 522 585 510 l 528 511 b 472 519 510 514 490 518 l 468 519 b 286 335 378 519 286 426 l 288 317 b 399 218 297 246 347 218 b 458 231 418 218 439 222 b 481 260 469 238 481 247 l 481 263 b 451 278 478 278 463 276 b 400 283 433 281 417 282 b 360 314 381 286 365 294 b 358 326 358 318 358 322 b 378 358 358 340 365 351 b 404 375 386 364 394 371 b 646 425 483 400 564 417 l 658 426 b 728 369 694 426 715 403 b 743 292 738 343 743 317 b 679 135 743 235 718 182 b 401 0 610 49 515 3 z "},"H":{"ha":921,"x_min":0,"x_max":0,"o":"m 714 -3 b 658 4 696 -1 676 0 b 571 101 608 17 581 54 b 563 154 567 119 564 138 b 564 189 563 175 564 171 b 550 200 563 196 558 199 l 496 197 b 382 208 447 199 424 208 b 357 182 367 207 358 200 b 344 103 351 157 346 131 b 233 0 340 22 304 4 l 219 1 b 144 13 194 1 169 7 b 96 72 113 19 99 39 b 50 561 79 235 65 399 b 36 782 43 635 40 708 l 38 792 b 111 904 38 842 61 879 b 219 939 149 924 179 939 b 258 931 232 938 246 936 b 276 924 265 929 271 928 b 346 839 317 908 343 886 l 354 639 b 342 472 350 583 342 535 b 386 436 343 447 353 440 b 479 428 418 432 449 428 l 528 431 b 589 488 568 435 585 447 b 593 522 592 504 593 514 l 592 564 l 592 675 l 590 800 b 719 926 590 879 640 904 b 751 933 729 931 740 932 l 764 933 b 835 921 788 933 811 926 b 888 858 868 913 886 892 l 888 750 b 868 283 885 547 868 486 b 882 149 871 219 882 208 b 865 60 882 118 875 89 b 821 15 856 36 843 22 b 728 -1 789 6 760 0 z "},"I":{"ha":440,"x_min":0,"x_max":0,"o":"m 314 4 l 243 7 b 131 4 206 6 168 4 l 106 4 b 24 93 50 7 24 49 b 35 140 24 108 26 125 b 86 172 44 161 67 165 b 144 247 143 189 140 189 b 149 388 147 294 149 342 b 143 678 149 485 143 582 b 140 707 143 688 140 697 b 121 725 139 719 132 725 l 108 725 b 21 811 51 725 35 750 b 17 840 18 821 17 831 b 19 865 17 849 18 857 b 85 929 26 903 47 928 b 293 942 154 932 224 942 l 339 940 b 449 833 404 938 449 890 b 443 796 449 822 447 808 b 382 739 433 765 414 743 b 349 701 358 735 349 726 b 333 397 347 600 333 499 l 335 358 b 363 196 338 303 347 249 b 392 165 368 181 375 171 b 446 86 425 153 446 121 l 446 79 b 376 10 440 39 419 17 b 314 4 356 6 335 4 z "},"J":{"ha":682,"x_min":0,"x_max":0,"o":"m 307 4 b 151 43 251 4 197 17 b 51 139 110 67 78 100 b 29 221 36 161 29 190 b 85 357 29 272 50 328 b 171 383 106 375 139 383 b 247 361 200 383 228 376 b 272 303 265 346 272 326 l 268 243 b 278 222 268 235 269 226 l 283 221 b 299 229 289 221 294 226 b 329 268 311 240 322 253 b 397 513 368 344 397 425 l 397 529 b 388 579 396 546 393 563 b 299 649 372 628 347 649 l 261 649 b 160 639 226 649 193 640 l 149 639 b 44 732 85 639 56 665 b 32 817 40 761 32 789 b 36 847 32 826 33 838 b 79 894 43 871 53 889 b 492 939 215 919 353 935 l 496 939 b 607 860 550 939 585 913 b 635 740 622 821 629 781 b 647 546 643 675 647 610 b 628 278 647 456 640 367 b 307 4 601 94 451 4 z "},"K":{"ha":733,"x_min":0,"x_max":0,"o":"m 568 3 b 514 14 551 3 533 7 b 347 144 444 39 394 90 b 318 175 338 154 331 175 l 317 175 b 300 135 306 174 306 149 b 254 50 289 104 272 76 b 194 22 242 31 218 22 b 139 40 174 22 154 28 b 99 117 115 61 106 89 b 83 264 88 165 86 215 b 51 532 78 354 61 444 b 40 711 46 593 49 653 b 32 789 36 738 32 763 l 32 797 b 89 918 33 844 38 894 b 178 940 118 932 147 940 b 261 913 206 940 235 932 b 307 811 294 888 306 851 l 307 768 l 304 768 l 304 675 b 322 635 304 660 306 642 l 333 633 b 364 651 344 633 356 642 b 482 779 403 694 439 739 b 611 868 521 814 563 846 b 681 886 632 878 656 885 l 683 886 b 776 793 738 886 776 847 l 776 790 b 743 672 775 749 765 708 b 565 410 690 581 625 497 b 543 357 550 390 543 374 b 560 310 543 343 549 328 b 614 249 574 286 593 267 b 667 181 635 228 653 207 b 682 117 676 158 682 138 b 653 42 682 89 672 64 b 568 3 629 15 600 3 z "},"L":{"ha":690,"x_min":0,"x_max":0,"o":"m 461 11 l 375 13 l 353 14 l 301 13 b 242 17 282 13 261 14 b 181 42 219 19 199 28 b 79 194 131 82 93 131 b 53 397 64 261 57 329 b 42 661 47 486 42 572 l 42 692 b 56 833 43 739 47 786 b 188 939 68 894 128 939 b 226 932 200 939 214 936 b 300 821 267 918 299 872 l 300 806 b 297 714 300 776 297 744 b 289 367 293 599 290 482 l 289 356 b 293 308 289 340 290 324 b 368 233 301 258 318 243 b 428 228 388 229 408 228 b 511 235 456 228 483 231 b 554 239 525 238 540 239 b 654 214 589 239 622 231 b 710 135 692 194 710 165 b 663 60 710 107 694 79 b 499 13 614 29 557 15 z "},"M":{"ha":883,"x_min":0,"x_max":0,"o":"m 154 1 b 121 7 143 1 132 3 b 44 136 61 29 53 49 b 39 282 40 185 39 233 b 42 411 39 325 40 368 b 49 689 44 504 40 597 b 90 886 54 757 64 824 b 147 931 103 917 121 931 b 174 926 156 931 164 929 b 268 856 213 914 240 885 b 336 756 294 825 318 793 b 417 618 358 707 392 665 b 432 601 424 607 428 601 b 447 618 436 601 440 607 b 679 899 515 721 592 815 b 725 932 693 913 708 924 b 758 940 738 938 749 940 b 815 900 782 940 801 926 b 839 793 833 867 836 831 b 846 563 844 717 846 639 l 843 385 b 819 97 840 289 835 193 b 758 18 814 57 797 28 b 729 14 749 15 739 14 b 654 51 701 14 678 25 b 590 249 606 107 593 175 l 590 349 l 585 351 b 550 313 574 338 563 324 b 419 253 510 275 467 253 b 351 267 397 253 375 257 b 306 311 331 276 319 294 b 293 324 303 317 300 324 l 290 324 b 282 307 283 321 282 314 l 282 301 b 264 92 282 232 279 161 b 154 1 251 38 203 1 z "},"N":{"ha":817,"x_min":0,"x_max":0,"o":"m 164 -6 b 46 118 103 -6 53 49 b 40 214 42 150 40 182 b 47 403 40 281 44 333 b 44 551 46 460 44 496 b 58 746 44 617 47 682 b 174 886 71 815 107 865 b 194 889 181 889 188 889 b 240 864 211 889 226 881 b 314 726 274 822 296 775 b 401 513 340 654 368 582 b 483 422 419 472 460 422 b 544 603 522 422 536 538 b 547 661 546 622 547 642 b 536 824 547 726 538 767 b 661 940 536 889 581 938 b 775 761 739 940 768 849 b 785 564 782 696 785 629 b 736 161 785 429 771 294 b 582 26 718 83 657 26 b 344 169 488 26 407 86 b 269 261 319 201 294 231 l 265 258 b 264 154 265 224 265 189 b 260 89 264 132 263 110 b 164 -6 250 32 214 -6 z "},"O":{"ha":663,"x_min":0,"x_max":0,"o":"m 256 1 b 60 143 172 1 99 56 b 15 315 36 199 24 256 b 8 414 11 349 8 381 b 86 733 8 525 33 632 b 389 943 149 856 249 932 l 415 944 b 610 797 508 944 583 904 b 632 694 618 764 629 729 b 639 574 636 654 638 614 l 639 567 b 528 161 639 421 599 285 b 274 3 472 64 385 13 z m 301 383 b 332 392 311 383 321 386 b 364 421 346 399 356 410 b 396 539 390 456 396 496 l 396 560 b 349 621 393 599 375 621 b 306 606 335 621 321 615 b 240 468 267 581 240 519 b 249 422 240 451 243 436 b 301 383 258 397 279 383 z "},"P":{"ha":732,"x_min":0,"x_max":0,"o":"m 182 -8 b 136 -6 167 -8 151 -8 b 72 44 107 0 86 18 b 50 151 56 78 50 114 l 54 410 b 57 608 57 476 57 542 b 39 829 57 682 56 756 l 38 840 b 57 874 38 854 44 865 b 156 906 88 893 121 906 b 204 897 171 906 188 903 b 229 885 214 894 224 892 b 253 872 238 875 244 872 b 275 881 260 872 267 875 b 396 931 311 907 354 917 b 438 936 410 935 424 936 b 469 933 449 936 458 935 b 726 679 600 914 708 810 b 731 621 729 660 731 640 b 618 388 731 528 697 447 b 438 319 567 347 506 319 l 403 322 b 303 364 368 328 338 343 b 329 243 313 319 322 282 b 336 149 333 211 336 181 b 332 85 336 128 335 106 b 281 13 328 50 310 28 b 182 -8 249 -3 215 -8 z m 447 532 b 526 613 492 532 525 567 b 438 703 526 665 490 701 b 347 628 386 703 347 671 l 347 624 b 444 532 347 561 378 533 z "},"Q":{"ha":760,"x_min":0,"x_max":0,"o":"m 603 6 b 503 63 567 6 535 24 b 482 76 496 72 489 76 b 463 69 476 76 471 74 b 274 14 404 35 342 15 l 269 14 b 124 75 213 14 165 36 b 8 368 44 150 8 242 l 8 375 b 90 738 11 497 28 622 b 311 922 139 829 215 886 b 406 940 344 935 375 940 b 590 872 471 940 532 914 b 664 763 628 846 649 806 b 696 579 685 701 696 640 b 675 429 696 529 689 479 b 651 333 667 397 661 365 l 650 322 b 665 300 650 313 656 307 b 728 246 688 285 708 265 b 765 165 754 219 765 193 b 735 79 765 139 754 110 b 647 14 714 47 682 26 b 603 6 632 8 617 6 z m 303 224 b 361 240 321 224 342 229 b 378 261 372 246 378 251 b 374 275 378 265 376 269 b 339 368 361 306 351 336 b 335 388 338 375 335 382 b 343 407 335 394 338 401 b 371 419 353 415 361 419 b 389 415 376 419 383 418 b 450 394 408 408 431 403 l 460 393 b 474 406 467 393 471 397 b 490 503 485 439 490 471 b 450 629 490 546 479 588 b 364 682 426 664 396 682 b 283 635 336 682 307 667 b 215 453 244 581 226 518 b 211 394 213 433 211 414 b 231 274 211 354 218 313 b 303 224 243 235 261 224 z "},"R":{"ha":708,"x_min":0,"x_max":0,"o":"m 208 0 b 156 4 190 0 174 1 l 131 8 b 74 72 99 17 79 40 b 46 371 58 169 46 269 l 47 429 b 51 536 50 465 51 500 l 51 643 b 63 831 54 706 54 768 b 74 883 65 849 69 867 b 140 951 85 918 103 944 b 186 960 157 954 171 958 l 207 961 l 225 960 b 299 900 257 954 281 935 b 311 886 303 890 306 886 l 315 886 b 325 889 318 886 321 888 b 451 917 367 906 408 917 b 488 914 464 917 475 915 b 547 897 508 911 528 906 b 714 644 650 854 714 744 l 711 611 b 688 542 708 586 700 563 b 493 390 639 464 582 421 b 488 386 492 390 490 388 b 510 371 492 376 501 375 b 644 238 567 338 611 292 b 675 139 664 207 675 174 b 672 113 675 131 674 121 b 667 88 671 104 669 96 b 560 1 651 32 608 1 l 542 3 b 494 18 526 6 510 10 b 301 197 401 68 367 113 l 300 183 b 304 156 300 172 303 164 b 313 82 310 132 313 107 b 311 56 313 68 313 69 b 256 4 307 25 290 10 b 208 0 240 1 225 0 z m 368 556 b 476 614 413 556 449 576 b 489 646 483 625 488 635 l 490 657 b 476 699 490 671 486 686 b 397 739 453 729 433 732 l 382 740 b 346 738 371 740 358 739 b 313 706 321 736 319 725 l 313 678 b 321 575 313 644 315 610 b 344 557 324 567 332 557 b 368 556 353 556 361 556 z "},"S":{"ha":611,"x_min":0,"x_max":0,"o":"m 132 -3 b 42 22 101 -3 69 3 b -6 90 17 39 0 64 l -7 113 b 3 160 -7 128 -4 144 b 22 194 7 172 14 185 b 103 264 49 235 72 257 b 125 265 110 265 117 265 b 183 257 142 265 161 263 b 253 242 207 251 231 243 b 274 243 260 242 268 242 b 297 261 283 246 292 250 b 306 288 303 269 306 279 l 304 296 b 294 315 303 303 299 310 b 218 383 275 344 246 364 b 118 457 183 407 149 429 b 47 578 79 494 57 536 b 43 624 44 593 43 608 b 117 808 43 694 75 761 b 351 931 193 888 251 908 b 440 940 382 938 411 940 l 469 939 b 583 868 519 935 558 911 b 613 790 597 843 607 817 b 618 740 617 774 618 757 b 608 676 618 719 615 697 b 592 633 606 661 599 647 b 535 588 575 607 557 593 l 522 586 b 474 597 508 586 492 590 b 414 624 453 606 435 617 b 390 629 406 628 397 629 l 378 628 b 339 601 363 624 349 615 b 329 578 332 593 329 585 l 329 574 b 350 553 331 565 338 557 b 438 522 379 540 408 532 b 493 494 457 515 475 506 b 572 394 538 469 564 435 b 576 360 575 383 576 371 b 567 296 576 339 574 318 b 414 89 542 208 488 142 b 239 7 360 49 301 21 b 132 -3 204 0 168 -3 z "},"T":{"ha":774,"x_min":0,"x_max":0,"o":"m 363 6 l 332 7 b 247 74 289 10 263 35 b 233 179 235 106 233 139 l 232 238 b 250 417 232 290 244 353 b 251 507 251 446 251 476 l 251 511 b 224 536 251 528 242 535 b 132 539 193 538 163 536 b 24 654 71 546 24 593 l 24 657 b 42 831 24 715 26 774 b 168 925 60 896 101 924 b 493 931 276 928 385 929 b 654 925 546 931 600 931 b 774 801 735 918 769 883 b 782 632 776 746 781 689 l 782 626 b 742 547 782 594 769 567 b 696 531 728 538 714 531 l 594 531 b 561 500 574 531 564 521 b 540 329 553 443 542 386 b 526 108 539 256 533 181 b 446 17 521 58 492 29 b 363 6 418 10 390 6 z "},"U":{"ha":836,"x_min":0,"x_max":0,"o":"m 397 -4 b 257 24 351 -4 304 7 b 146 125 207 43 169 76 b 35 553 79 260 38 401 b 31 654 33 588 31 621 b 39 746 31 685 33 715 b 85 840 47 781 63 813 b 161 874 106 867 132 874 l 186 872 b 272 832 218 868 247 854 b 300 771 289 815 297 796 b 369 435 308 656 314 540 b 421 363 383 408 399 383 b 435 354 426 357 431 354 b 446 369 439 354 443 360 b 471 550 461 429 471 489 l 468 601 b 447 814 461 672 453 743 l 446 833 b 507 918 446 876 464 897 b 607 942 540 935 574 942 b 686 929 633 942 660 938 b 760 857 722 917 746 892 b 782 700 778 806 781 753 b 799 335 786 578 799 457 b 782 151 799 272 797 211 b 771 115 779 139 775 126 b 681 39 751 65 719 39 b 613 61 660 39 636 46 b 593 68 606 65 600 68 b 575 60 588 68 582 65 b 397 -4 518 14 458 -4 z "},"V":{"ha":794,"x_min":0,"x_max":0,"o":"m 376 -4 b 283 56 340 -4 307 18 b 113 449 204 178 160 314 b 28 728 81 540 61 636 b 18 790 21 747 18 769 b 22 838 18 806 19 822 b 106 925 29 886 67 908 b 164 936 122 932 143 936 b 315 850 222 936 288 908 b 388 621 350 776 369 699 l 399 561 b 414 583 410 568 411 576 b 549 853 457 674 503 764 b 689 935 581 913 631 935 l 700 935 b 847 839 765 932 815 897 b 854 807 853 828 854 818 b 851 785 854 800 854 793 b 778 613 833 725 807 668 b 711 493 757 572 735 532 b 521 124 638 375 589 244 b 439 18 499 85 475 46 b 376 -4 418 3 397 -4 z "},"W":{"ha":917,"x_min":0,"x_max":0,"o":"m 628 13 b 590 38 613 13 600 19 b 557 100 581 58 567 78 b 496 206 540 139 518 172 b 489 214 493 211 492 214 b 481 206 486 214 483 211 b 379 44 450 149 413 99 b 335 15 367 25 351 15 b 286 50 317 15 299 28 b 246 138 271 78 258 107 b 142 379 213 219 176 299 b 35 704 97 483 63 592 b 19 804 28 738 19 771 b 22 842 19 817 21 829 b 115 938 33 901 71 938 b 153 929 128 938 140 935 b 240 836 192 911 221 883 l 306 678 b 351 617 317 653 336 636 l 358 613 b 368 626 363 613 365 621 b 436 753 394 665 414 710 b 465 800 444 769 454 786 b 493 815 475 811 485 815 b 522 792 504 815 515 808 b 539 733 531 774 535 753 b 601 565 554 676 574 622 l 629 668 b 671 806 643 714 658 760 b 838 940 693 886 767 940 b 860 939 844 940 853 940 b 943 813 910 931 943 878 l 942 792 b 931 733 939 772 935 753 b 789 313 893 589 846 447 b 700 90 758 239 733 163 b 664 31 690 68 679 47 b 628 13 656 19 640 13 z "},"X":{"ha":711,"x_min":0,"x_max":0,"o":"m 104 1 l 93 1 b -8 108 33 1 -8 49 l -8 114 b 88 338 -7 203 40 271 b 199 496 125 390 168 439 b 204 515 203 503 204 510 b 199 533 204 521 203 526 b 97 682 167 583 135 635 b 57 789 71 715 57 751 b 67 844 57 807 60 825 b 167 928 86 901 125 928 b 251 893 196 928 225 915 b 343 772 290 860 321 819 b 369 728 350 757 360 743 b 381 718 374 722 376 718 b 392 728 383 718 388 722 b 492 857 425 771 457 815 b 657 932 535 908 592 932 l 660 932 b 744 844 711 932 744 894 l 743 831 b 658 667 735 765 703 713 b 544 561 622 629 589 590 l 535 551 b 513 518 519 536 513 528 b 526 483 513 510 517 500 b 656 251 572 407 618 332 b 682 129 674 210 676 165 b 668 61 682 100 678 81 b 600 11 649 28 626 11 b 538 39 581 11 560 21 b 389 232 472 92 432 164 b 357 272 374 258 367 272 b 324 239 350 272 342 261 b 194 56 278 179 243 113 b 104 1 171 26 142 6 z "},"Y":{"ha":678,"x_min":0,"x_max":0,"o":"m 335 -4 b 258 25 308 -4 281 6 b 239 54 249 33 242 43 b 219 161 228 89 219 125 l 219 175 b 224 313 224 221 224 267 l 224 381 b 200 425 224 400 213 413 b 50 668 135 497 90 582 b 14 833 25 721 17 776 l 14 838 b 124 940 14 896 64 940 b 228 878 171 940 204 918 b 340 665 268 810 308 739 b 350 651 343 660 344 653 l 353 651 b 365 664 360 651 361 658 b 519 872 414 735 463 807 b 613 935 544 901 571 928 l 631 936 b 743 825 693 936 743 889 l 742 806 b 657 611 729 735 707 667 b 510 456 608 558 567 500 b 490 414 494 446 490 432 l 490 358 b 482 211 490 308 489 260 b 429 54 474 156 456 103 b 335 -4 410 17 372 -4 z "},"Z":{"ha":757,"x_min":0,"x_max":0,"o":"m 489 1 b 225 68 397 1 310 25 b 129 121 192 85 160 100 b 68 235 88 150 68 190 b 72 272 68 247 69 260 b 163 444 86 338 122 392 b 256 535 190 479 222 508 b 335 617 286 558 313 585 b 344 640 340 626 344 633 b 315 663 344 651 335 658 b 282 665 304 664 293 665 b 214 657 258 665 236 661 b 115 642 182 649 149 642 l 107 642 b 17 728 44 644 17 669 l 17 740 b 51 858 19 782 32 821 b 188 935 79 913 129 933 l 254 935 b 678 908 396 929 538 932 b 729 871 701 904 717 890 b 751 793 744 846 751 819 b 742 736 751 775 747 756 b 629 561 719 668 676 614 b 474 386 578 503 524 447 b 440 338 461 371 450 356 b 435 315 436 329 435 322 b 457 288 435 304 442 296 b 600 256 503 265 551 260 b 683 240 628 253 656 250 b 757 165 719 228 750 206 l 758 147 b 711 63 758 113 740 85 b 569 7 669 32 621 15 b 489 1 542 3 515 1 z "},"[":{"ha":207,"x_min":0,"x_max":0,"o":"m 136 -4 b 14 94 81 -4 24 38 b 0 321 3 169 3 246 l 0 643 b 4 774 0 686 0 731 b 14 840 7 796 8 819 b 129 931 24 893 76 931 b 182 901 153 931 181 928 b 165 881 182 892 174 885 b 90 822 125 861 90 864 l 92 790 b 83 313 88 617 83 475 l 86 163 b 88 135 86 153 86 143 b 129 90 89 96 92 94 b 207 40 169 86 206 82 b 136 -4 207 8 168 -4 z "},"\\":{"ha":503,"x_min":0,"x_max":0,"o":"m 476 -6 b 456 3 469 -6 463 -3 b 361 113 419 35 383 68 b 24 833 239 349 117 585 b 3 894 15 854 8 874 b 0 913 1 901 0 907 b 17 942 0 924 4 935 b 38 947 24 946 31 947 b 71 933 49 947 60 942 b 146 833 103 906 126 871 b 260 615 185 761 224 689 b 483 149 336 460 408 304 b 503 82 494 128 503 106 b 500 58 503 74 501 67 l 500 19 b 476 -6 497 3 488 -6 z "},"]":{"ha":214,"x_min":0,"x_max":0,"o":"m 75 -7 b 0 39 42 -7 0 7 b 39 83 1 64 14 76 l 81 90 b 125 135 119 93 122 96 b 128 322 125 207 128 246 b 121 832 128 503 121 633 l 121 843 b 79 888 121 869 107 882 b 26 922 57 893 26 900 b 79 951 28 946 54 951 b 200 860 133 951 188 914 b 214 657 213 790 214 728 l 213 526 l 214 326 b 199 94 211 249 211 171 b 75 -7 189 35 132 -7 z "},"^":{"ha":324,"x_min":0,"x_max":0,"o":"m 282 499 b 243 524 267 499 254 510 b 197 614 224 551 210 582 b 146 753 181 658 165 703 b 121 678 136 725 128 701 b 68 553 106 636 89 593 b 24 510 58 533 50 510 l 18 510 b 0 546 7 511 0 526 b 4 576 0 556 1 565 b 82 804 24 656 53 729 b 131 919 97 843 114 881 b 163 944 136 933 146 943 l 164 944 b 188 919 181 944 182 931 b 311 618 239 822 269 718 b 324 553 319 597 324 575 l 324 546 b 296 501 324 526 318 508 z "},"_":{"ha":650,"x_min":0,"x_max":0,"o":"m 551 -212 l 368 -212 b 81 -200 254 -210 167 -210 l 53 -196 b 0 -153 26 -190 0 -182 l 0 -150 b 56 -107 0 -121 28 -111 b 169 -96 93 -101 132 -97 b 549 -89 296 -92 422 -90 l 554 -89 b 650 -150 615 -89 649 -111 b 551 -212 650 -190 615 -212 z "},"`":{"ha":167,"x_min":0,"x_max":0,"o":"m 122 719 b 113 725 119 719 117 721 b 99 742 107 731 103 736 b 4 931 57 800 32 865 b 0 946 1 935 0 940 l 0 949 b 14 972 0 958 6 967 b 28 976 18 975 24 976 b 43 971 33 976 39 974 b 60 956 50 967 56 963 b 132 757 100 896 124 829 b 129 731 132 747 132 739 b 122 719 128 724 125 719 z "},"a":{"ha":543,"x_min":0,"x_max":0,"o":"m 408 -6 b 358 21 390 -6 372 3 b 338 60 350 33 342 46 l 326 104 b 278 24 317 72 301 46 b 193 -4 258 4 226 -4 b 71 49 144 -4 93 14 b 10 258 28 114 10 183 l 11 289 b 49 449 15 344 25 399 b 181 601 78 513 122 564 b 279 631 213 621 246 631 b 339 621 299 631 318 628 l 349 619 b 364 625 354 619 358 621 b 388 636 371 632 379 636 b 411 629 396 636 403 633 b 475 563 442 617 461 592 b 511 400 500 511 507 456 b 513 338 513 379 513 358 b 493 106 513 260 506 182 b 453 14 489 71 479 39 b 408 -6 439 0 424 -6 z m 226 258 b 253 267 236 258 246 261 b 278 318 274 282 278 304 l 278 325 b 258 378 278 350 271 365 b 222 394 247 389 235 394 b 185 378 210 394 197 389 b 165 328 171 365 165 346 b 176 286 165 313 168 299 b 226 258 189 268 208 258 z "},"b":{"ha":436,"x_min":0,"x_max":0,"o":"m 265 -1 l 258 -1 b 154 51 217 -1 182 18 l 150 57 l 147 58 b 138 39 144 51 142 44 b 99 14 129 22 114 14 b 60 38 85 14 69 22 b 38 118 43 63 42 90 b 29 296 31 178 29 238 l 29 364 b 47 550 31 426 35 489 b 142 629 57 597 96 629 l 150 629 b 218 549 188 626 211 599 b 224 469 222 522 224 496 b 207 318 224 419 218 368 l 204 299 b 279 331 226 317 251 328 l 289 331 b 372 296 321 331 349 318 b 446 168 411 261 439 221 b 449 149 447 161 449 154 b 426 86 449 125 440 106 b 265 -1 386 32 331 3 z m 251 129 b 290 167 272 129 290 144 b 258 203 290 188 278 203 b 219 161 235 203 219 188 b 251 129 218 144 233 131 z "},"c":{"ha":447,"x_min":0,"x_max":0,"o":"m 314 -6 b 238 8 289 -6 264 -1 b 128 64 199 24 163 43 b 61 146 94 82 76 114 b 13 374 31 215 15 288 b 85 547 18 432 35 499 b 275 629 136 599 200 628 l 278 629 b 419 489 356 629 417 568 l 419 474 b 406 407 419 451 417 428 b 353 368 393 381 375 368 b 319 376 343 368 332 371 b 258 397 300 385 278 390 l 250 399 b 229 390 242 399 235 396 b 194 303 208 372 194 338 b 201 263 194 289 197 275 b 296 197 215 225 254 197 b 360 201 318 197 339 200 l 367 201 b 453 114 432 201 446 163 l 454 94 b 406 18 454 61 439 38 b 314 -6 375 1 344 -6 z "},"d":{"ha":467,"x_min":0,"x_max":0,"o":"m 151 -4 b 42 44 111 -4 71 13 b -8 178 6 82 -4 119 b 118 363 -8 251 29 326 b 215 381 158 378 175 379 l 250 381 b 257 390 256 381 257 383 l 256 393 l 253 444 b 263 561 253 483 257 522 b 347 635 272 610 304 631 b 392 622 363 635 376 631 b 424 554 421 607 419 586 b 431 408 429 507 429 458 l 432 221 b 417 99 432 181 428 139 b 342 26 401 51 389 26 b 288 64 317 26 299 40 b 281 72 283 69 285 72 b 151 -4 243 15 217 0 z m 186 150 b 217 183 203 153 217 167 l 215 188 b 176 228 213 208 193 228 l 175 228 b 149 186 161 225 149 206 l 149 181 b 182 150 151 163 167 150 z "},"e":{"ha":471,"x_min":0,"x_max":0,"o":"m 253 4 b 192 15 233 4 213 8 b 76 103 143 32 104 61 b 10 297 35 164 13 231 b 133 568 13 411 50 500 b 304 624 185 608 243 624 l 321 624 b 369 617 338 622 354 621 b 460 515 418 603 451 565 b 464 475 463 501 464 489 b 450 394 464 447 458 421 b 396 333 440 367 424 346 b 301 306 365 319 335 311 b 233 253 269 300 247 281 b 228 231 231 244 228 238 b 265 196 228 213 242 199 b 304 193 279 193 292 193 b 367 199 325 193 346 196 l 388 200 b 433 138 419 200 433 183 b 414 81 433 117 429 96 b 253 4 371 36 314 4 z m 274 422 b 299 429 281 422 290 425 b 329 468 317 435 328 449 l 329 472 b 307 511 329 489 321 503 b 276 521 297 517 288 521 b 246 510 267 521 256 517 b 221 463 228 499 221 482 l 221 453 b 229 438 221 447 224 442 b 274 422 242 429 256 422 z "},"f":{"ha":497,"x_min":0,"x_max":0,"o":"m 186 -12 l 171 -11 b 104 29 143 -6 122 8 b 49 161 72 68 58 113 b 36 303 39 207 38 256 l 36 432 b 33 481 35 449 33 464 b 39 542 33 501 35 521 b 135 626 47 589 92 626 l 147 625 l 158 622 b 203 610 172 613 188 610 b 247 613 218 610 232 613 b 333 618 276 614 304 618 l 374 615 l 411 607 b 485 524 453 594 476 567 b 489 478 488 508 489 493 b 479 417 489 457 486 436 b 397 357 465 379 433 357 b 368 361 388 357 378 358 b 267 386 335 371 301 379 l 242 389 l 225 388 b 193 357 207 385 196 375 l 193 350 b 210 319 193 338 199 328 b 283 300 232 304 258 304 b 353 242 322 293 346 275 b 354 225 354 236 354 231 b 281 151 354 183 321 151 b 257 154 272 151 265 151 b 238 158 249 157 242 158 b 221 139 225 158 221 151 l 222 122 l 236 39 b 186 -12 236 7 217 -12 z "},"g":{"ha":469,"x_min":0,"x_max":0,"o":"m 189 -11 b 163 -10 181 -11 172 -11 b 124 6 147 -8 135 -4 b 104 46 110 17 104 32 b 106 60 104 50 104 56 b 154 94 114 82 132 93 l 165 94 l 193 93 l 207 92 b 276 136 239 92 261 110 b 293 189 288 153 293 171 l 292 201 b 286 214 292 207 292 213 b 279 206 281 214 279 208 b 272 199 278 201 275 200 b 171 169 239 181 204 169 b 83 196 142 169 113 178 b 31 271 57 213 42 242 b 13 376 18 307 13 343 b 93 565 13 446 39 510 b 231 626 132 606 179 626 b 275 621 244 626 260 624 b 292 619 282 619 286 619 b 324 628 303 619 313 622 b 360 636 335 633 347 636 b 418 596 383 636 407 625 b 435 536 426 576 431 557 b 444 399 442 490 444 444 b 411 149 444 314 433 231 b 274 6 390 75 340 32 b 189 -11 246 -6 218 -11 z m 217 365 b 254 400 239 369 254 383 l 253 404 b 196 444 250 425 219 444 l 183 442 l 176 436 b 168 408 171 429 168 419 b 174 385 168 400 171 392 b 208 365 182 371 193 365 z "},"h":{"ha":540,"x_min":0,"x_max":0,"o":"m 464 0 b 369 67 424 0 382 15 b 318 140 361 99 343 140 b 276 64 293 140 292 93 b 192 7 258 26 225 7 b 114 46 164 7 135 19 b 69 167 86 82 78 124 b 26 426 54 253 40 339 b 18 528 21 458 18 493 b 58 613 19 569 19 593 b 126 633 81 622 103 633 b 217 515 193 629 217 572 l 217 467 b 207 250 217 397 210 332 b 244 279 222 260 232 271 b 385 332 286 314 335 332 b 433 326 401 332 417 329 b 543 108 531 308 543 201 b 521 21 543 71 540 51 b 500 4 517 14 510 7 b 464 0 489 1 476 0 z "},"i":{"ha":229,"x_min":0,"x_max":0,"o":"m 126 -1 b 106 4 119 -1 113 1 b 54 63 79 15 61 35 b 35 204 40 108 38 157 b 29 304 32 240 29 278 l 29 319 b 40 522 31 399 31 461 b 58 569 43 539 44 557 b 104 588 72 582 88 588 b 163 554 128 588 150 576 b 189 465 178 526 186 497 b 200 294 196 408 200 351 b 197 207 200 265 199 236 b 182 74 194 163 193 118 b 164 25 178 57 174 40 b 126 -1 156 8 142 -1 z m 114 621 l 108 621 b 46 678 72 621 47 643 l 46 681 b 110 746 46 719 69 744 l 114 746 b 168 696 147 746 167 728 l 168 692 b 114 621 168 651 146 622 z "},"j":{"ha":447,"x_min":0,"x_max":0,"o":"m 197 -4 b 47 74 138 -4 85 19 b 14 167 26 103 14 133 b 24 219 14 185 17 201 b 89 267 36 250 60 267 b 110 264 96 267 103 265 b 140 238 124 261 135 251 l 153 203 b 181 164 158 186 168 174 b 197 158 186 160 192 158 b 214 171 204 158 210 163 b 246 299 231 213 246 254 b 236 358 246 318 243 339 b 181 404 226 389 207 404 l 161 401 b 108 394 143 397 126 394 b 81 397 99 394 90 396 b 44 421 65 400 53 407 b 26 483 33 440 28 463 b 25 547 25 506 25 526 b 44 572 25 561 29 569 b 153 601 82 581 117 594 b 278 618 194 608 236 615 l 281 618 b 385 542 324 618 363 590 b 413 425 401 504 407 465 b 418 364 415 404 417 385 l 418 306 l 419 272 b 406 158 419 233 414 196 b 242 0 382 58 333 18 b 197 -4 226 -3 211 -4 z "},"k":{"ha":550,"x_min":0,"x_max":0,"o":"m 385 -6 l 379 -6 b 256 124 322 1 276 60 b 247 139 253 128 253 133 b 204 64 242 107 224 85 b 139 32 185 46 164 32 b 114 36 129 33 124 32 b 57 154 63 53 60 111 b 29 451 50 253 42 351 b 25 521 26 475 25 497 b 28 582 25 542 26 561 b 51 608 31 594 40 603 b 111 622 72 618 92 622 b 206 551 154 621 188 600 b 221 460 217 524 221 490 b 249 422 224 442 225 424 b 275 442 258 422 267 432 b 464 550 326 489 406 550 b 547 443 518 549 547 500 b 528 393 546 425 539 407 b 393 290 486 340 454 326 b 368 260 378 281 369 271 b 449 156 368 228 418 197 b 489 72 469 132 489 97 b 385 -6 486 29 435 -6 z "},"l":{"ha":256,"x_min":0,"x_max":0,"o":"m 194 -1 b 147 4 179 -1 164 0 b 72 61 114 11 89 32 b 35 192 49 101 39 146 b 25 347 29 243 26 294 b 50 540 26 413 29 478 b 81 603 57 563 67 583 b 125 628 93 619 106 628 b 150 624 132 628 140 626 b 193 572 176 617 189 600 l 196 539 b 189 463 196 514 192 488 b 181 354 183 426 181 390 b 203 200 181 303 188 251 b 240 146 208 176 222 160 b 289 94 260 132 278 117 b 296 68 293 85 296 76 b 279 33 296 56 290 44 b 194 -1 254 7 225 -1 z "},"m":{"ha":596,"x_min":0,"x_max":0,"o":"m 475 7 b 440 15 464 7 453 10 b 406 72 415 25 407 47 b 392 282 404 140 400 210 l 385 253 b 347 100 371 201 357 151 b 304 42 342 75 333 51 l 290 40 b 261 53 279 40 271 44 b 228 136 239 75 231 104 b 226 172 226 149 226 161 l 228 265 b 221 300 228 276 226 288 b 204 224 213 274 208 249 b 188 101 200 183 194 142 l 185 71 b 160 17 183 49 176 31 b 144 8 156 13 150 10 b 129 7 139 7 135 7 b 47 75 90 7 54 36 b 40 142 43 97 42 119 b 43 243 40 175 40 210 l 43 251 b 40 315 43 272 40 294 l 42 356 b 32 472 42 394 33 433 l 31 510 b 33 549 31 522 32 536 b 60 593 36 567 44 582 b 118 622 78 606 96 617 l 138 625 b 190 588 161 625 179 613 l 203 556 b 303 608 229 589 264 603 l 317 610 b 374 581 340 610 360 600 b 382 575 376 576 379 575 b 389 578 383 575 386 575 b 461 607 413 599 438 607 b 553 536 500 607 535 582 b 567 463 561 513 565 488 b 571 338 569 421 571 379 b 553 140 571 272 567 206 b 549 81 549 121 550 100 b 475 7 546 36 514 7 z "},"n":{"ha":579,"x_min":0,"x_max":0,"o":"m 153 0 b 101 28 135 0 117 11 b 74 86 85 43 78 64 b 51 251 60 140 54 196 b 33 386 49 297 39 342 b 21 547 26 440 22 493 l 21 551 b 53 607 21 575 32 594 b 125 629 78 622 103 629 b 196 600 151 629 175 619 b 219 572 206 592 213 582 b 226 565 222 568 224 565 b 235 569 229 565 232 567 b 383 622 276 608 329 619 l 388 622 b 510 556 439 622 479 594 b 561 400 544 510 561 457 l 560 369 b 535 225 554 321 547 274 b 513 163 529 204 522 182 b 454 46 493 124 476 83 b 428 14 447 33 439 22 b 392 1 417 4 404 1 b 338 43 365 1 340 19 b 322 106 335 64 324 83 l 322 138 b 336 290 322 189 333 239 l 336 301 b 331 336 336 314 335 325 b 304 357 325 350 314 357 b 279 342 296 357 286 351 b 254 268 264 319 260 293 b 231 119 243 219 236 169 b 192 24 226 85 213 53 b 153 0 181 7 167 0 z "},"o":{"ha":460,"x_min":0,"x_max":0,"o":"m 219 11 b 85 76 171 11 122 33 b 14 275 33 135 14 201 l 15 318 b 47 475 19 371 26 425 b 222 622 81 554 138 606 b 251 625 232 624 242 625 b 351 586 289 625 322 611 b 436 428 400 544 422 488 b 442 372 440 410 442 390 b 385 119 439 285 429 197 b 279 22 361 76 329 39 b 219 11 260 15 239 11 z m 213 246 b 256 278 229 246 246 256 b 264 315 260 290 264 303 b 263 331 264 321 264 326 b 210 388 258 357 235 383 l 206 388 b 165 354 185 388 178 368 b 160 344 163 351 161 347 b 153 311 156 333 153 322 b 175 261 153 292 160 274 b 213 246 186 251 200 246 z "},"p":{"ha":535,"x_min":0,"x_max":0,"o":"m 147 3 b 63 131 106 3 74 79 b 32 388 44 215 35 301 l 31 510 b 42 604 31 542 33 572 b 53 617 43 611 47 615 b 125 631 76 625 100 631 b 163 607 143 631 154 624 b 181 575 168 596 168 576 b 211 592 189 575 200 586 b 361 632 258 615 308 632 b 499 550 426 629 472 613 b 519 440 511 514 519 478 b 515 392 519 425 518 408 b 343 253 500 310 419 253 b 253 271 313 253 283 261 b 244 275 250 272 247 275 b 239 271 240 274 242 275 b 246 203 246 246 246 226 b 219 61 246 154 238 107 b 147 3 204 25 174 3 z m 299 394 b 342 439 322 394 342 414 l 342 442 b 294 485 342 464 319 483 b 258 438 276 485 258 461 l 258 435 b 296 394 258 414 276 394 z "},"q":{"ha":453,"x_min":0,"x_max":0,"o":"m 329 -7 b 268 25 306 -7 285 4 b 228 143 242 60 229 100 l 226 183 b 246 308 226 225 231 267 l 250 324 l 249 328 b 136 300 213 311 175 300 b 97 304 124 300 110 301 b 8 414 51 314 8 365 l 10 428 b 58 558 17 476 26 524 b 194 624 96 600 140 624 l 219 622 b 242 617 226 621 235 619 b 271 608 251 611 260 608 b 292 613 278 608 283 610 l 300 614 b 325 606 308 614 317 610 b 400 515 363 586 388 556 b 415 429 408 486 414 458 b 424 269 417 376 424 322 l 422 236 b 390 46 419 171 414 107 b 343 -6 382 22 371 -1 z m 185 414 b 232 467 213 414 232 435 b 188 506 232 489 213 506 b 143 457 174 506 143 481 l 143 456 b 185 414 143 438 165 414 z "},"r":{"ha":469,"x_min":0,"x_max":0,"o":"m 122 1 b 64 47 97 1 75 22 b 42 143 50 76 46 110 b 28 369 32 218 28 293 b 31 475 28 404 29 440 b 133 575 33 536 78 575 b 167 569 144 575 156 572 l 172 568 b 179 572 175 568 176 569 b 354 632 231 611 292 626 l 358 632 b 425 588 388 632 413 617 b 447 486 438 556 444 521 b 451 433 449 468 451 451 l 449 403 b 408 354 446 376 435 361 b 385 351 400 353 392 351 b 318 413 350 351 328 372 b 308 432 315 426 314 432 b 292 425 306 432 300 429 b 222 382 267 414 240 403 b 210 350 214 372 210 363 l 210 289 l 213 289 l 213 138 b 167 24 213 94 197 56 b 122 1 151 8 136 1 z "},"s":{"ha":376,"x_min":0,"x_max":0,"o":"m 190 -6 b 147 -3 175 -6 161 -6 b 54 58 110 6 79 25 b 21 142 36 82 21 110 l 22 165 b 71 208 31 193 49 208 b 100 201 85 208 85 206 b 167 172 126 189 142 179 l 178 171 b 194 178 183 171 189 172 b 200 194 197 183 200 189 l 201 204 b 199 219 201 210 201 215 b 168 247 193 233 182 242 l 125 264 b 19 414 50 289 19 351 b 24 460 19 431 24 443 b 179 607 42 542 101 586 b 232 615 197 613 214 615 l 251 614 l 260 611 b 335 517 307 597 335 558 b 332 497 335 510 333 504 b 315 458 329 485 324 471 b 289 440 308 446 300 440 b 268 446 278 440 281 442 b 235 457 257 451 246 454 b 206 460 225 458 215 460 l 194 460 b 167 435 178 460 172 453 l 165 421 b 182 381 165 406 171 393 b 240 343 199 363 218 350 b 297 319 260 338 279 328 b 378 179 353 294 378 231 b 371 138 378 158 376 157 b 299 24 354 85 342 57 b 190 -6 264 0 226 -3 z "},"t":{"ha":456,"x_min":0,"x_max":0,"o":"m 317 8 b 232 28 290 8 261 15 b 115 192 160 60 128 118 b 104 211 114 207 113 211 l 71 208 b 35 213 60 208 47 210 b -25 282 -1 219 -25 249 b -18 315 -25 293 -24 304 b 53 368 -4 346 19 363 l 69 368 b 92 375 79 368 88 369 b 94 388 94 378 94 382 b 92 413 94 396 93 404 b 101 565 92 464 93 515 b 183 636 108 607 146 636 b 210 631 192 636 201 633 b 242 589 229 624 238 608 b 254 461 251 549 254 507 l 256 450 b 251 394 256 433 253 414 l 251 390 b 269 376 251 381 257 376 l 300 378 b 329 375 310 378 319 378 b 376 351 347 371 363 364 b 401 301 393 339 401 321 b 354 235 401 275 385 247 b 290 219 333 226 313 221 b 281 213 283 218 281 217 l 283 204 b 318 167 293 190 301 175 b 329 163 322 164 326 163 b 343 171 335 163 339 165 l 367 192 b 411 208 381 204 396 208 b 440 204 421 208 431 207 b 475 172 457 199 468 188 b 483 131 481 158 483 144 b 440 50 483 99 469 69 b 317 8 401 24 360 8 z "},"u":{"ha":513,"x_min":0,"x_max":0,"o":"m 253 -4 b 106 65 197 -4 142 21 b 18 292 51 132 24 207 l 18 325 b 56 536 18 399 29 468 b 103 600 65 561 78 585 b 149 614 118 608 133 614 b 186 601 161 614 174 610 b 211 546 203 590 211 569 b 208 522 211 539 211 531 b 196 488 206 510 200 500 b 168 365 179 449 168 407 b 172 321 168 350 169 336 b 196 256 176 299 183 275 b 243 221 211 232 225 221 b 264 225 250 221 257 222 b 301 268 283 232 294 250 b 332 392 317 308 326 349 b 335 442 335 408 335 425 b 325 525 335 469 332 497 b 322 547 324 532 322 540 b 332 588 322 561 326 575 b 394 622 346 611 369 622 b 454 590 418 622 440 613 b 467 558 460 581 464 569 b 488 414 478 508 488 458 l 488 399 b 468 189 486 322 483 256 b 328 11 450 108 406 46 b 253 -4 304 0 278 -4 z "},"v":{"ha":508,"x_min":0,"x_max":0,"o":"m 243 6 b 189 31 224 6 206 14 b 128 119 164 57 147 89 b 53 319 90 182 72 251 b 21 463 40 367 25 413 l 19 500 b 22 536 19 511 21 524 b 50 600 25 561 38 581 b 83 618 58 613 71 618 b 118 604 94 618 107 614 b 167 535 140 585 154 561 b 215 385 189 486 201 435 b 247 268 225 346 236 307 l 251 268 b 281 356 261 297 269 326 b 349 561 304 424 322 493 b 376 608 356 578 363 594 b 422 625 390 619 407 625 b 475 597 443 625 463 617 b 493 529 488 576 492 553 l 493 515 b 471 339 493 456 485 397 b 418 189 460 286 443 236 b 318 56 392 139 360 93 b 297 32 310 49 306 39 b 243 6 281 15 263 6 z "},"w":{"ha":700,"x_min":0,"x_max":0,"o":"m 482 -1 b 431 14 464 -1 446 4 b 400 56 415 25 407 39 b 360 163 383 90 371 126 b 354 175 358 167 358 174 b 346 164 347 175 347 168 b 306 68 332 132 322 99 b 254 15 293 47 278 26 b 222 8 244 11 233 8 b 169 29 203 8 185 15 b 85 158 132 67 103 108 b 22 404 57 239 29 318 b 18 476 21 428 18 451 b 19 515 18 489 18 503 b 75 596 25 551 44 579 b 122 607 89 603 106 607 b 196 558 153 607 182 594 b 214 486 206 536 210 511 l 242 333 b 246 319 243 329 242 324 b 256 342 253 326 253 335 b 293 446 268 376 276 413 b 363 492 308 475 335 492 b 401 481 376 492 389 488 b 436 436 419 469 431 454 l 465 331 b 472 346 471 336 471 342 b 524 553 489 415 506 483 b 544 597 528 569 532 585 b 599 622 561 615 578 622 b 619 619 606 622 613 621 b 669 560 649 611 665 588 b 678 450 675 524 678 486 b 629 164 678 353 660 258 b 544 25 613 111 581 67 b 482 -1 529 7 506 -1 z "},"x":{"ha":583,"x_min":0,"x_max":0,"o":"m 101 3 b 24 67 69 3 38 22 b 19 86 21 74 19 81 b 36 138 19 104 28 121 b 68 176 43 153 56 165 b 122 256 92 199 108 226 b 135 313 131 275 135 294 b 118 382 135 336 128 358 b 92 414 113 396 103 406 b 10 506 60 439 29 468 b -3 546 1 519 -3 533 b 8 582 -3 558 0 571 b 63 614 21 601 43 610 b 106 619 78 617 92 619 b 210 554 144 619 175 603 b 250 489 224 533 233 510 b 288 460 265 469 276 460 b 328 488 300 460 311 469 b 372 542 343 506 358 524 b 500 621 404 585 447 611 l 513 622 b 561 593 533 622 549 611 b 581 522 575 571 581 547 l 579 493 b 521 400 574 453 551 424 l 456 349 b 426 293 436 333 426 315 b 431 269 426 286 428 278 b 450 224 433 253 442 238 b 493 111 468 188 483 150 b 496 86 494 103 496 94 b 418 15 496 44 465 15 l 414 15 b 361 40 392 15 375 26 b 290 115 336 64 310 88 b 258 132 281 126 269 132 b 224 111 244 132 231 125 b 165 33 207 83 188 58 b 101 3 149 14 125 3 z "},"y":{"ha":513,"x_min":0,"x_max":0,"o":"m 211 3 b 51 110 149 3 85 29 b 44 143 46 121 44 132 b 110 222 44 178 75 222 b 199 167 142 222 174 189 b 244 149 215 154 231 149 b 332 258 294 149 331 208 b 328 269 332 265 331 269 b 246 250 296 260 278 250 b 150 278 214 250 182 260 b 8 457 83 319 8 374 b 94 572 8 507 43 572 b 182 517 126 572 161 544 b 238 463 201 492 219 463 b 260 472 244 463 251 465 b 306 563 290 496 293 533 b 399 628 324 603 350 625 b 461 588 426 628 449 614 b 486 411 478 546 486 471 b 481 294 486 372 485 333 b 476 244 479 278 476 263 l 476 238 b 464 199 476 224 471 211 b 211 3 410 93 338 3 z "},"z":{"ha":488,"x_min":0,"x_max":0,"o":"m 325 -6 l 301 -6 b 151 19 250 -6 200 3 b 72 126 103 36 72 78 l 71 132 b 83 164 71 143 75 154 b 153 239 104 190 125 218 b 229 318 182 263 208 288 b 250 364 239 332 246 347 l 251 376 b 218 410 251 394 239 407 b 151 414 196 414 174 414 l 138 414 b 47 421 107 414 76 417 b 11 454 28 422 15 436 b 6 493 7 467 6 481 b 15 544 6 511 8 528 b 54 585 24 563 36 575 b 178 615 93 607 135 614 b 257 617 201 617 225 617 l 283 617 b 375 610 311 617 343 617 b 482 521 425 599 465 572 b 485 494 483 513 485 504 b 482 464 485 485 483 474 b 413 346 471 418 449 378 b 335 264 385 321 361 292 b 315 231 326 254 321 243 b 311 214 313 224 311 218 b 332 190 311 204 317 197 l 392 165 b 442 121 414 157 431 142 b 453 81 449 108 453 94 b 419 21 453 58 442 36 b 325 -6 390 3 358 -3 z "},"{":{"ha":240,"x_min":0,"x_max":0,"o":"m 168 6 b 149 7 161 6 156 6 b 42 119 90 19 53 60 b 33 213 36 150 35 182 b 26 339 32 254 29 297 b 11 375 26 353 24 365 b 0 397 4 382 0 389 b 10 418 0 404 4 413 b 47 515 40 444 43 479 l 49 579 b 46 688 49 615 47 651 l 44 760 b 51 842 44 788 46 814 b 136 938 61 897 93 932 l 149 939 b 200 922 167 939 185 933 b 215 900 208 917 215 910 b 213 889 215 896 214 893 b 190 875 207 879 199 875 l 153 879 b 115 821 124 879 117 864 l 115 681 b 118 593 117 651 118 622 b 107 483 118 557 115 519 b 104 414 104 472 104 442 b 106 360 104 390 104 369 b 114 181 114 300 113 240 b 121 121 115 161 115 140 b 172 82 129 93 143 82 l 189 83 b 217 79 197 83 207 82 b 240 53 232 74 240 64 b 228 29 240 46 236 38 b 168 6 210 13 190 6 z "},"|":{"ha":101,"x_min":0,"x_max":0,"o":"m 61 -12 b 42 -3 54 -12 47 -10 b 17 57 26 15 18 35 b 0 444 8 194 0 331 l 0 686 l 1 854 b 10 917 1 876 3 897 b 35 943 14 929 18 942 l 38 943 b 64 918 54 943 60 931 b 85 801 78 881 82 840 b 101 388 99 663 101 525 b 97 53 101 276 100 164 b 79 0 97 33 89 17 b 61 -12 75 -8 68 -12 z "},"}":{"ha":247,"x_min":0,"x_max":0,"o":"m 74 8 b 13 33 51 8 31 17 b 0 57 4 40 0 49 b 25 83 0 68 10 78 b 53 86 35 86 43 86 l 71 86 b 124 124 100 86 114 96 b 129 185 129 143 129 164 b 139 364 131 244 131 304 b 142 417 140 374 142 394 b 138 486 142 444 140 475 b 126 597 129 522 126 560 b 129 685 126 626 128 656 l 129 825 b 89 883 128 869 119 883 l 53 879 b 29 893 43 879 35 883 b 26 904 28 897 26 900 b 42 926 26 914 33 921 b 94 943 58 938 76 943 l 108 942 b 194 846 151 936 183 901 b 203 764 200 818 203 792 l 200 692 b 197 583 199 656 197 619 l 199 519 b 236 421 203 483 206 447 b 247 400 243 415 247 408 b 236 379 247 393 243 385 b 219 343 222 368 221 357 l 213 217 b 204 124 211 185 211 154 b 94 11 193 63 154 22 z "},"~":{"ha":664,"x_min":0,"x_max":0,"o":"m 458 258 l 456 258 b 238 339 382 264 308 297 b 174 372 217 351 197 367 b 143 376 164 375 153 376 l 121 374 b 96 350 106 369 96 363 b 101 333 96 346 97 340 b 110 307 106 325 110 315 b 101 289 110 301 107 294 b 72 276 93 279 82 276 b 49 281 64 276 57 278 b 0 361 18 292 0 324 l 0 372 b 125 494 7 432 57 482 b 161 497 138 496 150 497 b 283 461 204 497 246 485 b 417 400 326 438 369 414 b 453 394 429 396 442 394 b 529 472 494 394 524 422 b 572 535 533 501 542 526 b 586 536 576 536 582 536 b 646 499 608 536 631 522 b 664 447 658 483 664 467 l 663 436 b 458 258 654 346 558 258 z "},"¡":{"ha":133,"x_min":0,"x_max":0,"o":"m 74 -267 l 71 -267 b 39 -244 57 -267 47 -257 b 15 -167 25 -221 19 -193 b 3 -58 10 -131 6 -94 l 0 8 b 13 199 0 72 4 136 b 56 510 21 303 32 406 b 74 551 58 525 57 551 b 92 507 90 551 88 524 b 124 197 111 393 115 332 b 126 79 125 160 126 121 b 111 -201 126 -10 121 -106 b 103 -239 108 -214 107 -226 b 74 -267 99 -253 90 -264 z m 86 632 l 81 632 b 29 688 53 632 31 654 l 28 690 b 81 753 28 724 49 753 l 82 753 b 133 693 110 753 132 729 l 133 686 b 86 632 133 654 115 633 z "},"¢":{"ha":517,"x_min":0,"x_max":0,"o":"m 296 -8 b 251 32 271 -8 257 10 b 235 149 242 71 238 110 b 211 172 235 165 229 172 b 43 279 135 176 79 215 b 0 443 14 331 0 386 b 185 761 0 572 68 700 b 201 788 196 768 201 776 l 200 839 b 204 886 200 854 201 871 b 238 926 207 906 214 924 l 242 926 b 279 892 264 926 274 911 b 292 817 285 867 289 842 b 319 789 294 799 299 790 b 422 760 356 786 390 775 b 464 732 438 753 451 744 b 485 693 474 721 485 708 b 481 675 485 688 483 682 b 453 658 474 663 464 658 b 425 664 443 658 433 661 b 329 690 393 672 363 686 l 319 692 b 306 676 310 692 306 688 l 307 669 b 318 510 311 617 315 564 l 319 510 l 332 336 b 342 318 332 325 335 318 b 354 322 344 318 349 319 b 411 358 375 333 394 344 b 457 388 426 371 440 381 b 478 392 464 390 471 392 b 504 382 486 392 496 389 b 517 351 513 374 517 363 l 515 336 b 471 269 507 310 490 289 b 364 206 439 242 401 222 b 343 182 350 201 343 194 l 346 121 l 344 68 b 340 35 343 57 343 44 b 296 -8 335 11 322 -7 z m 210 289 b 222 307 218 289 222 294 l 222 313 b 210 536 217 386 213 461 b 207 593 208 556 207 574 l 208 650 b 110 446 144 610 110 525 b 140 335 110 406 119 365 b 197 292 154 313 174 300 z "},"£":{"ha":624,"x_min":0,"x_max":0,"o":"m 375 -6 b 183 83 301 -6 231 24 b 150 106 174 96 164 106 b 128 99 144 106 138 104 b 94 89 118 92 106 89 b 51 101 81 89 65 94 b 0 182 18 118 0 144 b 53 256 0 218 22 240 b 89 267 65 261 76 267 l 110 264 b 150 304 133 264 142 282 b 182 428 164 344 176 386 l 183 436 b 164 450 183 446 178 450 l 140 449 b 86 456 122 449 104 451 b 57 486 71 461 58 468 l 57 489 b 81 521 57 504 68 514 b 167 544 107 536 138 540 b 190 571 185 546 190 554 b 197 788 192 643 190 715 b 225 883 201 821 208 854 b 338 957 249 929 286 954 l 354 957 b 489 921 401 957 447 946 b 522 894 500 914 513 904 b 543 857 533 883 543 871 b 535 836 543 850 540 843 b 508 821 528 825 518 821 b 478 829 499 821 489 825 b 378 858 446 844 414 856 l 371 858 b 313 804 332 858 318 846 b 308 736 310 782 308 758 l 308 581 b 325 561 308 567 314 561 l 329 561 b 438 568 365 564 401 567 l 450 568 b 508 556 471 568 490 565 b 542 510 529 546 542 532 l 542 507 b 503 465 540 482 524 471 b 369 453 460 451 414 454 b 299 392 308 451 308 451 b 244 219 289 332 271 274 b 240 204 242 214 240 210 b 250 188 240 199 243 193 b 261 176 254 185 258 181 b 369 117 294 135 331 117 b 464 143 400 117 431 126 b 547 190 493 157 519 174 b 589 206 561 199 574 206 b 614 196 597 206 606 203 b 624 171 621 190 624 182 b 608 126 624 158 618 142 b 375 -6 556 39 464 -6 z "},"¤":{"ha":510,"x_min":0,"x_max":0,"o":"m 442 0 b 386 31 424 0 406 10 b 344 78 372 46 363 68 l 335 81 b 285 65 318 81 301 68 l 265 64 b 183 88 236 64 208 72 b 168 94 176 92 172 94 b 154 79 163 94 158 89 b 132 35 147 64 140 49 b 104 14 124 21 115 14 b 83 19 99 14 92 17 b 44 33 71 25 57 28 b 22 63 31 39 22 50 b 25 78 22 68 24 72 b 58 149 33 103 44 126 b 79 210 71 168 79 188 b 74 242 79 219 78 231 b 65 292 68 258 65 275 b 78 369 65 318 71 344 l 79 379 b 69 400 79 388 76 393 b 11 465 50 421 28 442 b 0 497 4 476 0 486 b 4 515 0 503 1 508 b 74 581 19 546 38 574 b 115 558 93 581 104 571 b 154 513 128 543 138 521 l 161 511 b 208 535 176 511 192 531 b 258 543 225 539 242 543 b 296 533 271 543 283 540 b 303 532 299 532 300 532 b 314 544 308 532 311 538 b 360 608 325 568 340 590 b 397 628 372 622 383 628 b 425 621 406 628 414 625 b 461 599 438 614 450 607 b 481 567 475 589 481 578 b 465 536 481 557 476 546 b 403 474 443 517 422 496 b 396 460 397 468 396 464 b 399 447 396 456 396 453 b 442 276 426 393 442 335 b 435 208 442 254 439 231 b 422 174 432 196 429 185 b 418 161 419 168 418 165 b 433 143 418 154 424 149 b 503 75 463 126 486 104 b 510 51 508 67 510 58 b 493 22 510 40 504 31 b 442 0 474 7 457 0 z m 235 243 b 281 267 254 243 271 251 b 293 311 290 279 293 293 b 279 360 292 325 289 343 b 244 382 269 375 257 382 b 214 368 233 382 224 378 b 190 313 197 353 190 333 b 197 276 190 301 192 289 b 231 243 203 260 211 244 z "},"¥":{"ha":404,"x_min":0,"x_max":0,"o":"m 213 6 l 210 6 b 178 47 189 8 178 24 l 176 72 l 178 101 b 157 118 178 114 172 118 l 147 118 b 113 125 136 118 124 119 b 94 149 103 129 94 136 b 115 168 96 160 106 165 b 143 171 125 171 133 171 l 161 171 b 174 181 169 171 174 174 l 172 192 l 172 215 b 168 236 172 222 171 231 b 126 247 161 250 140 242 b 106 256 119 251 113 253 b 90 279 96 261 90 269 l 92 286 b 113 311 93 299 101 307 b 157 315 126 315 142 314 b 89 411 139 353 113 382 b 21 500 65 440 42 469 b 0 553 11 517 3 533 l 0 563 b 46 611 0 592 19 611 b 68 607 53 611 60 610 b 122 564 90 599 108 583 b 172 479 140 536 158 508 b 178 469 174 475 175 472 b 206 440 185 457 194 443 l 207 440 b 224 467 215 440 218 458 b 306 588 247 510 275 549 l 314 597 b 354 617 328 610 340 617 b 378 608 363 617 369 614 b 404 558 394 597 404 578 b 399 535 404 550 403 542 l 378 500 b 274 335 343 446 318 385 b 268 324 269 331 268 326 b 285 311 268 318 274 313 b 321 306 297 310 310 308 b 344 282 333 303 343 296 l 344 279 b 326 254 344 267 336 260 b 264 242 307 244 285 242 b 247 231 253 242 247 239 l 249 224 b 251 190 250 213 251 201 l 251 188 b 269 174 251 176 258 174 b 306 176 282 175 293 176 l 328 175 b 344 171 333 174 339 174 b 364 150 354 168 364 163 l 364 147 b 346 124 364 135 356 129 b 281 115 325 115 303 117 b 254 104 260 114 254 117 l 257 64 b 254 39 257 56 256 47 b 213 6 247 18 232 6 z "},"¦":{"ha":136,"x_min":0,"x_max":0,"o":"m 67 529 b 11 600 39 529 15 556 b 0 793 3 664 0 728 b 6 972 0 853 3 913 b 58 1040 10 1004 22 1039 b 124 936 108 1040 118 982 b 136 732 132 856 136 814 b 67 529 136 636 125 529 z m 63 -186 b 32 -167 51 -186 40 -181 b 7 -89 15 -143 7 -118 l 7 74 l 1 74 l 1 201 l 4 247 b 51 311 8 288 24 310 l 57 311 b 108 257 82 311 101 293 b 131 26 124 181 131 104 b 124 -106 131 -17 129 -61 b 92 -171 121 -131 108 -153 b 63 -186 83 -182 74 -186 z "},"§":{"ha":197,"x_min":0,"x_max":0,"o":"m 113 -4 b 88 0 104 -4 96 -3 b 68 8 81 1 72 3 b 0 135 29 42 0 82 b 18 167 0 147 6 160 b 88 60 25 118 56 88 b 104 53 93 56 99 53 b 136 76 117 53 128 61 b 149 128 144 93 149 111 b 144 160 149 139 147 149 b 107 254 138 193 124 225 l 49 357 b 26 444 33 385 26 414 b 32 492 26 460 28 475 b 126 578 46 551 74 578 l 151 575 b 140 607 151 588 144 596 b 51 763 111 658 85 711 b 28 839 36 788 28 814 b 64 919 28 869 40 899 b 114 940 78 933 96 940 b 156 926 128 940 142 936 b 208 851 183 910 199 882 l 211 839 b 206 829 211 835 210 831 l 200 828 b 185 840 193 828 189 835 b 149 890 172 858 164 876 b 114 907 138 901 125 907 b 78 875 99 907 85 896 b 72 846 74 865 72 856 b 92 790 72 826 79 808 b 190 635 128 740 157 688 b 242 493 215 592 235 543 l 244 457 b 208 351 244 419 233 383 b 160 318 194 336 181 322 b 150 310 153 315 150 313 l 153 300 b 199 210 172 271 186 240 b 211 133 206 185 211 158 b 203 78 211 115 208 96 b 113 -4 192 28 156 -4 z m 132 376 b 160 397 142 376 151 383 b 181 464 175 418 181 440 b 171 528 181 485 176 506 b 163 536 171 531 167 535 b 138 540 153 539 144 540 b 81 483 106 540 86 519 l 81 463 b 104 392 81 436 85 411 b 132 376 114 382 124 376 z "},"¨":{"ha":531,"x_min":0,"x_max":0,"o":"m 438 882 b 343 988 389 882 343 932 b 433 1089 343 1049 379 1089 b 531 992 489 1089 531 1047 l 531 989 b 438 882 531 932 488 882 z m 93 881 b 0 979 43 882 0 928 b 89 1078 0 1032 39 1076 l 90 1078 b 183 982 142 1078 182 1035 b 93 881 183 929 142 881 z "},"©":{"ha":594,"x_min":0,"x_max":0,"o":"m 260 -6 b 117 54 206 -6 158 18 b 4 311 43 119 4 215 b 74 515 4 383 26 457 b 301 626 132 589 208 625 l 344 628 b 388 624 358 628 374 626 b 564 465 479 607 529 544 b 589 340 582 424 588 381 b 290 -3 589 136 458 26 b 260 -6 279 -4 269 -6 z m 265 82 b 286 83 272 82 279 82 b 517 353 414 106 517 193 l 517 367 b 446 519 517 422 486 472 b 404 546 435 533 421 540 b 326 560 378 556 351 560 b 208 528 286 560 246 549 b 93 321 128 485 94 410 l 93 315 b 206 100 93 226 125 150 b 265 82 225 88 244 82 z m 272 213 b 169 283 228 214 190 238 b 160 328 163 299 160 314 b 197 414 160 360 175 388 b 319 463 231 450 274 463 l 350 461 b 375 449 360 460 368 456 b 385 431 382 443 385 438 l 383 424 b 363 410 381 413 371 411 b 285 394 335 410 310 404 b 238 346 261 386 246 369 b 235 329 236 340 235 335 b 276 288 235 307 251 290 b 326 300 294 288 311 293 b 372 324 342 308 357 317 b 392 328 378 326 385 328 b 410 319 399 328 404 326 b 414 306 413 315 414 310 b 406 283 414 297 411 290 b 272 213 375 239 333 214 z "},"ª":{"ha":506,"x_min":0,"x_max":0,"o":"m 251 -7 b 97 90 183 -7 119 32 b 88 147 90 108 88 128 b 153 283 88 197 111 249 b 306 340 197 318 249 338 b 328 356 322 342 328 346 l 325 369 b 236 501 308 422 282 468 b 186 519 219 513 203 519 b 132 499 168 519 150 513 b 57 415 101 476 78 447 b 33 393 51 406 46 393 l 26 394 b 3 428 10 399 4 413 b 0 451 1 436 0 444 b 210 639 7 547 104 639 l 211 639 b 356 572 263 638 313 611 b 465 379 414 521 446 454 b 504 153 485 306 496 229 l 506 136 b 442 71 506 96 486 78 b 413 53 429 68 422 61 b 268 -6 371 18 322 0 z m 251 129 b 339 160 283 129 311 144 b 365 188 353 167 365 171 l 363 200 b 317 226 356 224 340 226 b 226 192 286 224 254 214 b 208 160 215 183 208 172 b 210 149 208 156 210 153 b 246 129 217 131 231 129 z "},"«":{"ha":550,"x_min":0,"x_max":0,"o":"m 338 -1 b 324 1 332 -1 328 0 b 274 38 304 11 289 24 l 197 108 l 29 265 b 0 331 13 281 0 299 b 33 393 0 351 17 372 b 281 640 107 485 199 558 b 301 654 286 646 294 650 b 319 660 307 657 313 660 l 326 661 b 346 650 335 661 342 657 b 350 639 349 646 350 643 b 343 622 350 633 347 628 b 186 438 296 557 246 492 b 110 354 158 411 133 383 b 89 325 96 336 89 331 b 114 300 89 318 97 314 b 310 93 186 238 251 169 b 350 25 325 72 342 51 l 353 14 b 347 1 353 10 351 6 b 338 -1 344 -1 340 -1 z m 517 124 l 507 125 b 468 144 493 128 481 136 b 374 213 436 167 404 189 b 299 282 346 233 321 256 b 279 328 288 296 279 310 b 310 382 281 351 293 368 b 500 540 374 436 436 489 b 514 549 504 544 508 547 b 528 551 518 550 524 551 b 542 546 532 551 538 550 b 550 528 547 540 550 535 l 547 517 b 529 488 542 507 536 497 b 444 400 504 456 476 426 l 375 340 b 365 326 369 336 365 332 b 375 313 365 322 369 318 l 493 200 b 529 154 507 186 521 172 b 533 140 532 150 533 146 l 531 131 b 517 124 528 125 522 124 z "},"®":{"ha":535,"x_min":0,"x_max":0,"o":"m 244 -6 b 29 140 147 -6 67 65 b 0 281 10 183 0 232 b 113 558 0 385 42 492 b 293 628 160 601 226 628 b 522 435 389 628 486 572 b 535 340 531 404 535 372 b 386 44 528 221 489 117 b 244 -6 338 10 289 -6 z m 242 85 b 339 121 274 85 307 96 b 446 346 415 179 446 257 b 442 404 446 364 444 385 b 364 532 433 456 410 501 b 283 556 340 547 313 556 b 147 489 233 556 182 532 b 82 307 101 432 85 365 b 106 183 82 256 89 218 b 242 85 135 119 186 85 z m 326 133 b 307 139 321 133 314 136 b 258 186 286 150 272 168 l 228 224 l 219 174 b 211 150 218 165 214 158 b 197 140 208 144 204 140 b 183 153 189 140 185 146 b 178 179 181 161 178 171 b 171 325 176 228 171 276 b 174 385 171 344 172 365 l 178 421 b 204 449 181 435 188 446 b 232 461 214 450 222 457 b 272 471 246 468 260 471 b 351 400 311 471 343 444 l 354 375 b 297 279 354 336 336 303 b 288 268 290 275 288 272 b 294 258 288 265 290 263 b 347 197 315 240 333 221 b 358 165 354 188 358 178 b 326 133 358 146 343 133 z m 235 310 b 288 382 263 331 286 349 l 289 386 b 254 422 289 408 274 422 b 240 421 250 422 246 422 b 231 413 236 419 231 418 l 231 411 b 235 310 235 379 233 346 z "},"¯":{"ha":890,"x_min":0,"x_max":0,"o":"m 228 792 l 113 793 b 35 804 86 793 60 796 b 0 842 17 810 3 821 l 0 849 b 24 890 0 867 10 881 b 101 915 47 907 75 911 b 460 942 221 931 340 932 b 693 950 538 947 615 950 l 740 950 b 860 926 782 950 822 946 b 890 889 876 918 890 908 b 863 853 890 871 878 861 b 749 818 828 832 789 822 b 228 792 576 800 403 792 z "},"°":{"ha":129,"x_min":0,"x_max":0,"o":"m 64 940 b 4 981 39 940 15 956 b 0 1007 1 989 0 999 b 29 1065 0 1031 11 1053 b 46 1076 35 1069 40 1074 b 71 1083 54 1081 63 1083 b 110 1064 85 1083 100 1076 b 129 1011 124 1049 129 1029 b 75 942 129 976 106 947 z m 64 979 l 74 982 b 92 1013 86 989 92 1000 l 89 1031 b 69 1050 86 1040 82 1049 l 64 1051 b 43 1038 54 1051 49 1046 b 36 1014 39 1031 36 1022 l 36 1004 b 64 979 40 990 51 979 z "},"±":{"ha":631,"x_min":0,"x_max":0,"o":"m 321 -42 l 317 -42 b 279 -10 299 -42 288 -28 b 267 56 271 11 268 33 b 256 243 263 118 258 181 b 233 268 254 261 250 268 l 228 268 b 78 261 178 264 128 263 l 69 261 b 28 268 54 261 40 264 b 0 300 13 274 1 283 b 22 333 0 315 8 326 b 78 351 39 343 58 347 b 222 371 125 358 174 365 b 247 396 240 374 247 378 l 247 400 b 246 546 246 449 246 497 b 256 610 246 567 249 589 b 285 636 261 624 269 635 b 317 613 301 636 311 625 b 340 508 331 579 335 543 b 354 406 346 475 350 440 b 374 386 356 390 361 386 l 521 400 l 546 401 b 585 396 560 401 572 400 b 619 351 606 388 618 374 l 619 349 b 593 306 619 331 608 317 b 535 290 575 294 556 292 b 392 279 488 286 439 281 b 368 257 374 278 368 272 l 368 251 b 378 100 372 201 378 150 b 374 33 378 78 376 56 b 356 -22 371 14 368 -6 b 321 -42 349 -33 338 -42 z m 315 -272 b 122 -267 251 -272 186 -271 b 63 -254 101 -265 82 -262 b 36 -221 47 -247 38 -237 l 36 -217 b 60 -182 36 -200 46 -190 b 142 -165 86 -169 114 -167 b 351 -151 211 -160 282 -156 l 351 -146 l 533 -146 b 597 -156 556 -146 576 -147 b 631 -203 617 -165 631 -181 l 631 -207 b 601 -250 631 -226 619 -240 b 543 -265 583 -261 563 -264 b 315 -272 467 -269 392 -272 z "},"´":{"ha":111,"x_min":0,"x_max":0,"o":"m 18 844 b 0 881 8 844 0 861 b 68 1038 0 967 19 1038 b 111 983 90 1038 111 1011 b 94 946 111 968 106 954 b 38 872 69 932 53 906 b 18 844 32 861 28 844 z "},"µ":{"ha":369,"x_min":0,"x_max":0,"o":"m 51 3 l 49 3 b 15 32 29 3 21 17 b 10 64 13 43 11 54 b 0 376 0 168 1 272 b 3 586 0 446 1 517 b 8 633 3 601 3 618 b 36 654 14 644 22 654 b 64 636 49 654 58 647 b 76 590 72 622 75 607 b 86 493 81 558 83 525 b 169 401 89 457 133 407 l 182 400 b 213 410 193 400 203 403 b 268 507 246 433 268 463 l 267 533 l 269 597 b 275 628 269 607 272 618 b 307 653 281 642 290 651 l 310 653 b 343 633 324 653 335 646 b 356 590 351 621 354 606 b 369 381 363 521 369 451 l 369 360 b 363 319 369 346 367 332 b 328 289 356 303 346 289 l 325 289 b 290 314 308 289 297 301 b 276 358 283 326 282 342 b 179 315 244 329 213 315 b 94 344 151 315 124 325 b 90 333 92 342 90 338 l 93 157 b 92 75 93 129 93 103 b 85 31 92 60 90 44 b 51 3 78 15 68 3 z "},"¶":{"ha":468,"x_min":0,"x_max":0,"o":"m 175 4 b 149 33 160 4 149 15 l 147 83 b 149 118 147 94 147 107 l 150 157 b 144 271 150 196 147 232 b 132 289 144 281 139 285 b 7 456 71 331 25 382 b 0 507 3 472 0 489 l 1 526 b 58 596 6 565 19 588 b 311 625 140 614 225 622 b 436 618 351 622 394 626 b 468 600 449 615 467 617 l 468 599 b 439 578 468 583 450 582 b 326 558 403 565 364 563 b 307 540 313 557 307 554 l 307 536 b 318 247 314 440 318 344 b 313 69 318 189 317 129 b 301 19 311 53 310 35 b 283 6 299 13 293 6 b 267 21 274 6 269 13 b 258 65 261 35 260 50 b 249 344 253 158 249 251 b 256 539 249 408 250 474 b 243 553 256 549 254 553 b 207 535 214 553 207 553 l 208 515 b 217 347 215 460 217 403 b 206 108 217 267 213 188 l 201 33 b 175 4 200 11 193 4 z "},"·":{"ha":199,"x_min":0,"x_max":0,"o":"m 94 210 b 0 303 43 210 1 251 b 101 414 0 358 50 414 b 199 318 150 414 197 367 l 199 315 b 94 210 199 261 150 211 z "},"∙":{"ha":199,"x_min":0,"x_max":0,"o":"m 94 210 b 0 303 43 210 1 251 b 101 414 0 358 50 414 b 199 318 150 414 197 367 l 199 315 b 94 210 199 261 150 211 z "},"¸":{"ha":154,"x_min":0,"x_max":0,"o":"m 46 -197 b 19 -193 38 -197 28 -197 b 0 -165 7 -187 0 -176 l 0 -162 b 25 -137 1 -149 10 -139 b 63 -132 38 -135 50 -136 b 88 -114 72 -129 81 -124 b 97 -79 94 -101 97 -90 b 74 -39 97 -64 90 -51 b 39 -19 63 -31 51 -24 b 25 -14 33 -18 29 -15 b 14 4 18 -10 14 -4 b 25 19 14 13 19 17 b 50 25 33 25 42 25 b 122 -8 78 22 101 11 b 154 -81 142 -28 154 -51 l 154 -93 b 46 -197 147 -156 104 -197 z "},"º":{"ha":265,"x_min":0,"x_max":0,"o":"m 132 553 b 11 636 81 553 33 585 b 0 690 4 654 0 672 b 61 808 0 738 22 782 l 94 829 b 144 843 110 839 128 843 b 226 804 175 843 204 829 b 265 699 253 772 264 735 b 156 556 265 626 218 568 z m 132 633 b 153 639 139 633 146 635 b 189 701 178 651 189 674 b 182 738 186 714 186 725 b 144 776 176 757 168 772 l 133 778 b 89 750 113 778 100 768 b 74 703 79 736 74 719 l 76 683 b 132 633 83 654 107 633 z "},"»":{"ha":515,"x_min":0,"x_max":0,"o":"m 200 1 b 190 6 197 1 193 3 b 185 17 186 8 185 13 l 188 26 b 225 90 194 51 210 71 b 408 285 279 163 340 226 b 431 307 424 297 431 301 b 413 335 431 313 425 318 b 340 413 390 363 367 389 b 194 586 285 464 239 525 b 188 603 190 592 188 597 b 190 613 188 606 188 610 b 210 622 194 621 201 622 l 215 622 b 233 617 222 621 228 619 b 251 604 239 613 247 608 b 483 372 329 526 415 458 b 515 313 499 353 515 333 b 488 251 515 283 503 267 l 331 106 b 258 38 307 83 283 60 b 213 6 244 25 229 14 b 200 1 208 3 204 1 z m 31 119 b 18 126 26 119 21 121 b 15 136 17 129 15 133 l 18 149 b 53 190 28 165 40 178 l 164 296 b 172 310 169 301 172 306 b 164 322 172 314 169 318 l 99 378 b 19 461 69 403 43 431 b 3 488 13 469 7 478 b 0 500 1 492 0 496 b 7 514 0 504 1 510 b 22 521 11 518 17 521 l 33 518 b 46 510 38 517 42 514 b 225 361 106 461 165 411 b 253 311 240 349 253 332 b 236 268 253 293 246 281 b 165 201 214 243 190 222 l 76 139 b 39 121 65 131 53 124 z "},"¿":{"ha":356,"x_min":0,"x_max":0,"o":"m 154 -79 b 0 136 75 -79 0 17 b 46 268 0 185 14 232 l 117 349 b 181 439 142 376 165 404 b 226 479 189 458 210 479 b 251 438 243 479 251 458 b 192 322 251 396 221 353 b 100 225 161 289 132 256 b 67 133 76 201 67 168 b 151 -6 67 63 107 -6 b 179 1 161 -6 169 -3 b 281 131 235 28 265 72 l 299 201 b 321 225 301 214 307 225 b 350 201 339 225 346 217 b 356 151 354 185 356 168 b 201 -69 354 47 297 -36 b 154 -79 185 -76 169 -79 z m 192 565 b 136 618 163 565 136 590 b 196 676 136 649 164 676 b 246 625 224 676 246 654 l 246 622 b 192 565 246 590 222 565 z "},"À":{"ha":706,"x_min":0,"x_max":0,"o":"m 549 4 b 453 56 515 4 481 21 b 378 250 406 113 386 179 l 372 283 b 353 301 369 293 367 301 b 331 283 339 301 333 296 b 268 113 318 224 294 167 b 200 25 251 79 231 47 b 142 7 183 13 163 7 b 51 57 106 7 69 25 b 25 133 39 81 31 107 b 8 276 14 182 8 229 b 63 556 8 371 29 464 b 251 896 107 679 172 790 b 361 950 276 931 318 950 b 478 896 401 950 444 933 b 503 858 488 885 496 872 b 679 308 592 685 649 501 b 683 264 682 293 682 279 b 686 222 685 250 686 236 b 653 78 686 172 674 125 b 549 4 629 29 590 4 z m 338 528 b 400 600 375 528 400 556 l 400 611 b 356 696 394 639 378 669 b 340 703 351 701 346 703 b 326 693 335 703 329 700 b 283 583 306 658 286 624 l 283 581 b 335 528 283 550 304 528 z m 361 986 b 351 992 358 986 356 988 b 338 1008 346 997 342 1003 b 243 1197 296 1067 271 1132 b 239 1213 240 1201 239 1207 l 239 1215 b 253 1239 239 1225 244 1233 b 267 1243 257 1242 263 1243 b 282 1238 272 1243 278 1240 b 299 1222 289 1233 294 1229 b 371 1024 339 1163 363 1096 b 368 997 371 1014 371 1006 b 361 986 367 990 364 986 z "},"Á":{"ha":706,"x_min":0,"x_max":0,"o":"m 549 4 b 453 56 515 4 481 21 b 378 250 406 113 386 179 l 372 283 b 353 301 369 293 367 301 b 331 283 339 301 333 296 b 268 113 318 224 294 167 b 200 25 251 79 231 47 b 142 7 183 13 163 7 b 51 57 106 7 69 25 b 25 133 39 81 31 107 b 8 276 14 182 8 229 b 63 556 8 371 29 464 b 251 896 107 679 172 790 b 361 950 276 931 318 950 b 478 896 401 950 444 933 b 503 858 488 885 496 872 b 679 308 592 685 649 501 b 683 264 682 293 682 279 b 686 222 685 250 686 236 b 653 78 686 172 674 125 b 549 4 629 29 590 4 z m 338 528 b 400 600 375 528 400 556 l 400 611 b 356 696 394 639 378 669 b 340 703 351 701 346 703 b 326 693 335 703 329 700 b 283 583 306 658 286 624 l 283 581 b 335 528 283 550 304 528 z m 354 1029 b 336 1065 344 1029 336 1046 b 404 1222 336 1151 356 1222 b 447 1168 426 1222 447 1196 b 431 1131 447 1153 442 1139 b 374 1057 406 1117 389 1090 b 354 1029 368 1046 364 1029 z "},"Â":{"ha":706,"x_min":0,"x_max":0,"o":"m 549 4 b 453 56 515 4 481 21 b 378 250 406 113 386 179 l 372 283 b 353 301 369 293 367 301 b 331 283 339 301 333 296 b 268 113 318 224 294 167 b 200 25 251 79 231 47 b 142 7 183 13 163 7 b 51 57 106 7 69 25 b 25 133 39 81 31 107 b 8 276 14 182 8 229 b 63 556 8 371 29 464 b 251 896 107 679 172 790 b 361 950 276 931 318 950 b 478 896 401 950 444 933 b 503 858 488 885 496 872 b 679 308 592 685 649 501 b 683 264 682 293 682 279 b 686 222 685 250 686 236 b 653 78 686 172 674 125 b 549 4 629 29 590 4 z m 338 528 b 400 600 375 528 400 556 l 400 611 b 356 696 394 639 378 669 b 340 703 351 701 346 703 b 326 693 335 703 329 700 b 283 583 306 658 286 624 l 283 581 b 335 528 283 550 304 528 z m 482 981 l 476 982 b 458 999 469 988 463 992 b 408 1071 440 1019 425 1043 l 375 1131 b 367 1139 371 1136 368 1139 b 358 1131 364 1139 361 1136 l 293 1031 b 265 997 286 1018 276 1007 l 258 994 b 251 997 256 994 254 996 b 249 1007 250 1000 249 1003 l 250 1018 b 261 1051 251 1029 257 1040 b 300 1133 272 1079 286 1106 b 340 1196 311 1156 325 1178 b 368 1213 347 1207 357 1213 b 397 1186 379 1213 390 1201 l 490 1024 b 494 1013 490 1019 493 1015 l 496 1001 l 493 988 b 482 981 489 983 485 981 z "},"Ã":{"ha":706,"x_min":0,"x_max":0,"o":"m 549 4 b 453 56 515 4 481 21 b 378 250 406 113 386 179 l 372 283 b 353 301 369 293 367 301 b 331 283 339 301 333 296 b 268 113 318 224 294 167 b 200 25 251 79 231 47 b 142 7 183 13 163 7 b 51 57 106 7 69 25 b 25 133 39 81 31 107 b 8 276 14 182 8 229 b 63 556 8 371 29 464 b 251 896 107 679 172 790 b 361 950 276 931 318 950 b 478 896 401 950 444 933 b 503 858 488 885 496 872 b 679 308 592 685 649 501 b 683 264 682 293 682 279 b 686 222 685 250 686 236 b 653 78 686 172 674 125 b 549 4 629 29 590 4 z m 338 528 b 400 600 375 528 400 556 l 400 611 b 356 696 394 639 378 669 b 340 703 351 701 346 703 b 326 693 335 703 329 700 b 283 583 306 658 286 624 l 283 581 b 335 528 283 550 304 528 z m 449 1018 l 446 1018 b 297 1058 394 1021 344 1038 b 254 1076 283 1065 269 1072 l 232 1078 l 217 1076 b 200 1064 207 1075 200 1071 b 204 1056 200 1061 201 1058 b 210 1043 207 1051 210 1047 b 204 1033 210 1040 208 1036 b 185 1026 199 1028 192 1026 b 168 1029 179 1026 174 1028 b 136 1068 149 1035 136 1050 l 136 1076 b 221 1138 140 1107 175 1132 b 247 1139 231 1139 239 1139 b 328 1122 276 1139 303 1133 b 418 1090 357 1108 386 1097 b 444 1086 428 1088 436 1086 b 496 1128 472 1086 492 1101 b 525 1158 499 1142 504 1154 l 535 1160 b 575 1140 550 1160 565 1153 b 586 1113 582 1132 586 1124 l 586 1108 b 449 1018 581 1063 515 1018 z "},"Ä":{"ha":706,"x_min":0,"x_max":0,"o":"m 549 4 b 453 56 515 4 481 21 b 378 250 406 113 386 179 l 372 283 b 353 301 369 293 367 301 b 331 283 339 301 333 296 b 268 113 318 224 294 167 b 200 25 251 79 231 47 b 142 7 183 13 163 7 b 51 57 106 7 69 25 b 25 133 39 81 31 107 b 8 276 14 182 8 229 b 63 556 8 371 29 464 b 251 896 107 679 172 790 b 361 950 276 931 318 950 b 478 896 401 950 444 933 b 503 858 488 885 496 872 b 679 308 592 685 649 501 b 683 264 682 293 682 279 b 686 222 685 250 686 236 b 653 78 686 172 674 125 b 549 4 629 29 590 4 z m 338 528 b 400 600 375 528 400 556 l 400 611 b 356 696 394 639 378 669 b 340 703 351 701 346 703 b 326 693 335 703 329 700 b 283 583 306 658 286 624 l 283 581 b 335 528 283 550 304 528 z m 526 1007 b 432 1113 478 1007 432 1057 b 522 1214 432 1174 468 1214 b 619 1117 578 1214 619 1172 l 619 1114 b 526 1007 619 1057 576 1007 z m 182 1006 b 89 1104 132 1007 89 1053 b 178 1203 89 1157 128 1201 l 181 1203 b 272 1107 231 1203 271 1160 b 182 1006 272 1054 231 1006 z "},"Å":{"ha":706,"x_min":0,"x_max":0,"o":"m 549 4 b 453 56 515 4 481 21 b 378 250 406 113 386 179 l 372 283 b 353 301 369 293 367 301 b 331 283 339 301 333 296 b 268 113 318 224 294 167 b 200 25 251 79 231 47 b 142 7 183 13 163 7 b 51 57 106 7 69 25 b 25 133 39 81 31 107 b 8 276 14 182 8 229 b 63 556 8 371 29 464 b 251 896 107 679 172 790 b 361 950 276 931 318 950 b 478 896 401 950 444 933 b 503 858 488 885 496 872 b 679 308 592 685 649 501 b 683 264 682 293 682 279 b 686 222 685 250 686 236 b 653 78 686 172 674 125 b 549 4 629 29 590 4 z m 338 528 b 400 600 375 528 400 556 l 400 611 b 356 696 394 639 378 669 b 340 703 351 701 346 703 b 326 693 335 703 329 700 b 283 583 306 658 286 624 l 283 581 b 335 528 283 550 304 528 z m 363 1014 b 292 1063 332 1014 304 1032 b 286 1096 288 1074 286 1085 b 321 1165 286 1124 299 1150 l 340 1178 b 371 1185 350 1183 360 1185 b 418 1163 389 1185 406 1178 b 442 1100 435 1143 442 1121 b 376 1015 442 1057 414 1022 z m 363 1061 b 375 1064 367 1061 371 1061 b 396 1101 390 1072 396 1085 b 393 1122 396 1108 394 1115 b 369 1146 389 1135 383 1143 l 364 1146 b 338 1131 351 1146 343 1140 b 328 1101 332 1121 328 1113 l 329 1092 b 363 1061 333 1074 349 1061 z "},"Æ":{"ha":1022,"x_min":0,"x_max":0,"o":"m 338 528 b 400 600 379 532 400 556 l 400 611 b 356 696 393 640 379 668 b 340 703 351 700 346 703 b 326 693 335 703 331 700 b 283 583 303 660 288 624 l 283 581 b 299 543 283 565 289 553 b 335 528 308 533 319 528 z m 582 7 l 574 7 b 549 4 567 6 557 4 b 453 56 515 4 483 21 b 378 250 408 114 383 179 l 372 283 b 367 296 371 288 368 292 b 353 301 364 300 360 301 b 331 283 339 301 332 296 b 268 113 317 224 296 167 b 200 25 253 78 229 49 b 142 7 182 13 163 7 b 90 21 124 7 107 11 b 51 57 74 29 61 42 b 25 133 39 81 29 107 b 8 276 14 182 8 229 b 63 556 8 371 26 464 b 251 896 108 678 171 792 b 361 950 281 932 318 950 b 478 896 401 950 440 932 b 503 858 488 885 496 872 b 510 843 506 853 508 849 b 656 924 546 883 594 911 l 664 926 b 746 942 690 932 718 938 b 826 947 772 946 800 947 b 939 926 867 947 904 940 b 1008 839 972 913 996 883 b 1022 732 1018 803 1022 767 b 1003 632 1022 694 1015 661 b 946 586 989 601 969 586 b 888 611 928 586 908 594 b 874 622 883 614 878 618 b 818 657 858 636 839 647 b 774 667 803 664 788 667 b 704 633 744 667 721 656 b 668 554 686 611 675 585 l 668 550 b 678 531 668 543 671 536 b 700 521 685 524 692 521 b 746 531 717 522 732 526 b 797 540 761 538 779 540 b 850 529 815 540 833 536 b 894 496 865 521 881 510 b 915 451 908 483 915 468 b 894 386 915 428 908 407 b 839 343 879 365 861 350 b 682 322 788 329 736 322 l 676 322 l 679 308 b 682 279 681 299 682 289 b 683 264 682 274 682 268 b 686 228 685 251 686 240 b 754 242 711 231 733 235 b 821 269 775 249 797 257 b 878 290 842 279 860 286 b 936 299 894 294 914 297 b 999 268 965 299 986 289 b 1018 192 1011 247 1018 221 b 931 50 1018 126 989 79 b 707 6 872 21 797 6 z "},"Ç":{"ha":640,"x_min":0,"x_max":0,"o":"m 258 26 b 261 36 258 31 260 33 l 256 39 b 106 144 199 60 149 94 b 0 404 43 221 7 307 l -1 440 b 36 621 -1 506 11 565 b 133 778 60 675 93 728 b 292 904 176 832 229 874 b 408 928 331 919 369 928 b 506 914 440 928 474 924 b 608 868 543 904 576 889 b 633 822 625 857 633 842 b 588 604 633 746 618 674 b 503 544 567 564 538 544 b 446 560 485 544 465 550 b 404 579 432 567 418 574 b 358 588 390 585 375 588 l 346 588 b 290 557 322 586 304 576 b 263 463 272 528 263 496 b 292 356 263 422 272 388 b 429 276 326 303 372 276 b 472 282 443 276 457 278 b 492 286 479 283 485 285 b 538 294 507 290 522 293 l 549 294 b 638 221 594 294 625 269 b 644 168 642 203 644 186 b 639 124 644 153 643 139 b 479 7 619 53 567 14 b 435 6 465 6 450 6 b 371 10 413 6 392 7 b 399 -58 389 -8 399 -32 l 399 -71 b 364 -146 394 -103 383 -128 b 290 -175 343 -165 319 -175 b 264 -171 282 -175 274 -174 b 244 -143 251 -164 244 -154 l 244 -140 b 269 -115 246 -125 254 -117 b 285 -114 275 -114 281 -114 b 307 -110 292 -112 300 -111 b 332 -92 317 -107 325 -101 b 342 -57 339 -79 342 -67 b 318 -17 342 -42 333 -29 b 283 3 307 -8 296 -1 b 275 6 279 4 276 4 l 269 8 b 258 26 263 13 258 18 z "},"È":{"ha":650,"x_min":0,"x_max":0,"o":"m 325 -1 l 200 0 b 19 388 42 7 19 231 b 64 711 19 497 35 606 b 272 917 96 824 163 894 b 444 940 329 928 386 940 b 625 832 526 940 603 924 b 639 725 633 796 639 760 b 563 579 639 651 611 579 b 506 604 546 579 526 588 b 436 650 483 621 464 640 b 390 660 419 657 404 660 b 285 547 332 660 299 607 l 285 543 b 317 514 285 528 301 514 b 415 533 353 517 381 533 b 513 489 451 533 483 515 b 533 444 526 478 533 461 b 456 336 533 399 499 350 b 300 315 406 321 353 315 b 253 269 263 315 256 308 b 301 221 253 243 274 221 b 439 263 354 226 388 238 b 554 292 481 281 508 288 b 636 185 611 292 636 244 b 325 -1 636 56 506 -1 z m 378 988 b 368 993 375 988 372 989 b 356 1010 364 999 358 1004 b 260 1199 313 1068 289 1133 b 257 1214 258 1203 257 1208 l 257 1217 b 269 1240 257 1226 261 1235 b 283 1244 275 1243 279 1244 b 300 1239 289 1244 294 1242 b 317 1224 307 1235 313 1231 b 388 1025 356 1164 381 1097 b 386 999 388 1015 388 1007 b 378 988 383 992 382 988 z "},"É":{"ha":650,"x_min":0,"x_max":0,"o":"m 325 -1 l 200 0 b 19 388 42 7 19 231 b 64 711 19 497 35 606 b 272 917 96 824 163 894 b 444 940 329 928 386 940 b 625 832 526 940 603 924 b 639 725 633 796 639 760 b 563 579 639 651 611 579 b 506 604 546 579 526 588 b 436 650 483 621 464 640 b 390 660 419 657 404 660 b 285 547 332 660 299 607 l 285 543 b 317 514 285 528 301 514 b 415 533 353 517 381 533 b 513 489 451 533 483 515 b 533 444 526 478 533 461 b 456 336 533 399 499 350 b 300 315 406 321 353 315 b 253 269 263 315 256 308 b 301 221 253 243 274 221 b 439 263 354 226 388 238 b 554 292 481 281 508 288 b 636 185 611 292 636 244 b 325 -1 636 56 506 -1 z m 325 1007 b 308 1043 317 1007 308 1024 b 375 1200 308 1129 326 1200 b 419 1146 399 1200 419 1174 b 403 1108 419 1131 414 1117 b 346 1035 378 1094 361 1068 b 325 1007 340 1024 335 1007 z "},"Ê":{"ha":650,"x_min":0,"x_max":0,"o":"m 325 -1 l 200 0 b 19 388 42 7 19 231 b 64 711 19 497 35 606 b 272 917 96 824 163 894 b 444 940 329 928 386 940 b 625 832 526 940 603 924 b 639 725 633 796 639 760 b 563 579 639 651 611 579 b 506 604 546 579 526 588 b 436 650 483 621 464 640 b 390 660 419 657 404 660 b 285 547 332 660 299 607 l 285 543 b 317 514 285 528 301 514 b 415 533 353 517 381 533 b 513 489 451 533 483 515 b 533 444 526 478 533 461 b 456 336 533 399 499 350 b 300 315 406 321 353 315 b 253 269 263 315 256 308 b 301 221 253 243 274 221 b 439 263 354 226 388 238 b 554 292 481 281 508 288 b 636 185 611 292 636 244 b 325 -1 636 56 506 -1 z m 496 1031 l 490 1032 b 472 1049 485 1038 478 1042 b 424 1121 454 1069 439 1093 l 389 1181 b 381 1189 386 1186 383 1189 b 374 1181 378 1189 375 1186 l 307 1081 b 281 1047 300 1068 292 1057 l 272 1044 b 267 1047 271 1044 268 1046 b 264 1057 264 1050 264 1053 l 264 1068 b 275 1101 267 1079 271 1090 b 314 1183 288 1129 300 1156 b 356 1246 325 1206 339 1228 b 382 1263 361 1257 371 1263 b 411 1236 393 1263 404 1251 l 504 1074 b 510 1063 504 1069 507 1065 l 511 1051 l 507 1038 b 496 1031 504 1033 500 1031 z "},"Ë":{"ha":650,"x_min":0,"x_max":0,"o":"m 325 -1 l 200 0 b 19 388 42 7 19 231 b 64 711 19 497 35 606 b 272 917 96 824 163 894 b 444 940 329 928 386 940 b 625 832 526 940 603 924 b 639 725 633 796 639 760 b 563 579 639 651 611 579 b 506 604 546 579 526 588 b 436 650 483 621 464 640 b 390 660 419 657 404 660 b 285 547 332 660 299 607 l 285 543 b 317 514 285 528 301 514 b 415 533 353 517 381 533 b 513 489 451 533 483 515 b 533 444 526 478 533 461 b 456 336 533 399 499 350 b 300 315 406 321 353 315 b 253 269 263 315 256 308 b 301 221 253 243 274 221 b 439 263 354 226 388 238 b 554 292 481 281 508 288 b 636 185 611 292 636 244 b 325 -1 636 56 506 -1 z m 504 1049 b 410 1154 456 1049 410 1099 b 500 1256 410 1215 446 1256 b 597 1158 557 1256 597 1214 l 597 1156 b 504 1049 597 1099 554 1049 z m 160 1047 b 67 1146 110 1049 67 1094 b 156 1244 67 1199 106 1243 l 158 1244 b 250 1149 208 1244 249 1201 b 160 1047 250 1096 208 1047 z "},"Ì":{"ha":440,"x_min":0,"x_max":0,"o":"m 314 4 l 243 7 b 131 4 206 6 168 4 l 106 4 b 24 93 50 7 24 49 b 35 140 24 108 26 125 b 86 172 44 161 67 165 b 144 247 143 189 140 189 b 149 388 147 294 149 342 b 143 678 149 485 143 582 b 140 707 143 688 140 697 b 121 725 139 719 132 725 l 108 725 b 21 811 51 725 35 750 b 17 840 18 821 17 831 b 19 865 17 849 18 857 b 85 929 26 903 47 928 b 293 942 154 932 224 942 l 339 940 b 449 833 404 938 449 890 b 443 796 449 822 447 808 b 382 739 433 765 414 743 b 349 701 358 735 349 726 b 333 397 347 600 333 499 l 335 358 b 363 196 338 303 347 249 b 392 165 368 181 375 171 b 446 86 425 153 446 121 l 446 79 b 376 10 440 39 419 17 b 314 4 356 6 335 4 z m 226 1039 b 217 1044 225 1039 221 1040 b 204 1061 213 1050 207 1056 b 110 1250 163 1119 138 1185 b 106 1265 107 1254 106 1260 l 106 1268 b 119 1292 106 1278 110 1286 b 133 1296 124 1294 128 1296 b 149 1290 139 1296 143 1293 b 165 1275 156 1286 161 1282 b 238 1076 206 1215 229 1149 b 235 1050 238 1067 238 1058 b 226 1039 233 1043 231 1039 z "},"Í":{"ha":440,"x_min":0,"x_max":0,"o":"m 314 4 l 243 7 b 131 4 206 6 168 4 l 106 4 b 24 93 50 7 24 49 b 35 140 24 108 26 125 b 86 172 44 161 67 165 b 144 247 143 189 140 189 b 149 388 147 294 149 342 b 143 678 149 485 143 582 b 140 707 143 688 140 697 b 121 725 139 719 132 725 l 108 725 b 21 811 51 725 35 750 b 17 840 18 821 17 831 b 19 865 17 849 18 857 b 85 929 26 903 47 928 b 293 942 154 932 224 942 l 339 940 b 449 833 404 938 449 890 b 443 796 449 822 447 808 b 382 739 433 765 414 743 b 349 701 358 735 349 726 b 333 397 347 600 333 499 l 335 358 b 363 196 338 303 347 249 b 392 165 368 181 375 171 b 446 86 425 153 446 121 l 446 79 b 376 10 440 39 419 17 b 314 4 356 6 335 4 z m 190 1022 b 172 1058 181 1022 172 1039 b 239 1215 172 1144 192 1215 b 283 1161 263 1215 283 1189 b 267 1124 283 1146 278 1132 b 210 1050 242 1110 225 1083 b 190 1022 204 1039 200 1022 z "},"Î":{"ha":440,"x_min":0,"x_max":0,"o":"m 314 4 l 243 7 b 131 4 206 6 168 4 l 106 4 b 24 93 50 7 24 49 b 35 140 24 108 26 125 b 86 172 44 161 67 165 b 144 247 143 189 140 189 b 149 388 147 294 149 342 b 143 678 149 485 143 582 b 140 707 143 688 140 697 b 121 725 139 719 132 725 l 108 725 b 21 811 51 725 35 750 b 17 840 18 821 17 831 b 19 865 17 849 18 857 b 85 929 26 903 47 928 b 293 942 154 932 224 942 l 339 940 b 449 833 404 938 449 890 b 443 796 449 822 447 808 b 382 739 433 765 414 743 b 349 701 358 735 349 726 b 333 397 347 600 333 499 l 335 358 b 363 196 338 303 347 249 b 392 165 368 181 375 171 b 446 86 425 153 446 121 l 446 79 b 376 10 440 39 419 17 b 314 4 356 6 335 4 z m 328 990 l 322 992 b 304 1008 315 997 308 1001 b 254 1081 286 1029 269 1053 l 219 1140 b 211 1149 217 1146 214 1149 b 204 1140 208 1149 207 1146 l 139 1040 b 111 1007 132 1028 122 1017 l 103 1004 b 97 1007 101 1004 100 1006 b 94 1017 96 1010 94 1013 l 96 1028 b 107 1061 97 1039 103 1050 b 146 1143 118 1089 132 1115 b 186 1206 157 1165 171 1188 b 214 1222 193 1217 201 1222 b 243 1196 225 1222 236 1211 l 336 1033 b 340 1022 336 1029 338 1025 l 342 1011 l 338 997 b 328 990 335 993 331 990 z "},"Ï":{"ha":440,"x_min":0,"x_max":0,"o":"m 314 4 l 243 7 b 131 4 206 6 168 4 l 106 4 b 24 93 50 7 24 49 b 35 140 24 108 26 125 b 86 172 44 161 67 165 b 144 247 143 189 140 189 b 149 388 147 294 149 342 b 143 678 149 485 143 582 b 140 707 143 688 140 697 b 121 725 139 719 132 725 l 108 725 b 21 811 51 725 35 750 b 17 840 18 821 17 831 b 19 865 17 849 18 857 b 85 929 26 903 47 928 b 293 942 154 932 224 942 l 339 940 b 449 833 404 938 449 890 b 443 796 449 822 447 808 b 382 739 433 765 414 743 b 349 701 358 735 349 726 b 333 397 347 600 333 499 l 335 358 b 363 196 338 303 347 249 b 392 165 368 181 375 171 b 446 86 425 153 446 121 l 446 79 b 376 10 440 39 419 17 b 314 4 356 6 335 4 z m 389 1022 b 294 1128 340 1022 294 1072 b 385 1229 294 1189 331 1229 b 482 1132 440 1229 482 1188 l 482 1129 b 389 1022 482 1072 439 1022 z m 44 1021 b -49 1119 -6 1022 -49 1068 b 40 1218 -49 1172 -10 1217 l 42 1218 b 135 1122 93 1218 133 1175 b 44 1021 135 1069 93 1021 z "},"Ð":{"ha":757,"x_min":0,"x_max":0,"o":"m 249 -4 b 151 14 217 -4 185 1 b 65 56 121 24 89 31 b 46 100 53 68 46 82 l 46 106 b 65 346 49 186 64 265 l 65 392 b 54 576 65 453 63 515 b 38 750 47 633 38 692 l 38 761 b 61 835 39 788 44 813 b 221 929 100 889 153 921 b 324 936 256 933 290 936 b 551 903 401 936 476 925 b 736 688 660 871 714 793 b 744 632 740 669 742 651 l 744 597 b 569 171 744 433 681 293 b 367 22 511 108 446 57 b 249 -4 326 4 288 -4 z m 331 357 l 343 363 b 432 435 376 382 407 404 b 456 494 446 453 456 474 l 454 500 b 340 604 451 568 410 604 l 331 604 b 307 583 314 603 307 596 l 308 574 b 324 406 315 519 324 463 l 322 375 b 331 357 322 364 325 357 z m 551 404 l 368 404 b 81 417 254 407 167 407 l 53 421 b 0 464 26 426 0 435 l 0 465 b 56 510 0 496 28 506 b 169 521 93 515 132 519 b 549 528 296 525 422 526 l 554 528 b 650 467 615 528 649 506 b 551 404 650 426 615 404 z "},"Ñ":{"ha":817,"x_min":0,"x_max":0,"o":"m 164 -6 b 46 118 103 -6 53 49 b 40 214 42 150 40 182 b 47 403 40 281 44 333 b 44 551 46 460 44 496 b 58 746 44 617 47 682 b 174 886 71 815 107 865 b 194 889 181 889 188 889 b 240 864 211 889 226 881 b 314 726 274 822 296 775 b 401 513 340 654 368 582 b 483 422 419 472 460 422 b 544 603 522 422 536 538 b 547 661 546 622 547 642 b 536 824 547 726 538 767 b 661 940 536 889 581 938 b 775 761 739 940 768 849 b 785 564 782 696 785 629 b 736 161 785 429 771 294 b 582 26 718 83 657 26 b 344 169 488 26 407 86 b 269 261 319 201 294 231 l 265 258 b 264 154 265 224 265 189 b 260 89 264 132 263 110 b 164 -6 250 32 214 -6 z m 440 996 l 438 996 b 289 1036 386 999 336 1015 b 246 1054 275 1043 261 1050 l 225 1056 l 208 1054 b 193 1042 199 1053 193 1049 b 196 1033 193 1039 193 1036 b 201 1021 199 1029 201 1025 b 196 1011 201 1018 200 1014 b 176 1004 190 1006 183 1004 b 160 1007 171 1004 165 1006 b 128 1046 140 1013 128 1028 l 128 1054 b 213 1115 132 1085 167 1110 b 239 1117 222 1117 231 1117 b 319 1100 268 1117 294 1111 b 410 1068 349 1086 378 1075 b 436 1064 419 1065 428 1064 b 488 1106 465 1064 483 1079 b 517 1136 490 1119 496 1132 l 526 1138 b 567 1118 542 1138 557 1131 b 578 1090 574 1110 578 1101 l 578 1086 b 440 996 572 1040 508 996 z "},"Ò":{"ha":663,"x_min":0,"x_max":0,"o":"m 256 1 b 60 143 172 1 99 56 b 15 315 36 199 24 256 b 8 414 11 349 8 381 b 86 733 8 525 33 632 b 389 943 149 856 249 932 l 415 944 b 610 797 508 944 583 904 b 632 694 618 764 629 729 b 639 574 636 654 638 614 l 639 567 b 528 161 639 421 599 285 b 274 3 472 64 385 13 z m 301 383 b 332 392 311 383 321 386 b 364 421 346 399 356 410 b 396 539 390 456 396 496 l 396 560 b 349 621 393 599 375 621 b 306 606 335 621 321 615 b 240 468 267 581 240 519 b 249 422 240 451 243 436 b 301 383 258 397 279 383 z m 364 1004 b 354 1010 361 1004 358 1006 b 340 1026 350 1015 344 1021 b 246 1215 299 1085 275 1150 b 243 1231 243 1219 243 1225 l 242 1233 b 256 1257 242 1243 247 1251 b 269 1261 260 1260 265 1261 b 285 1256 275 1261 281 1258 b 301 1240 292 1251 297 1247 b 374 1042 342 1181 365 1114 b 371 1015 374 1032 374 1024 b 364 1004 369 1008 367 1004 z "},"Ó":{"ha":663,"x_min":0,"x_max":0,"o":"m 256 1 b 60 143 172 1 99 56 b 15 315 36 199 24 256 b 8 414 11 349 8 381 b 86 733 8 525 33 632 b 389 943 149 856 249 932 l 415 944 b 610 797 508 944 583 904 b 632 694 618 764 629 729 b 639 574 636 654 638 614 l 639 567 b 528 161 639 421 599 285 b 274 3 472 64 385 13 z m 301 383 b 332 392 311 383 321 386 b 364 421 346 399 356 410 b 396 539 390 456 396 496 l 396 560 b 349 621 393 599 375 621 b 306 606 335 621 321 615 b 240 468 267 581 240 519 b 249 422 240 451 243 436 b 301 383 258 397 279 383 z m 353 1007 b 335 1043 343 1007 335 1024 b 403 1200 335 1129 354 1200 b 446 1146 425 1200 446 1174 b 429 1108 446 1131 440 1117 b 372 1035 404 1094 388 1068 b 353 1007 367 1024 363 1007 z "},"Ô":{"ha":663,"x_min":0,"x_max":0,"o":"m 256 1 b 60 143 172 1 99 56 b 15 315 36 199 24 256 b 8 414 11 349 8 381 b 86 733 8 525 33 632 b 389 943 149 856 249 932 l 415 944 b 610 797 508 944 583 904 b 632 694 618 764 629 729 b 639 574 636 654 638 614 l 639 567 b 528 161 639 421 599 285 b 274 3 472 64 385 13 z m 301 383 b 332 392 311 383 321 386 b 364 421 346 399 356 410 b 396 539 390 456 396 496 l 396 560 b 349 621 393 599 375 621 b 306 606 335 621 321 615 b 240 468 267 581 240 519 b 249 422 240 451 243 436 b 301 383 258 397 279 383 z m 524 1013 l 518 1014 b 500 1031 511 1019 504 1024 b 450 1103 482 1051 467 1075 l 417 1163 b 408 1171 413 1168 410 1171 b 400 1163 406 1171 403 1168 l 335 1063 b 307 1029 328 1050 318 1039 l 300 1026 b 294 1029 297 1026 296 1028 b 290 1039 292 1032 290 1035 l 292 1050 b 303 1083 294 1061 299 1072 b 342 1165 314 1111 328 1138 b 382 1228 353 1188 367 1210 b 410 1244 389 1239 399 1244 b 439 1218 421 1244 432 1233 l 532 1056 b 536 1044 532 1051 535 1047 l 538 1033 l 535 1019 b 524 1013 531 1015 528 1013 z "},"Õ":{"ha":663,"x_min":0,"x_max":0,"o":"m 256 1 b 60 143 172 1 99 56 b 15 315 36 199 24 256 b 8 414 11 349 8 381 b 86 733 8 525 33 632 b 389 943 149 856 249 932 l 415 944 b 610 797 508 944 583 904 b 632 694 618 764 629 729 b 639 574 636 654 638 614 l 639 567 b 528 161 639 421 599 285 b 274 3 472 64 385 13 z m 301 383 b 332 392 311 383 321 386 b 364 421 346 399 356 410 b 396 539 390 456 396 496 l 396 560 b 349 621 393 599 375 621 b 306 606 335 621 321 615 b 240 468 267 581 240 519 b 249 422 240 451 243 436 b 301 383 258 397 279 383 z m 443 1025 l 440 1025 b 292 1065 389 1028 339 1044 b 249 1083 278 1072 264 1079 l 226 1085 l 211 1083 b 194 1071 201 1082 194 1078 b 199 1063 194 1068 196 1065 b 204 1050 201 1058 204 1054 b 199 1040 204 1047 203 1043 b 179 1033 193 1035 186 1033 b 163 1036 174 1033 168 1035 b 131 1075 143 1042 131 1057 l 131 1083 b 215 1144 135 1114 169 1139 b 242 1146 225 1146 233 1146 b 322 1129 271 1146 297 1140 b 413 1097 351 1115 381 1104 b 439 1093 422 1094 431 1093 b 490 1135 467 1093 486 1108 b 519 1165 493 1149 499 1161 l 529 1167 b 569 1147 544 1167 560 1160 b 581 1119 576 1139 581 1131 l 581 1115 b 443 1025 575 1069 511 1025 z "},"Ö":{"ha":663,"x_min":0,"x_max":0,"o":"m 256 1 b 60 143 172 1 99 56 b 15 315 36 199 24 256 b 8 414 11 349 8 381 b 86 733 8 525 33 632 b 389 943 149 856 249 932 l 415 944 b 610 797 508 944 583 904 b 632 694 618 764 629 729 b 639 574 636 654 638 614 l 639 567 b 528 161 639 421 599 285 b 274 3 472 64 385 13 z m 301 383 b 332 392 311 383 321 386 b 364 421 346 399 356 410 b 396 539 390 456 396 496 l 396 560 b 349 621 393 599 375 621 b 306 606 335 621 321 615 b 240 468 267 581 240 519 b 249 422 240 451 243 436 b 301 383 258 397 279 383 z m 529 996 b 435 1101 481 996 435 1046 b 525 1203 435 1163 471 1203 b 622 1106 581 1203 622 1161 l 622 1103 b 529 996 622 1046 579 996 z m 185 994 b 92 1093 135 996 92 1042 b 181 1192 92 1146 131 1190 l 183 1192 b 275 1096 233 1192 274 1149 b 185 994 275 1043 233 994 z "},"×":{"ha":519,"x_min":0,"x_max":0,"o":"m 19 -14 b 6 -8 15 -14 10 -12 b 0 4 1 -4 0 0 b 3 17 0 8 1 13 b 57 133 18 57 35 96 b 182 338 96 203 136 272 b 189 353 186 343 189 349 b 178 369 189 358 185 364 b 21 528 122 418 67 468 b 7 560 14 538 7 547 l 7 565 b 42 588 11 581 24 588 b 92 564 60 586 76 576 b 232 451 139 528 186 490 b 250 442 239 446 244 442 b 267 456 256 442 261 446 b 390 601 304 506 344 556 b 435 632 403 614 417 626 b 454 636 442 635 447 636 b 476 625 463 636 471 633 b 483 607 482 619 483 613 b 474 583 483 599 479 590 b 379 454 443 540 411 497 b 332 390 363 433 349 411 b 326 378 329 385 326 382 b 335 364 326 372 329 368 b 438 260 371 331 406 296 b 508 153 465 228 488 190 b 519 114 517 140 519 128 l 519 107 b 494 82 518 90 508 82 l 482 83 b 436 115 464 89 450 101 l 279 274 b 265 283 274 279 269 283 b 253 272 261 283 257 279 b 132 88 215 208 175 149 b 57 4 111 57 88 28 b 33 -11 49 -1 42 -7 b 19 -14 29 -12 25 -14 z "},"Ø":{"ha":663,"x_min":0,"x_max":0,"o":"m 256 1 b 60 143 172 1 99 56 b 15 315 36 199 24 256 b 8 414 11 349 8 381 b 86 733 8 525 33 632 b 389 943 149 856 249 932 l 415 944 b 610 797 508 944 583 904 b 632 694 618 764 629 729 b 639 574 636 654 638 614 l 639 567 b 528 161 639 421 599 285 b 274 3 472 64 385 13 z m 301 383 b 332 392 311 383 321 386 b 364 421 346 399 356 410 b 396 539 390 456 396 496 l 396 560 b 349 621 393 599 375 621 b 306 606 335 621 321 615 b 240 468 267 581 240 519 b 249 422 240 451 243 436 b 301 383 258 397 279 383 z m 29 -6 l 18 -3 b 3 36 0 4 4 22 b 31 142 4 74 15 108 b 404 881 151 390 265 642 b 438 924 414 896 424 911 b 468 939 446 932 457 939 b 485 935 474 939 479 938 b 503 901 499 928 503 915 l 503 890 b 475 799 499 858 489 828 b 133 108 369 564 269 328 b 58 10 111 72 90 38 b 29 -6 50 3 40 -6 z "},"Ù":{"ha":836,"x_min":0,"x_max":0,"o":"m 397 -4 b 257 24 351 -4 304 7 b 146 125 207 43 169 76 b 35 553 79 260 38 401 b 31 654 33 588 31 621 b 39 746 31 685 33 715 b 85 840 47 781 63 813 b 161 874 106 867 132 874 l 186 872 b 272 832 218 868 247 854 b 300 771 289 815 297 796 b 369 435 308 656 314 540 b 421 363 383 408 399 383 b 435 354 426 357 431 354 b 446 369 439 354 443 360 b 471 550 461 429 471 489 l 468 601 b 447 814 461 672 453 743 l 446 833 b 507 918 446 876 464 897 b 607 942 540 935 574 942 b 686 929 633 942 660 938 b 760 857 722 917 746 892 b 782 700 778 806 781 753 b 799 335 786 578 799 457 b 782 151 799 272 797 211 b 771 115 779 139 775 126 b 681 39 751 65 719 39 b 613 61 660 39 636 46 b 593 68 606 65 600 68 b 575 60 588 68 582 65 b 397 -4 518 14 458 -4 z m 346 972 b 336 978 343 972 340 974 b 324 994 332 983 326 989 b 229 1183 282 1053 257 1118 b 225 1199 226 1188 225 1193 l 225 1201 b 239 1225 225 1211 229 1219 b 253 1229 243 1228 247 1229 b 268 1224 257 1229 263 1226 b 285 1208 275 1219 281 1215 b 357 1010 325 1149 349 1082 b 354 983 357 1000 357 992 b 346 972 353 976 350 972 z "},"Ú":{"ha":836,"x_min":0,"x_max":0,"o":"m 397 -4 b 257 24 351 -4 304 7 b 146 125 207 43 169 76 b 35 553 79 260 38 401 b 31 654 33 588 31 621 b 39 746 31 685 33 715 b 85 840 47 781 63 813 b 161 874 106 867 132 874 l 186 872 b 272 832 218 868 247 854 b 300 771 289 815 297 796 b 369 435 308 656 314 540 b 421 363 383 408 399 383 b 435 354 426 357 431 354 b 446 369 439 354 443 360 b 471 550 461 429 471 489 l 468 601 b 447 814 461 672 453 743 l 446 833 b 507 918 446 876 464 897 b 607 942 540 935 574 942 b 686 929 633 942 660 938 b 760 857 722 917 746 892 b 782 700 778 806 781 753 b 799 335 786 578 799 457 b 782 151 799 272 797 211 b 771 115 779 139 775 126 b 681 39 751 65 719 39 b 613 61 660 39 636 46 b 593 68 606 65 600 68 b 575 60 588 68 582 65 b 397 -4 518 14 458 -4 z m 310 1014 b 292 1050 300 1014 292 1031 b 358 1207 292 1136 311 1207 b 403 1153 382 1207 403 1181 b 386 1115 403 1138 397 1124 b 329 1042 361 1101 344 1075 b 310 1014 324 1031 319 1014 z "},"Û":{"ha":836,"x_min":0,"x_max":0,"o":"m 397 -4 b 257 24 351 -4 304 7 b 146 125 207 43 169 76 b 35 553 79 260 38 401 b 31 654 33 588 31 621 b 39 746 31 685 33 715 b 85 840 47 781 63 813 b 161 874 106 867 132 874 l 186 872 b 272 832 218 868 247 854 b 300 771 289 815 297 796 b 369 435 308 656 314 540 b 421 363 383 408 399 383 b 435 354 426 357 431 354 b 446 369 439 354 443 360 b 471 550 461 429 471 489 l 468 601 b 447 814 461 672 453 743 l 446 833 b 507 918 446 876 464 897 b 607 942 540 935 574 942 b 686 929 633 942 660 938 b 760 857 722 917 746 892 b 782 700 778 806 781 753 b 799 335 786 578 799 457 b 782 151 799 272 797 211 b 771 115 779 139 775 126 b 681 39 751 65 719 39 b 613 61 660 39 636 46 b 593 68 606 65 600 68 b 575 60 588 68 582 65 b 397 -4 518 14 458 -4 z m 496 1010 l 490 1011 b 472 1028 483 1017 476 1021 b 422 1100 454 1049 438 1072 l 388 1160 b 379 1168 385 1165 382 1168 b 372 1160 376 1168 375 1165 l 307 1060 b 279 1026 300 1047 290 1036 l 271 1024 b 265 1026 269 1024 268 1025 b 263 1036 264 1029 263 1032 l 264 1047 b 275 1081 265 1058 269 1069 b 313 1163 286 1108 300 1135 b 354 1225 325 1185 338 1207 b 381 1242 361 1236 369 1242 b 411 1215 393 1242 404 1231 l 504 1053 b 508 1042 504 1049 506 1044 l 510 1031 l 506 1017 b 496 1010 503 1013 499 1010 z "},"Ü":{"ha":836,"x_min":0,"x_max":0,"o":"m 397 -4 b 257 24 351 -4 304 7 b 146 125 207 43 169 76 b 35 553 79 260 38 401 b 31 654 33 588 31 621 b 39 746 31 685 33 715 b 85 840 47 781 63 813 b 161 874 106 867 132 874 l 186 872 b 272 832 218 868 247 854 b 300 771 289 815 297 796 b 369 435 308 656 314 540 b 421 363 383 408 399 383 b 435 354 426 357 431 354 b 446 369 439 354 443 360 b 471 550 461 429 471 489 l 468 601 b 447 814 461 672 453 743 l 446 833 b 507 918 446 876 464 897 b 607 942 540 935 574 942 b 686 929 633 942 660 938 b 760 857 722 917 746 892 b 782 700 778 806 781 753 b 799 335 786 578 799 457 b 782 151 799 272 797 211 b 771 115 779 139 775 126 b 681 39 751 65 719 39 b 613 61 660 39 636 46 b 593 68 606 65 600 68 b 575 60 588 68 582 65 b 397 -4 518 14 458 -4 z m 508 1060 b 414 1165 460 1060 414 1110 b 504 1267 414 1226 450 1267 b 601 1169 560 1267 601 1225 l 601 1167 b 508 1060 601 1110 558 1060 z m 164 1058 b 71 1157 114 1060 71 1106 b 160 1256 71 1210 110 1254 l 161 1256 b 254 1160 213 1256 253 1213 b 164 1058 254 1107 213 1058 z "},"Ý":{"ha":678,"x_min":0,"x_max":0,"o":"m 335 -4 b 258 25 308 -4 281 6 b 239 54 249 33 242 43 b 219 161 228 89 219 125 l 219 175 b 224 313 224 221 224 267 l 224 381 b 200 425 224 400 213 413 b 50 668 135 497 90 582 b 14 833 25 721 17 776 l 14 838 b 124 940 14 896 64 940 b 228 878 171 940 204 918 b 340 665 268 810 308 739 b 350 651 343 660 344 653 l 353 651 b 365 664 360 651 361 658 b 519 872 414 735 463 807 b 613 935 544 901 571 928 l 631 936 b 743 825 693 936 743 889 l 742 806 b 657 611 729 735 707 667 b 510 456 608 558 567 500 b 490 414 494 446 490 432 l 490 358 b 482 211 490 308 489 260 b 429 54 474 156 456 103 b 335 -4 410 17 372 -4 z m 360 1018 b 342 1054 350 1018 342 1035 b 408 1211 342 1140 361 1211 b 453 1157 432 1211 453 1185 b 436 1119 453 1142 447 1128 b 379 1046 411 1106 394 1079 b 360 1018 374 1035 369 1018 z "},"à":{"ha":543,"x_min":0,"x_max":0,"o":"m 408 -6 b 358 21 390 -6 372 3 b 338 60 350 33 342 46 l 326 104 b 278 24 317 72 301 46 b 193 -4 258 4 226 -4 b 71 49 144 -4 93 14 b 10 258 28 114 10 183 l 11 289 b 49 449 15 344 25 399 b 181 601 78 513 122 564 b 279 631 213 621 246 631 b 339 621 299 631 318 628 l 349 619 b 364 625 354 619 358 621 b 388 636 371 632 379 636 b 411 629 396 636 403 633 b 475 563 442 617 461 592 b 511 400 500 511 507 456 b 513 338 513 379 513 358 b 493 106 513 260 506 182 b 453 14 489 71 479 39 b 408 -6 439 0 424 -6 z m 226 258 b 253 267 236 258 246 261 b 278 318 274 282 278 304 l 278 325 b 258 378 278 350 271 365 b 222 394 247 389 235 394 b 185 378 210 394 197 389 b 165 328 171 365 165 346 b 176 286 165 313 168 299 b 226 258 189 268 208 258 z m 310 719 b 300 725 307 719 304 721 b 288 742 296 731 290 736 b 192 931 244 800 221 865 b 189 946 190 935 189 940 l 189 949 b 201 972 189 958 193 967 b 215 976 207 975 211 976 b 232 971 221 976 226 974 b 249 956 239 967 244 963 b 319 757 288 896 313 829 b 318 731 319 747 319 739 b 310 719 315 724 314 719 z "},"á":{"ha":543,"x_min":0,"x_max":0,"o":"m 408 -6 b 358 21 390 -6 372 3 b 338 60 350 33 342 46 l 326 104 b 278 24 317 72 301 46 b 193 -4 258 4 226 -4 b 71 49 144 -4 93 14 b 10 258 28 114 10 183 l 11 289 b 49 449 15 344 25 399 b 181 601 78 513 122 564 b 279 631 213 621 246 631 b 339 621 299 631 318 628 l 349 619 b 364 625 354 619 358 621 b 388 636 371 632 379 636 b 411 629 396 636 403 633 b 475 563 442 617 461 592 b 511 400 500 511 507 456 b 513 338 513 379 513 358 b 493 106 513 260 506 182 b 453 14 489 71 479 39 b 408 -6 439 0 424 -6 z m 226 258 b 253 267 236 258 246 261 b 278 318 274 282 278 304 l 278 325 b 258 378 278 350 271 365 b 222 394 247 389 235 394 b 185 378 210 394 197 389 b 165 328 171 365 165 346 b 176 286 165 313 168 299 b 226 258 189 268 208 258 z m 276 799 b 258 835 267 799 258 815 b 325 992 258 921 276 992 b 369 938 349 992 369 965 b 353 900 369 922 364 908 b 296 826 328 886 311 860 b 276 799 290 815 285 799 z "},"â":{"ha":543,"x_min":0,"x_max":0,"o":"m 408 -6 b 358 21 390 -6 372 3 b 338 60 350 33 342 46 l 326 104 b 278 24 317 72 301 46 b 193 -4 258 4 226 -4 b 71 49 144 -4 93 14 b 10 258 28 114 10 183 l 11 289 b 49 449 15 344 25 399 b 181 601 78 513 122 564 b 279 631 213 621 246 631 b 339 621 299 631 318 628 l 349 619 b 364 625 354 619 358 621 b 388 636 371 632 379 636 b 411 629 396 636 403 633 b 475 563 442 617 461 592 b 511 400 500 511 507 456 b 513 338 513 379 513 358 b 493 106 513 260 506 182 b 453 14 489 71 479 39 b 408 -6 439 0 424 -6 z m 226 258 b 253 267 236 258 246 261 b 278 318 274 282 278 304 l 278 325 b 258 378 278 350 271 365 b 222 394 247 389 235 394 b 185 378 210 394 197 389 b 165 328 171 365 165 346 b 176 286 165 313 168 299 b 226 258 189 268 208 258 z m 468 757 l 464 758 b 446 775 457 764 450 768 b 396 847 426 796 411 819 l 361 907 b 353 915 358 913 356 915 b 346 907 350 915 347 913 l 279 807 b 253 774 272 794 264 783 l 244 771 b 239 774 243 771 240 772 b 236 783 236 776 236 779 l 236 794 b 247 828 239 806 243 817 b 286 910 260 856 272 882 b 328 972 297 932 311 954 b 354 989 333 983 343 989 b 383 963 365 989 378 978 l 476 800 b 482 789 476 796 479 792 l 483 778 l 479 764 b 468 757 476 760 472 757 z "},"ã":{"ha":543,"x_min":0,"x_max":0,"o":"m 408 -6 b 358 21 390 -6 372 3 b 338 60 350 33 342 46 l 326 104 b 278 24 317 72 301 46 b 193 -4 258 4 226 -4 b 71 49 144 -4 93 14 b 10 258 28 114 10 183 l 11 289 b 49 449 15 344 25 399 b 181 601 78 513 122 564 b 279 631 213 621 246 631 b 339 621 299 631 318 628 l 349 619 b 364 625 354 619 358 621 b 388 636 371 632 379 636 b 411 629 396 636 403 633 b 475 563 442 617 461 592 b 511 400 500 511 507 456 b 513 338 513 379 513 358 b 493 106 513 260 506 182 b 453 14 489 71 479 39 b 408 -6 439 0 424 -6 z m 226 258 b 253 267 236 258 246 261 b 278 318 274 282 278 304 l 278 325 b 258 378 278 350 271 365 b 222 394 247 389 235 394 b 185 378 210 394 197 389 b 165 328 171 365 165 346 b 176 286 165 313 168 299 b 226 258 189 268 208 258 z m 363 794 l 358 794 b 210 835 307 797 257 814 b 167 853 196 842 182 849 l 146 854 l 129 853 b 114 840 119 851 114 847 b 117 832 114 838 115 835 b 124 819 121 828 124 824 b 117 810 124 817 122 813 b 97 803 111 804 106 803 b 81 806 93 803 88 804 b 49 844 61 811 49 826 l 49 853 b 133 914 53 883 88 908 b 161 915 143 915 151 915 b 240 899 189 915 215 910 b 331 867 269 885 299 874 b 357 863 340 864 350 863 b 408 904 386 863 404 878 b 438 935 411 918 417 931 l 449 936 b 488 917 463 936 478 929 b 500 889 496 908 500 900 l 499 885 b 363 794 494 839 429 794 z "},"ä":{"ha":543,"x_min":0,"x_max":0,"o":"m 408 -6 b 358 21 390 -6 372 3 b 338 60 350 33 342 46 l 326 104 b 278 24 317 72 301 46 b 193 -4 258 4 226 -4 b 71 49 144 -4 93 14 b 10 258 28 114 10 183 l 11 289 b 49 449 15 344 25 399 b 181 601 78 513 122 564 b 279 631 213 621 246 631 b 339 621 299 631 318 628 l 349 619 b 364 625 354 619 358 621 b 388 636 371 632 379 636 b 411 629 396 636 403 633 b 475 563 442 617 461 592 b 511 400 500 511 507 456 b 513 338 513 379 513 358 b 493 106 513 260 506 182 b 453 14 489 71 479 39 b 408 -6 439 0 424 -6 z m 226 258 b 253 267 236 258 246 261 b 278 318 274 282 278 304 l 278 325 b 258 378 278 350 271 365 b 222 394 247 389 235 394 b 185 378 210 394 197 389 b 165 328 171 365 165 346 b 176 286 165 313 168 299 b 226 258 189 268 208 258 z m 433 799 b 339 904 385 799 339 849 b 429 1006 339 965 375 1006 b 526 908 486 1006 526 964 l 526 906 b 433 799 526 849 483 799 z m 89 797 b -4 896 39 799 -4 844 b 85 994 -4 949 35 993 l 88 994 b 179 899 138 994 178 951 b 89 797 179 846 138 797 z "},"å":{"ha":543,"x_min":0,"x_max":0,"o":"m 408 -6 b 358 21 390 -6 372 3 b 338 60 350 33 342 46 l 326 104 b 278 24 317 72 301 46 b 193 -4 258 4 226 -4 b 71 49 144 -4 93 14 b 10 258 28 114 10 183 l 11 289 b 49 449 15 344 25 399 b 181 601 78 513 122 564 b 279 631 213 621 246 631 b 339 621 299 631 318 628 l 349 619 b 364 625 354 619 358 621 b 388 636 371 632 379 636 b 411 629 396 636 403 633 b 475 563 442 617 461 592 b 511 400 500 511 507 456 b 513 338 513 379 513 358 b 493 106 513 260 506 182 b 453 14 489 71 479 39 b 408 -6 439 0 424 -6 z m 226 258 b 253 267 236 258 246 261 b 278 318 274 282 278 304 l 278 325 b 258 378 278 350 271 365 b 222 394 247 389 235 394 b 185 378 210 394 197 389 b 165 328 171 365 165 346 b 176 286 165 313 168 299 b 226 258 189 268 208 258 z m 300 686 b 231 735 269 686 242 704 b 224 768 225 746 224 757 b 260 838 224 796 236 822 l 279 850 b 308 857 289 856 299 857 b 357 835 326 857 344 850 b 381 772 374 815 381 793 b 315 688 381 729 353 694 z m 301 733 b 314 736 306 733 310 733 b 335 774 329 744 335 757 b 332 794 335 781 333 788 b 308 818 328 807 322 815 l 301 818 b 276 803 290 818 282 813 b 267 774 269 793 267 785 l 268 764 b 301 733 272 746 286 733 z "},"æ":{"ha":814,"x_min":0,"x_max":0,"o":"m 222 258 b 250 269 232 258 240 263 b 269 294 260 276 265 285 b 274 322 272 304 274 313 b 256 379 274 349 268 368 b 218 394 243 389 231 394 b 181 378 206 394 193 389 b 161 328 168 363 161 346 b 172 286 161 313 165 299 b 222 258 188 268 204 258 z m 614 422 b 639 429 621 422 629 425 b 669 471 657 436 668 450 b 647 511 669 488 663 501 b 617 521 638 518 626 521 b 586 510 607 521 596 517 b 561 453 569 497 561 479 b 569 438 561 447 564 442 b 614 422 582 428 596 422 z m 404 -6 b 333 60 371 -6 347 17 l 322 104 b 189 -4 301 32 257 -4 b 67 49 132 -4 90 14 b 6 258 26 114 6 183 b 44 449 8 335 22 399 b 176 601 74 513 118 564 b 275 631 208 621 240 631 b 335 621 294 631 314 628 l 344 619 b 360 625 350 619 356 621 b 383 636 367 632 375 636 b 407 629 392 636 400 633 b 469 565 436 615 457 594 l 474 568 b 653 624 521 606 581 624 b 803 475 753 619 803 569 b 790 393 803 447 799 419 b 735 333 781 367 763 346 b 643 306 706 321 675 311 b 574 253 611 299 588 282 b 568 231 569 246 568 238 b 644 193 568 206 593 193 b 717 200 665 193 690 196 l 733 200 b 774 138 760 200 774 179 b 681 25 774 94 743 57 b 593 4 653 11 624 4 b 472 46 550 4 510 18 b 404 -6 453 11 429 -6 z "},"ç":{"ha":440,"x_min":0,"x_max":0,"o":"m 178 25 b 186 29 179 26 182 28 b 122 64 164 40 143 51 b 56 146 90 85 68 111 b 7 374 26 214 10 289 b 28 464 10 403 17 433 b 79 547 38 494 56 522 b 269 629 131 600 194 628 l 272 629 b 371 590 311 629 344 617 b 414 489 397 564 413 529 l 414 474 b 400 407 414 450 410 428 b 347 368 388 381 369 368 b 314 376 338 368 326 371 b 276 390 301 381 289 386 b 253 397 268 392 260 394 l 244 399 b 224 390 238 399 231 396 b 189 303 200 367 189 338 b 196 263 189 289 192 275 b 233 215 203 243 215 228 b 290 197 251 203 269 197 b 335 200 306 197 319 199 l 354 201 l 361 201 b 426 176 393 201 415 193 b 447 114 438 160 444 139 l 449 94 b 400 18 449 61 432 36 b 308 -6 369 3 339 -6 b 289 -4 303 -6 296 -6 b 315 -71 307 -24 315 -44 l 315 -83 b 279 -158 311 -115 299 -140 b 207 -187 260 -178 236 -187 b 181 -183 199 -187 190 -186 b 160 -156 167 -176 160 -167 l 161 -153 b 186 -128 163 -137 171 -129 b 201 -126 190 -126 196 -126 b 224 -122 208 -125 217 -124 b 249 -104 233 -119 242 -114 b 258 -69 256 -92 258 -79 b 235 -29 258 -54 250 -42 b 200 -10 224 -21 213 -14 b 190 -7 196 -8 193 -8 b 186 -4 189 -6 188 -6 b 175 14 179 0 175 6 b 178 25 175 18 176 22 z "},"è":{"ha":471,"x_min":0,"x_max":0,"o":"m 253 4 b 192 15 233 4 213 8 b 76 103 143 32 104 61 b 10 297 35 164 13 231 b 133 568 13 411 50 500 b 304 624 185 608 243 624 l 321 624 b 369 617 338 622 354 621 b 460 515 418 603 451 565 b 464 475 463 501 464 489 b 450 394 464 447 458 421 b 396 333 440 367 424 346 b 301 306 365 319 335 311 b 233 253 269 300 247 281 b 228 231 231 244 228 238 b 265 196 228 213 242 199 b 304 193 279 193 292 193 b 367 199 325 193 346 196 l 388 200 b 433 138 419 200 433 183 b 414 81 433 117 429 96 b 253 4 371 36 314 4 z m 274 422 b 299 429 281 422 290 425 b 329 468 317 435 328 449 l 329 472 b 307 511 329 489 321 503 b 276 521 297 517 288 521 b 246 510 267 521 256 517 b 221 463 228 499 221 482 l 221 453 b 229 438 221 447 224 442 b 274 422 242 429 256 422 z m 288 717 b 278 722 285 717 282 718 b 265 739 274 728 268 733 b 169 928 222 797 199 863 b 167 943 168 932 167 938 l 167 946 b 179 969 167 956 171 964 b 193 974 185 972 189 974 b 210 968 199 974 204 971 b 226 953 217 964 222 960 b 297 754 265 893 290 826 b 296 728 297 744 297 736 b 288 717 293 721 292 717 z "},"é":{"ha":471,"x_min":0,"x_max":0,"o":"m 253 4 b 192 15 233 4 213 8 b 76 103 143 32 104 61 b 10 297 35 164 13 231 b 133 568 13 411 50 500 b 304 624 185 608 243 624 l 321 624 b 369 617 338 622 354 621 b 460 515 418 603 451 565 b 464 475 463 501 464 489 b 450 394 464 447 458 421 b 396 333 440 367 424 346 b 301 306 365 319 335 311 b 233 253 269 300 247 281 b 228 231 231 244 228 238 b 265 196 228 213 242 199 b 304 193 279 193 292 193 b 367 199 325 193 346 196 l 388 200 b 433 138 419 200 433 183 b 414 81 433 117 429 96 b 253 4 371 36 314 4 z m 274 422 b 299 429 281 422 290 425 b 329 468 317 435 328 449 l 329 472 b 307 511 329 489 321 503 b 276 521 297 517 288 521 b 246 510 267 521 256 517 b 221 463 228 499 221 482 l 221 453 b 229 438 221 447 224 442 b 274 422 242 429 256 422 z m 244 749 b 226 785 235 749 226 765 b 293 942 226 871 244 942 b 338 888 317 942 338 915 b 321 850 338 872 332 858 b 264 776 296 836 279 810 b 244 749 258 765 253 749 z "},"ê":{"ha":471,"x_min":0,"x_max":0,"o":"m 253 4 b 192 15 233 4 213 8 b 76 103 143 32 104 61 b 10 297 35 164 13 231 b 133 568 13 411 50 500 b 304 624 185 608 243 624 l 321 624 b 369 617 338 622 354 621 b 460 515 418 603 451 565 b 464 475 463 501 464 489 b 450 394 464 447 458 421 b 396 333 440 367 424 346 b 301 306 365 319 335 311 b 233 253 269 300 247 281 b 228 231 231 244 228 238 b 265 196 228 213 242 199 b 304 193 279 193 292 193 b 367 199 325 193 346 196 l 388 200 b 433 138 419 200 433 183 b 414 81 433 117 429 96 b 253 4 371 36 314 4 z m 274 422 b 299 429 281 422 290 425 b 329 468 317 435 328 449 l 329 472 b 307 511 329 489 321 503 b 276 521 297 517 288 521 b 246 510 267 521 256 517 b 221 463 228 499 221 482 l 221 453 b 229 438 221 447 224 442 b 274 422 242 429 256 422 z m 369 657 l 365 658 b 347 675 358 664 351 668 b 297 747 328 696 313 719 l 263 807 b 254 815 260 813 257 815 b 247 807 251 815 249 813 l 181 707 b 154 674 174 694 165 683 l 146 671 b 140 674 144 671 142 672 b 138 683 138 676 138 679 l 138 694 b 149 728 140 706 144 717 b 188 810 161 756 174 782 b 229 872 199 832 213 854 b 256 889 236 883 244 889 b 285 863 267 889 279 878 l 378 700 b 383 689 378 696 381 692 l 385 678 l 381 664 b 369 657 378 660 374 657 z "},"ë":{"ha":471,"x_min":0,"x_max":0,"o":"m 253 4 b 192 15 233 4 213 8 b 76 103 143 32 104 61 b 10 297 35 164 13 231 b 133 568 13 411 50 500 b 304 624 185 608 243 624 l 321 624 b 369 617 338 622 354 621 b 460 515 418 603 451 565 b 464 475 463 501 464 489 b 450 394 464 447 458 421 b 396 333 440 367 424 346 b 301 306 365 319 335 311 b 233 253 269 300 247 281 b 228 231 231 244 228 238 b 265 196 228 213 242 199 b 304 193 279 193 292 193 b 367 199 325 193 346 196 l 388 200 b 433 138 419 200 433 183 b 414 81 433 117 429 96 b 253 4 371 36 314 4 z m 274 422 b 299 429 281 422 290 425 b 329 468 317 435 328 449 l 329 472 b 307 511 329 489 321 503 b 276 521 297 517 288 521 b 246 510 267 521 256 517 b 221 463 228 499 221 482 l 221 453 b 229 438 221 447 224 442 b 274 422 242 429 256 422 z m 406 733 b 311 839 357 733 311 783 b 401 940 311 900 347 940 b 499 843 458 940 499 899 l 499 840 b 406 733 499 783 456 733 z m 61 732 b -32 831 11 733 -32 779 b 57 929 -32 883 7 928 l 60 929 b 151 833 110 929 150 886 b 61 732 151 781 110 732 z "},"ì":{"ha":192,"x_min":0,"x_max":0,"o":"m 113 -7 l 110 -7 b 83 14 96 -7 89 3 b 56 107 67 43 58 75 b 33 525 40 247 33 386 l 35 622 b 43 686 35 643 36 665 b 74 714 49 700 58 711 l 78 714 b 114 694 93 714 104 707 b 133 632 126 675 131 653 b 156 342 147 535 147 438 b 163 114 161 265 163 190 b 143 17 163 81 158 47 b 113 -7 136 4 129 -7 z m 92 750 b 82 756 89 750 86 751 b 69 772 78 761 72 767 b -26 961 26 831 3 896 b -29 976 -28 965 -29 971 l -29 979 b -17 1003 -29 989 -25 997 b -3 1007 -11 1006 -7 1007 b 14 1001 3 1007 8 1004 b 31 986 21 997 26 993 b 101 788 69 926 94 860 b 100 761 101 778 101 769 b 92 750 97 754 96 750 z "},"í":{"ha":192,"x_min":0,"x_max":0,"o":"m 113 -7 l 110 -7 b 83 14 96 -7 89 3 b 56 107 67 43 58 75 b 33 525 40 247 33 386 l 35 622 b 43 686 35 643 36 665 b 74 714 49 700 58 711 l 78 714 b 114 694 93 714 104 707 b 133 632 126 675 131 653 b 156 342 147 535 147 438 b 163 114 161 265 163 190 b 143 17 163 81 158 47 b 113 -7 136 4 129 -7 z m 46 844 b 28 881 36 844 28 861 b 94 1038 28 967 46 1038 b 139 983 118 1038 139 1011 b 122 946 139 968 133 954 b 65 872 97 932 81 906 b 46 844 60 861 54 844 z "},"î":{"ha":192,"x_min":0,"x_max":0,"o":"m 113 -7 l 110 -7 b 83 14 96 -7 89 3 b 56 107 67 43 58 75 b 33 525 40 247 33 386 l 35 622 b 43 686 35 643 36 665 b 74 714 49 700 58 711 l 78 714 b 114 694 93 714 104 707 b 133 632 126 675 131 653 b 156 342 147 535 147 438 b 163 114 161 265 163 190 b 143 17 163 81 158 47 b 113 -7 136 4 129 -7 z m 164 771 l 160 772 b 140 789 153 778 146 782 b 92 861 122 810 107 833 l 57 921 b 49 929 54 926 51 929 b 42 921 46 929 43 926 l -25 821 b -51 788 -32 808 -40 797 l -60 785 b -65 788 -61 785 -64 786 b -68 797 -68 790 -68 793 l -68 808 b -57 842 -65 819 -61 831 b -18 924 -44 869 -32 896 b 24 986 -7 946 7 968 b 50 1003 29 997 39 1003 b 79 976 61 1003 72 992 l 172 814 b 178 803 172 810 175 806 l 179 792 l 175 778 b 164 771 172 774 168 771 z "},"ï":{"ha":192,"x_min":0,"x_max":0,"o":"m 113 -7 l 110 -7 b 83 14 96 -7 89 3 b 56 107 67 43 58 75 b 33 525 40 247 33 386 l 35 622 b 43 686 35 643 36 665 b 74 714 49 700 58 711 l 78 714 b 114 694 93 714 104 707 b 133 632 126 675 131 653 b 156 342 147 535 147 438 b 163 114 161 265 163 190 b 143 17 163 81 158 47 b 113 -7 136 4 129 -7 z m 239 803 b 144 908 190 803 144 853 b 235 1010 144 969 181 1010 b 332 913 292 1010 332 968 l 332 910 b 239 803 332 853 289 803 z m -106 801 b -199 900 -156 803 -199 849 b -110 999 -199 953 -160 997 l -107 999 b -15 903 -57 999 -17 956 b -106 801 -15 850 -57 801 z "},"ñ":{"ha":579,"x_min":0,"x_max":0,"o":"m 153 0 b 101 28 135 0 117 11 b 74 86 85 43 78 64 b 51 251 60 140 54 196 b 33 386 49 297 39 342 b 21 547 26 440 22 493 l 21 551 b 53 607 21 575 32 594 b 125 629 78 622 103 629 b 196 600 151 629 175 619 b 219 572 206 592 213 582 b 226 565 222 568 224 565 b 235 569 229 565 232 567 b 383 622 276 608 329 619 l 388 622 b 510 556 439 622 479 594 b 561 400 544 510 561 457 l 560 369 b 535 225 554 321 547 274 b 513 163 529 204 522 182 b 454 46 493 124 476 83 b 428 14 447 33 439 22 b 392 1 417 4 404 1 b 338 43 365 1 340 19 b 322 106 335 64 324 83 l 322 138 b 336 290 322 189 333 239 l 336 301 b 331 336 336 314 335 325 b 304 357 325 350 314 357 b 279 342 296 357 286 351 b 254 268 264 319 260 293 b 231 119 243 219 236 169 b 192 24 226 85 213 53 b 153 0 181 7 167 0 z m 358 776 l 356 776 b 207 817 304 779 254 796 b 164 835 193 824 179 831 l 142 836 l 126 835 b 110 822 117 833 110 829 b 114 814 110 819 111 817 b 119 801 117 810 119 806 b 114 792 119 799 118 794 b 94 785 108 786 101 785 b 78 788 89 785 83 786 b 44 826 58 793 44 808 l 46 835 b 131 896 50 865 85 890 b 157 897 139 897 149 897 b 238 881 185 897 211 892 b 328 849 267 867 296 856 b 354 844 338 846 346 844 b 406 886 382 844 401 860 b 435 917 408 900 414 913 l 444 918 b 485 899 458 918 475 911 b 496 871 492 890 496 882 l 496 867 b 358 776 490 821 425 776 z "},"ò":{"ha":460,"x_min":0,"x_max":0,"o":"m 219 11 b 85 76 171 11 122 33 b 14 275 33 135 14 201 l 15 318 b 47 475 19 371 26 425 b 222 622 81 554 138 606 b 251 625 232 624 242 625 b 351 586 289 625 322 611 b 436 428 400 544 422 488 b 442 372 440 410 442 390 b 385 119 439 285 429 197 b 279 22 361 76 329 39 b 219 11 260 15 239 11 z m 213 246 b 256 278 229 246 246 256 b 264 315 260 290 264 303 b 263 331 264 321 264 326 b 210 388 258 357 235 383 l 206 388 b 165 354 185 388 178 368 b 160 344 163 351 161 347 b 153 311 156 333 153 322 b 175 261 153 292 160 274 b 213 246 186 251 200 246 z m 239 681 b 229 686 236 681 233 682 b 215 703 225 692 219 697 b 121 892 174 761 150 826 b 118 907 118 896 118 901 l 117 910 b 131 933 117 919 122 928 b 144 938 135 936 140 938 b 161 932 150 938 156 935 b 176 917 167 928 172 924 b 249 718 217 857 240 790 b 246 692 249 708 249 700 b 239 681 244 685 242 681 z "},"ó":{"ha":460,"x_min":0,"x_max":0,"o":"m 219 11 b 85 76 171 11 122 33 b 14 275 33 135 14 201 l 15 318 b 47 475 19 371 26 425 b 222 622 81 554 138 606 b 251 625 232 624 242 625 b 351 586 289 625 322 611 b 436 428 400 544 422 488 b 442 372 440 410 442 390 b 385 119 439 285 429 197 b 279 22 361 76 329 39 b 219 11 260 15 239 11 z m 213 246 b 256 278 229 246 246 256 b 264 315 260 290 264 303 b 263 331 264 321 264 326 b 210 388 258 357 235 383 l 206 388 b 165 354 185 388 178 368 b 160 344 163 351 161 347 b 153 311 156 333 153 322 b 175 261 153 292 160 274 b 213 246 186 251 200 246 z m 211 739 b 193 775 201 739 193 756 b 261 932 193 861 213 932 b 304 878 283 932 304 906 b 288 840 304 863 299 849 b 231 767 263 826 246 800 b 211 739 225 756 221 739 z "},"ô":{"ha":460,"x_min":0,"x_max":0,"o":"m 219 11 b 85 76 171 11 122 33 b 14 275 33 135 14 201 l 15 318 b 47 475 19 371 26 425 b 222 622 81 554 138 606 b 251 625 232 624 242 625 b 351 586 289 625 322 611 b 436 428 400 544 422 488 b 442 372 440 410 442 390 b 385 119 439 285 429 197 b 279 22 361 76 329 39 b 219 11 260 15 239 11 z m 213 246 b 256 278 229 246 246 256 b 264 315 260 290 264 303 b 263 331 264 321 264 326 b 210 388 258 357 235 383 l 206 388 b 165 354 185 388 178 368 b 160 344 163 351 161 347 b 153 311 156 333 153 322 b 175 261 153 292 160 274 b 213 246 186 251 200 246 z m 349 688 l 343 689 b 325 706 336 694 329 699 b 275 778 307 726 292 750 l 242 838 b 233 846 238 843 235 846 b 225 838 231 846 228 843 l 160 738 b 132 704 153 725 143 714 l 125 701 b 119 704 122 701 121 703 b 115 714 117 707 115 710 l 117 725 b 128 758 119 736 124 747 b 167 840 139 786 153 813 b 207 903 178 863 192 885 b 235 919 214 914 224 919 b 264 893 246 919 257 908 l 357 731 b 361 719 357 726 360 722 l 363 708 l 360 694 b 349 688 356 690 353 688 z "},"õ":{"ha":460,"x_min":0,"x_max":0,"o":"m 219 11 b 85 76 171 11 122 33 b 14 275 33 135 14 201 l 15 318 b 47 475 19 371 26 425 b 222 622 81 554 138 606 b 251 625 232 624 242 625 b 351 586 289 625 322 611 b 436 428 400 544 422 488 b 442 372 440 410 442 390 b 385 119 439 285 429 197 b 279 22 361 76 329 39 b 219 11 260 15 239 11 z m 213 246 b 256 278 229 246 246 256 b 264 315 260 290 264 303 b 263 331 264 321 264 326 b 210 388 258 357 235 383 l 206 388 b 165 354 185 388 178 368 b 160 344 163 351 161 347 b 153 311 156 333 153 322 b 175 261 153 292 160 274 b 213 246 186 251 200 246 z m 307 751 l 304 751 b 156 792 253 754 203 771 b 113 810 142 799 128 806 l 92 811 l 75 810 b 60 797 65 808 60 804 b 63 789 60 794 60 792 b 68 776 65 785 68 781 b 63 767 68 774 67 769 b 43 760 57 761 50 760 b 26 763 38 760 32 761 b -6 801 7 768 -6 783 l -6 810 b 79 871 -1 840 33 865 b 106 872 89 872 97 872 b 186 856 135 872 161 867 b 276 824 215 842 244 831 b 303 819 286 821 294 819 b 354 861 331 819 350 835 b 383 892 357 875 363 888 l 393 893 b 433 874 408 893 424 886 b 444 846 440 865 444 857 l 444 842 b 307 751 439 796 375 751 z "},"ö":{"ha":460,"x_min":0,"x_max":0,"o":"m 219 11 b 85 76 171 11 122 33 b 14 275 33 135 14 201 l 15 318 b 47 475 19 371 26 425 b 222 622 81 554 138 606 b 251 625 232 624 242 625 b 351 586 289 625 322 611 b 436 428 400 544 422 488 b 442 372 440 410 442 390 b 385 119 439 285 429 197 b 279 22 361 76 329 39 b 219 11 260 15 239 11 z m 213 246 b 256 278 229 246 246 256 b 264 315 260 290 264 303 b 263 331 264 321 264 326 b 210 388 258 357 235 383 l 206 388 b 165 354 185 388 178 368 b 160 344 163 351 161 347 b 153 311 156 333 153 322 b 175 261 153 292 160 274 b 213 246 186 251 200 246 z m 390 744 b 296 850 342 744 296 794 b 386 951 296 911 332 951 b 483 854 442 951 483 910 l 483 851 b 390 744 483 794 440 744 z m 46 743 b -47 842 -4 744 -47 790 b 42 940 -47 894 -8 939 l 44 940 b 136 844 94 940 135 897 b 46 743 136 792 94 743 z "},"÷":{"ha":564,"x_min":0,"x_max":0,"o":"m 450 378 l 168 378 b 63 382 133 378 97 378 b 0 428 38 385 3 394 b 68 481 0 467 38 478 b 468 504 201 496 335 500 b 564 442 510 504 564 492 b 524 390 564 413 546 399 b 450 378 500 381 475 378 z m 282 4 l 279 4 b 193 92 232 4 194 43 b 285 197 193 144 239 197 b 379 103 333 196 378 154 b 282 4 379 51 333 4 z m 267 656 l 265 656 b 178 743 218 657 178 697 b 268 838 178 793 221 838 b 349 747 314 836 349 796 b 267 656 349 694 313 656 z "},"ø":{"ha":460,"x_min":0,"x_max":0,"o":"m 219 11 b 85 76 171 11 122 33 b 14 275 33 135 14 201 l 15 318 b 47 475 19 371 26 425 b 222 622 81 554 138 606 b 251 625 232 624 242 625 b 351 586 289 625 322 611 b 436 428 400 544 422 488 b 442 372 440 410 442 390 b 385 119 439 285 429 197 b 279 22 361 76 329 39 b 219 11 260 15 239 11 z m 213 246 b 256 278 229 246 246 256 b 264 315 260 290 264 303 b 263 331 264 321 264 326 b 210 388 258 357 235 383 l 206 388 b 165 354 185 388 178 368 b 160 344 163 351 161 347 b 153 311 156 333 153 322 b 175 261 153 292 160 274 b 213 246 186 251 200 246 z m -65 -71 l -76 -68 b -92 -29 -94 -61 -90 -43 b -64 76 -90 8 -79 43 b 310 815 57 325 171 576 b 343 858 319 831 329 846 b 374 874 351 867 363 874 b 390 869 379 874 385 872 b 408 836 404 863 408 850 l 408 825 b 381 733 404 793 394 763 b 39 43 275 499 175 263 b -36 -56 17 7 -4 -28 b -65 -71 -44 -62 -54 -71 z "},"ù":{"ha":513,"x_min":0,"x_max":0,"o":"m 253 -4 b 106 65 197 -4 142 21 b 18 292 51 132 24 207 l 18 325 b 56 536 18 399 29 468 b 103 600 65 561 78 585 b 149 614 118 608 133 614 b 186 601 161 614 174 610 b 211 546 203 590 211 569 b 208 522 211 539 211 531 b 196 488 206 510 200 500 b 168 365 179 449 168 407 b 172 321 168 350 169 336 b 196 256 176 299 183 275 b 243 221 211 232 225 221 b 264 225 250 221 257 222 b 301 268 283 232 294 250 b 332 392 317 308 326 349 b 335 442 335 408 335 425 b 325 525 335 469 332 497 b 322 547 324 532 322 540 b 332 588 322 561 326 575 b 394 622 346 611 369 622 b 454 590 418 622 440 613 b 467 558 460 581 464 569 b 488 414 478 508 488 458 l 488 399 b 468 189 486 322 483 256 b 328 11 450 108 406 46 b 253 -4 304 0 278 -4 z m 279 706 b 269 711 276 706 274 707 b 256 728 265 717 260 722 b 161 917 214 786 190 851 b 158 932 158 921 158 926 l 157 935 b 171 958 157 944 163 953 b 185 963 175 961 181 963 b 201 957 190 963 196 960 b 217 942 207 953 213 949 b 289 743 257 882 281 815 b 286 717 289 733 289 725 b 279 706 285 710 282 706 z "},"ú":{"ha":513,"x_min":0,"x_max":0,"o":"m 253 -4 b 106 65 197 -4 142 21 b 18 292 51 132 24 207 l 18 325 b 56 536 18 399 29 468 b 103 600 65 561 78 585 b 149 614 118 608 133 614 b 186 601 161 614 174 610 b 211 546 203 590 211 569 b 208 522 211 539 211 531 b 196 488 206 510 200 500 b 168 365 179 449 168 407 b 172 321 168 350 169 336 b 196 256 176 299 183 275 b 243 221 211 232 225 221 b 264 225 250 221 257 222 b 301 268 283 232 294 250 b 332 392 317 308 326 349 b 335 442 335 408 335 425 b 325 525 335 469 332 497 b 322 547 324 532 322 540 b 332 588 322 561 326 575 b 394 622 346 611 369 622 b 454 590 418 622 440 613 b 467 558 460 581 464 569 b 488 414 478 508 488 458 l 488 399 b 468 189 486 322 483 256 b 328 11 450 108 406 46 b 253 -4 304 0 278 -4 z m 229 732 b 211 768 219 732 211 749 b 279 925 211 854 231 925 b 322 871 301 925 322 899 b 306 833 322 856 317 842 b 249 760 281 819 264 793 b 229 732 243 749 239 732 z "},"û":{"ha":513,"x_min":0,"x_max":0,"o":"m 253 -4 b 106 65 197 -4 142 21 b 18 292 51 132 24 207 l 18 325 b 56 536 18 399 29 468 b 103 600 65 561 78 585 b 149 614 118 608 133 614 b 186 601 161 614 174 610 b 211 546 203 590 211 569 b 208 522 211 539 211 531 b 196 488 206 510 200 500 b 168 365 179 449 168 407 b 172 321 168 350 169 336 b 196 256 176 299 183 275 b 243 221 211 232 225 221 b 264 225 250 221 257 222 b 301 268 283 232 294 250 b 332 392 317 308 326 349 b 335 442 335 408 335 425 b 325 525 335 469 332 497 b 322 547 324 532 322 540 b 332 588 322 561 326 575 b 394 622 346 611 369 622 b 454 590 418 622 440 613 b 467 558 460 581 464 569 b 488 414 478 508 488 458 l 488 399 b 468 189 486 322 483 256 b 328 11 450 108 406 46 b 253 -4 304 0 278 -4 z m 349 738 l 343 739 b 325 756 336 744 329 749 b 275 828 307 776 292 800 l 242 888 b 233 896 238 893 235 896 b 225 888 231 896 228 893 l 160 788 b 132 754 153 775 144 764 l 125 751 b 119 754 122 751 121 753 b 117 764 117 757 117 760 l 117 775 b 128 808 119 786 124 797 b 167 890 139 836 153 863 b 207 953 178 913 192 935 b 235 969 214 964 224 969 b 264 943 246 969 257 958 l 357 781 b 361 769 357 776 360 772 l 363 758 l 360 744 b 349 738 356 740 353 738 z "},"ü":{"ha":513,"x_min":0,"x_max":0,"o":"m 253 -4 b 106 65 197 -4 142 21 b 18 292 51 132 24 207 l 18 325 b 56 536 18 399 29 468 b 103 600 65 561 78 585 b 149 614 118 608 133 614 b 186 601 161 614 174 610 b 211 546 203 590 211 569 b 208 522 211 539 211 531 b 196 488 206 510 200 500 b 168 365 179 449 168 407 b 172 321 168 350 169 336 b 196 256 176 299 183 275 b 243 221 211 232 225 221 b 264 225 250 221 257 222 b 301 268 283 232 294 250 b 332 392 317 308 326 349 b 335 442 335 408 335 425 b 325 525 335 469 332 497 b 322 547 324 532 322 540 b 332 588 322 561 326 575 b 394 622 346 611 369 622 b 454 590 418 622 440 613 b 467 558 460 581 464 569 b 488 414 478 508 488 458 l 488 399 b 468 189 486 322 483 256 b 328 11 450 108 406 46 b 253 -4 304 0 278 -4 z m 411 779 b 317 885 363 779 317 829 b 407 986 317 946 353 986 b 504 889 463 986 504 944 l 504 886 b 411 779 504 829 461 779 z m 67 778 b -26 876 17 779 -26 825 b 63 975 -26 929 13 974 l 65 975 b 157 879 115 975 156 932 b 67 778 157 826 115 778 z "},"ý":{"ha":513,"x_min":0,"x_max":0,"o":"m 211 3 b 51 110 149 3 85 29 b 44 143 46 121 44 132 b 110 222 44 178 75 222 b 199 167 142 222 174 189 b 244 149 215 154 231 149 b 332 258 294 149 331 208 b 328 269 332 265 331 269 b 246 250 296 260 278 250 b 150 278 214 250 182 260 b 8 457 83 319 8 374 b 94 572 8 507 43 572 b 182 517 126 572 161 544 b 238 463 201 492 219 463 b 260 472 244 463 251 465 b 306 563 290 496 293 533 b 399 628 324 603 350 625 b 461 588 426 628 449 614 b 486 411 478 546 486 471 b 481 294 486 372 485 333 b 476 244 479 278 476 263 l 476 238 b 464 199 476 224 471 211 b 211 3 410 93 338 3 z m 210 682 b 192 718 201 682 192 699 b 260 875 193 804 211 875 b 304 821 283 875 304 849 b 288 783 304 806 299 792 b 231 710 263 769 246 743 b 210 682 225 699 219 682 z "},"ÿ":{"ha":513,"x_min":0,"x_max":0,"o":"m 211 3 b 51 110 149 3 85 29 b 44 143 46 121 44 132 b 110 222 44 178 75 222 b 199 167 142 222 174 189 b 244 149 215 154 231 149 b 332 258 294 149 331 208 b 328 269 332 265 331 269 b 246 250 296 260 278 250 b 150 278 214 250 182 260 b 8 457 83 319 8 374 b 94 572 8 507 43 572 b 182 517 126 572 161 544 b 238 463 201 492 219 463 b 260 472 244 463 251 465 b 306 563 290 496 293 533 b 399 628 324 603 350 625 b 461 588 426 628 449 614 b 486 411 478 546 486 471 b 481 294 486 372 485 333 b 476 244 479 278 476 263 l 476 238 b 464 199 476 224 471 211 b 211 3 410 93 338 3 z m 408 786 b 314 892 360 786 314 836 b 404 993 314 953 350 993 b 501 896 460 993 501 951 l 501 893 b 408 786 501 836 458 786 z m 64 785 b -29 883 14 786 -29 832 b 60 982 -29 936 10 981 l 63 982 b 154 886 113 982 153 939 b 64 785 154 833 113 785 z "},"ı":{"ha":192,"x_min":0,"x_max":0,"o":"m 113 -7 l 110 -7 b 83 14 96 -7 89 3 b 56 107 67 43 58 75 b 33 525 40 247 33 386 l 35 622 b 43 686 35 643 36 665 b 74 714 49 700 58 711 l 78 714 b 114 694 93 714 104 707 b 133 632 126 675 131 653 b 156 342 147 535 147 438 b 163 114 161 265 163 190 b 143 17 163 81 158 47 b 113 -7 136 4 129 -7 z "},"ˆ":{"ha":151,"x_min":0,"x_max":0,"o":"m 232 869 l 228 871 b 210 888 221 876 214 881 b 160 960 192 908 175 932 l 125 1019 b 117 1028 122 1025 119 1028 b 110 1019 114 1028 113 1025 l 43 919 b 17 886 38 907 28 896 l 8 883 b 3 886 7 883 4 885 b 0 896 0 889 0 892 l 0 907 b 13 940 3 918 7 929 b 50 1022 24 968 38 994 b 92 1085 63 1044 75 1067 b 118 1101 99 1096 107 1101 b 149 1075 131 1101 142 1090 l 242 913 b 246 901 242 908 243 904 l 247 890 l 243 876 b 232 869 240 872 236 869 z "},"ˇ":{"ha":178,"x_min":0,"x_max":0,"o":"m 83 746 b 65 760 76 746 71 751 b 36 817 54 776 44 796 l 7 888 b 0 918 4 897 1 907 l 0 925 l 1 935 l 7 938 l 13 935 b 31 907 19 928 25 917 b 78 818 46 876 63 847 b 83 811 81 814 82 811 b 89 818 86 811 88 814 l 114 871 b 150 935 125 894 138 915 b 163 947 154 939 158 944 l 168 950 b 174 944 171 950 172 947 b 178 933 176 940 178 936 b 175 922 178 929 176 926 b 172 913 175 919 174 915 b 107 768 150 864 128 817 b 83 746 100 756 93 746 z "},"ˉ":{"ha":674,"x_min":0,"x_max":0,"o":"m 164 931 l 86 932 b 28 940 67 933 47 935 b 1 969 14 946 3 954 l 0 975 b 19 1006 0 988 7 999 b 78 1025 36 1018 57 1022 b 349 1044 168 1038 258 1038 b 560 1051 419 1050 490 1051 b 651 1033 592 1051 622 1047 b 674 1006 664 1028 674 1019 b 654 978 674 992 664 983 b 567 951 626 963 597 956 b 164 931 432 938 299 931 z "},"˘":{"ha":210,"x_min":0,"x_max":0,"o":"m 108 846 l 107 846 b 0 954 47 846 0 896 l 0 961 l 3 971 b 18 988 4 979 10 986 b 38 975 28 988 35 982 b 53 935 43 961 47 947 b 107 900 64 913 85 900 l 117 901 b 150 931 133 904 146 913 l 158 964 b 182 986 161 979 169 986 b 207 964 194 986 203 978 l 210 943 b 108 846 210 892 165 846 z "},"˙":{"ha":164,"x_min":0,"x_max":0,"o":"m 78 910 b 1 986 36 910 1 943 b 83 1076 0 1031 42 1076 b 163 997 124 1076 161 1038 b 78 910 164 951 124 911 z "},"˚":{"ha":156,"x_min":0,"x_max":0,"o":"m 76 878 b 6 926 46 878 18 896 b 0 960 1 938 0 949 b 35 1029 0 988 13 1014 l 54 1042 b 85 1049 64 1047 75 1049 b 132 1026 103 1049 121 1042 b 156 964 149 1007 156 985 b 90 879 156 921 128 886 z m 78 925 b 89 928 82 925 86 925 b 110 965 104 936 110 949 b 107 986 110 972 108 979 b 83 1010 103 999 97 1007 l 78 1010 b 51 994 65 1010 58 1004 b 43 965 46 985 43 976 l 43 956 b 78 925 49 938 63 925 z "},"˛":{"ha":140,"x_min":0,"x_max":0,"o":"m 100 -171 b 1 -86 46 -171 7 -137 l 0 -75 b 31 -17 0 -53 11 -32 b 94 10 49 -1 71 7 b 118 6 103 10 111 10 b 128 -7 124 3 128 -1 b 118 -21 128 -14 124 -18 b 106 -26 114 -24 110 -25 b 74 -42 94 -31 83 -36 b 51 -75 58 -53 51 -62 b 63 -103 51 -83 56 -93 b 85 -118 68 -111 75 -115 b 118 -122 96 -121 107 -121 b 140 -142 132 -124 139 -132 l 140 -144 b 122 -167 140 -154 133 -162 b 100 -171 115 -171 107 -171 z "},"˜":{"ha":451,"x_min":0,"x_max":0,"o":"m 314 878 l 310 878 b 161 918 258 881 208 897 b 118 936 147 925 133 932 l 97 938 l 81 936 b 65 924 71 935 65 931 b 68 915 65 921 67 918 b 75 903 72 911 75 907 b 68 893 75 900 72 896 b 49 886 63 888 56 886 b 32 889 43 886 39 888 b 0 928 13 894 0 910 l 0 936 b 85 997 4 967 39 992 b 113 999 94 999 103 999 b 192 982 140 999 167 993 b 282 950 221 968 250 957 b 308 946 292 947 300 946 b 360 988 338 946 356 961 b 389 1018 363 1001 368 1014 l 400 1019 b 439 1000 414 1019 429 1013 b 451 972 447 992 451 983 l 450 968 b 314 878 444 922 381 878 z "},"˝":{"ha":310,"x_min":0,"x_max":0,"o":"m 24 393 l 21 393 b 0 414 10 393 3 401 l 0 419 b 8 453 0 429 3 442 b 47 642 39 517 47 579 l 47 658 b 69 746 47 688 47 718 l 75 751 b 100 765 85 761 93 765 b 124 749 110 765 117 758 b 158 667 142 728 154 701 b 161 628 160 656 161 642 b 158 583 161 614 160 600 b 75 424 147 510 111 465 b 24 393 58 407 35 393 z m 163 389 b 150 397 158 389 154 390 b 144 414 147 403 144 408 l 143 422 b 164 482 143 442 156 463 b 213 683 190 547 208 613 b 240 754 215 715 226 740 b 261 764 247 761 254 764 b 282 756 268 764 275 761 b 307 697 294 744 303 724 l 310 663 b 290 560 310 629 303 593 b 199 413 267 497 238 450 b 163 389 188 406 174 389 z "},"–":{"ha":753,"x_min":0,"x_max":0,"o":"m 182 244 l 97 244 b 31 254 75 246 53 247 b 1 286 15 260 4 269 l 0 290 b 22 326 0 306 7 318 b 88 349 42 340 64 344 b 390 371 188 361 289 363 b 625 378 468 376 547 378 b 728 357 661 378 696 374 b 753 326 740 351 753 343 b 729 296 753 310 742 303 b 633 267 700 278 667 269 b 182 244 482 250 332 244 z "},"—":{"ha":1397,"x_min":0,"x_max":0,"o":"m 358 279 l 178 281 b 56 292 136 281 94 283 b 1 328 26 297 6 308 l 0 336 b 38 375 0 353 14 365 b 160 399 74 390 117 394 b 722 424 346 414 535 414 b 1088 432 843 429 965 432 l 1161 432 b 1350 410 1226 432 1290 428 b 1397 374 1375 401 1397 392 b 1354 339 1397 356 1376 346 b 1175 306 1299 318 1238 310 b 358 279 903 288 632 279 z "},"‘":{"ha":197,"x_min":0,"x_max":0,"o":"m 119 549 b 0 699 50 549 0 603 l 0 703 b 142 897 10 782 61 850 b 157 903 147 900 151 903 b 165 900 160 903 163 903 b 171 890 169 897 171 894 b 167 876 171 886 168 881 b 126 747 153 833 139 790 b 113 697 121 731 115 714 l 110 674 b 147 647 110 657 119 653 b 196 601 172 642 194 631 l 197 597 b 147 551 197 574 178 558 b 119 549 138 550 129 549 z "},"’":{"ha":247,"x_min":0,"x_max":0,"o":"m 49 429 b 39 433 46 429 42 431 b 33 446 35 438 33 442 b 39 464 33 451 36 458 b 89 628 54 519 72 574 b 106 690 96 649 101 669 b 110 721 108 703 110 714 b 63 754 110 742 97 746 b 0 813 31 761 3 774 l 0 815 b 64 874 0 844 22 865 b 100 878 76 876 89 878 b 247 688 186 878 247 808 l 247 683 b 69 438 236 583 172 497 b 49 429 63 435 56 429 z "},"‚":{"ha":161,"x_min":0,"x_max":0,"o":"m 32 -167 l 26 -164 b 22 -156 24 -161 22 -158 l 25 -143 l 58 -36 b 69 4 63 -24 67 -10 l 72 24 b 42 46 72 38 64 40 b 0 83 19 50 3 58 l 0 86 b 42 124 0 104 17 118 l 65 126 b 161 3 121 126 161 81 l 161 -1 b 46 -161 154 -65 113 -122 b 32 -167 42 -162 38 -167 z "},"“":{"ha":475,"x_min":0,"x_max":0,"o":"m 149 433 b 0 624 63 433 0 503 l 0 628 b 179 872 11 726 76 813 b 199 881 185 876 192 881 b 208 876 203 881 206 879 b 214 864 213 872 214 868 b 210 846 214 858 213 851 l 160 682 b 142 621 153 663 146 642 b 139 592 140 608 139 599 b 186 557 139 569 150 564 b 247 499 218 550 246 536 l 249 494 b 185 438 249 465 225 446 b 149 433 172 435 160 433 z m 375 442 b 226 632 289 442 226 511 l 226 636 b 406 881 238 735 303 821 b 425 889 411 885 418 889 b 435 885 429 889 432 888 b 440 872 439 881 440 876 b 436 854 440 867 439 860 l 386 690 b 368 629 379 671 372 650 b 365 600 367 617 365 607 b 411 565 365 578 376 572 b 474 507 444 558 471 544 l 475 503 b 411 446 475 474 451 454 b 375 442 399 443 386 442 z "},"”":{"ha":479,"x_min":0,"x_max":0,"o":"m 44 447 b 36 451 42 447 39 449 b 31 463 32 454 31 458 b 35 478 31 467 32 474 l 81 626 b 96 682 86 644 93 664 l 99 710 b 57 740 99 729 89 733 b 0 793 28 747 3 758 l 0 796 b 57 849 0 822 21 840 b 90 853 68 851 79 853 b 224 683 168 853 224 790 l 224 676 b 63 454 214 586 156 508 b 44 447 57 451 50 447 z m 299 454 b 290 458 296 454 293 456 b 285 469 286 461 285 465 b 290 486 285 475 288 481 b 336 635 304 536 321 585 b 351 690 342 653 347 671 l 354 718 b 313 749 354 738 344 742 b 256 801 282 754 258 767 l 256 804 b 313 857 256 829 275 849 b 344 860 324 860 335 860 b 479 689 422 860 479 797 l 479 685 b 318 463 469 594 411 517 b 299 454 311 460 306 454 z "},"„":{"ha":353,"x_min":0,"x_max":0,"o":"m 211 -211 l 204 -208 b 200 -200 201 -206 200 -203 b 204 -186 200 -196 203 -190 l 240 -71 b 251 -26 244 -56 249 -42 l 254 -4 b 221 18 254 10 246 13 b 176 60 199 24 179 33 l 176 63 b 221 104 176 83 193 97 b 247 107 229 106 239 107 b 353 -28 308 107 353 58 l 353 -32 b 225 -206 344 -103 299 -162 b 211 -211 221 -207 215 -211 z m 35 -222 l 28 -219 b 24 -211 25 -217 24 -214 b 26 -199 24 -207 25 -201 b 63 -82 38 -160 50 -121 b 75 -37 67 -67 72 -53 l 78 -17 b 43 7 78 -1 69 1 b 0 49 21 13 1 22 l 0 51 b 44 93 0 72 17 86 b 69 96 53 94 61 96 b 175 -39 131 96 175 47 l 175 -43 b 49 -217 167 -114 121 -174 b 35 -222 44 -218 39 -222 z "},"†":{"ha":372,"x_min":0,"x_max":0,"o":"m 204 -7 b 172 17 188 -7 176 1 b 164 67 168 32 165 49 b 144 376 154 171 147 274 b 146 474 146 397 146 431 b 124 499 146 490 139 499 b 78 496 108 497 93 496 b 0 535 26 496 0 508 b 38 568 1 556 14 567 b 125 575 67 572 96 574 b 144 594 138 575 144 582 b 157 732 144 669 149 715 b 181 743 161 739 169 743 b 233 597 211 743 229 694 l 232 593 b 253 578 232 583 239 578 b 338 575 293 578 322 576 b 372 540 361 571 372 558 b 340 503 372 522 361 510 b 253 497 326 499 297 497 b 239 479 243 497 239 492 l 240 464 l 238 397 b 239 222 239 393 239 335 l 243 222 b 239 32 243 111 242 47 b 204 -7 235 6 222 -7 z "},"‡":{"ha":525,"x_min":0,"x_max":0,"o":"m 258 -11 b 225 6 242 -11 231 -6 b 207 176 213 29 207 86 b 201 217 207 199 204 213 b 181 225 199 221 192 224 b 24 244 93 225 40 232 b 8 279 14 251 8 264 b 113 333 8 315 43 333 b 169 329 129 333 147 332 l 182 328 b 208 364 199 328 208 339 l 207 413 l 208 429 b 201 563 203 456 201 500 b 171 601 201 589 190 601 b 106 597 149 599 126 597 b 0 650 35 597 0 615 b 51 699 1 681 18 696 b 172 706 90 703 131 704 b 194 714 183 707 190 710 b 200 735 197 718 200 725 b 217 925 200 840 206 903 b 250 943 222 935 233 942 b 299 894 276 943 293 926 b 322 740 313 843 319 792 l 321 735 b 349 710 321 718 331 710 l 403 713 b 500 693 450 713 482 706 b 517 658 508 686 514 675 b 472 607 517 633 501 617 b 411 599 450 601 431 599 l 350 601 b 331 578 338 601 331 593 l 332 553 l 331 524 l 332 519 b 339 417 336 494 339 460 l 340 378 l 339 350 b 364 329 339 336 347 329 l 417 332 b 511 306 461 332 493 324 b 525 271 519 297 525 286 b 475 225 521 243 504 228 b 404 218 451 221 428 218 l 357 219 b 329 190 340 219 331 210 b 307 36 328 139 321 88 b 258 -11 299 4 283 -11 z "},"•":{"ha":199,"x_min":0,"x_max":0,"o":"m 94 240 b 0 333 43 240 1 282 b 101 444 0 389 50 444 b 199 349 150 444 197 397 l 199 346 b 94 240 199 290 150 242 z "},"…":{"ha":1076,"x_min":0,"x_max":0,"o":"m 531 8 l 529 8 b 435 103 476 8 435 51 l 435 106 b 536 215 435 161 485 215 l 538 215 b 636 118 588 215 635 168 l 636 115 b 531 8 636 60 588 8 z m 971 4 l 969 4 b 875 97 917 4 875 46 l 875 100 b 978 211 875 156 926 211 b 1076 113 1028 211 1075 164 l 1076 110 b 971 4 1076 54 1028 4 z m 96 7 l 94 7 b 0 100 42 7 0 49 l 0 103 b 103 214 0 158 51 214 b 201 115 153 214 200 167 l 201 113 b 96 7 201 57 153 7 z "},"‹":{"ha":375,"x_min":0,"x_max":0,"o":"m 340 -162 b 281 -146 319 -160 299 -154 b 39 -4 197 -104 117 -57 b 31 3 36 -3 33 0 b 0 53 11 19 0 36 b 24 99 0 67 8 82 b 215 289 83 165 150 226 b 288 356 239 311 263 335 b 313 369 294 363 303 369 b 326 364 317 369 322 368 b 332 353 331 361 332 357 b 319 325 332 346 328 336 b 236 232 294 292 265 261 b 79 71 183 178 131 125 b 72 58 75 65 72 63 b 82 47 72 54 76 51 b 321 -85 161 1 240 -43 b 363 -110 336 -92 350 -99 b 375 -135 369 -117 375 -125 l 372 -144 b 340 -162 367 -158 354 -162 z "},"›":{"ha":347,"x_min":0,"x_max":0,"o":"m 32 -158 b 3 -142 19 -158 7 -154 l 0 -131 b 11 -110 0 -124 4 -115 b 49 -86 22 -99 36 -93 b 271 36 125 -47 199 -7 b 281 47 276 40 281 43 b 275 58 281 50 278 53 b 128 208 226 110 176 158 b 50 294 101 236 74 264 b 39 319 42 304 39 313 b 44 332 39 325 40 329 b 57 336 49 335 53 336 b 81 324 65 336 74 329 l 149 261 b 326 83 208 203 269 146 b 347 40 340 68 347 54 b 319 -6 347 25 338 11 l 311 -11 b 88 -143 239 -60 165 -104 b 32 -158 69 -151 51 -156 z "},"⁄":{"ha":242,"x_min":0,"x_max":0,"o":"m 14 -8 b 8 -7 11 -8 10 -8 b 0 13 1 -3 0 6 l 0 19 b 15 92 1 46 7 69 b 193 590 72 258 126 429 b 208 619 197 601 201 611 b 224 631 214 626 218 631 l 232 628 b 242 606 239 624 242 615 l 240 597 b 228 535 238 576 233 556 b 63 68 176 376 129 217 b 28 3 53 44 42 21 b 14 -8 22 -3 18 -8 z "},"∕":{"ha":242,"x_min":0,"x_max":0,"o":"m 14 -8 b 8 -7 11 -8 10 -8 b 0 13 1 -3 0 6 l 0 19 b 15 92 1 46 7 69 b 193 590 72 258 126 429 b 208 619 197 601 201 611 b 224 631 214 626 218 631 l 232 628 b 242 606 239 624 242 615 l 240 597 b 228 535 238 576 233 556 b 63 68 176 376 129 217 b 28 3 53 44 42 21 b 14 -8 22 -3 18 -8 z "},"₣":{"ha":636,"x_min":0,"x_max":0,"o":"m 236 -4 b 193 32 213 -4 200 13 b 169 146 179 69 169 107 b 139 175 168 169 158 175 b 44 188 107 175 76 179 b 0 231 21 193 0 201 b 43 275 0 258 21 269 b 138 286 74 285 106 286 b 158 307 153 286 158 292 l 158 369 b 167 736 158 492 167 615 l 167 754 b 178 854 167 788 169 821 b 260 928 189 901 211 922 b 413 933 310 933 361 931 l 533 933 b 625 879 572 933 624 921 b 528 821 625 836 568 825 l 443 819 b 290 828 385 819 344 824 b 275 811 279 828 275 824 b 285 615 278 744 285 689 l 285 561 b 300 538 285 544 286 538 b 456 549 354 543 396 549 b 557 546 489 549 524 547 b 636 488 608 544 636 522 b 560 429 635 450 610 429 b 297 436 472 431 396 433 b 282 418 285 436 282 431 l 283 311 b 307 290 283 296 290 290 b 507 297 374 294 440 294 b 594 235 553 297 592 283 b 508 175 594 197 551 175 b 314 171 443 174 378 171 b 290 150 297 171 290 165 l 292 126 b 278 36 292 96 286 65 b 236 -4 272 14 261 -4 z "},"₤":{"ha":560,"x_min":0,"x_max":0,"o":"m 356 -1 l 349 -1 b 204 35 299 -1 251 13 b 185 40 197 38 192 40 b 168 35 179 40 174 39 b 153 29 164 32 158 31 b 122 24 143 25 132 24 b 53 72 90 24 63 42 b 50 94 51 79 50 86 b 113 169 50 128 74 160 b 121 171 115 169 118 169 b 132 172 125 172 128 172 l 144 172 b 157 178 150 172 154 174 b 163 199 161 185 163 192 l 161 221 b 135 263 161 257 161 263 l 86 263 b 54 265 76 263 65 263 b 14 304 33 271 15 279 l 14 307 b 49 349 14 329 29 340 b 135 363 76 358 106 360 b 154 376 147 364 154 367 l 153 417 b 144 446 153 429 151 439 b 124 454 139 453 132 454 b 89 451 113 454 100 451 l 85 451 b 35 460 68 454 51 454 b 0 497 17 465 0 475 b 35 533 0 519 17 529 b 124 547 64 542 94 544 b 144 569 140 547 144 553 b 165 724 144 622 149 674 b 308 836 190 797 243 836 b 372 825 329 836 350 833 b 408 804 386 819 399 814 b 422 776 417 796 422 786 b 419 767 422 774 421 769 b 386 747 414 751 400 747 b 338 753 369 747 354 751 l 322 754 b 257 697 285 754 268 739 b 243 567 244 654 243 611 b 263 550 244 553 250 550 b 358 535 294 550 326 543 b 407 492 388 526 407 508 b 353 453 407 474 385 457 b 293 447 333 450 313 447 l 265 449 b 251 436 256 449 251 444 l 253 418 l 253 400 b 258 375 253 392 253 382 b 275 369 263 371 268 369 b 307 372 285 369 296 372 l 310 372 b 368 360 329 371 350 368 b 399 317 386 350 399 338 l 399 314 b 358 275 396 292 381 279 b 317 269 344 271 331 269 l 288 271 b 263 250 271 271 263 267 l 264 215 b 257 151 264 194 263 174 l 257 146 b 271 129 257 138 263 132 b 361 113 301 118 332 113 b 490 153 406 113 449 125 b 526 174 501 161 514 174 b 542 168 532 174 536 172 b 560 131 556 158 560 144 l 557 108 b 481 19 549 64 522 36 b 356 -1 440 4 399 0 z "},"€":{"ha":629,"x_min":0,"x_max":0,"o":"m 417 -3 b 124 238 293 -3 171 88 b 97 257 119 251 111 257 l 65 256 b 14 260 47 256 31 257 b -24 296 -8 265 -22 272 b 6 332 -24 314 -10 325 b 78 350 29 342 53 347 b 99 368 92 351 99 356 l 97 396 l 99 425 b 85 439 99 436 94 439 l 31 438 b -32 474 -7 438 -31 444 b 4 514 -32 497 -17 507 b 99 533 35 525 67 531 b 122 554 113 536 119 542 b 183 683 138 600 157 644 b 483 828 257 790 360 828 b 592 776 526 828 592 818 b 550 740 588 749 575 740 l 442 731 b 238 569 339 721 275 664 b 231 551 233 561 231 556 b 256 544 231 546 238 546 l 282 544 b 407 511 329 544 407 538 b 393 493 407 504 403 499 b 222 449 346 461 281 457 b 204 431 210 447 204 443 l 204 376 b 221 361 204 365 210 361 l 333 363 b 407 321 365 363 406 354 b 381 289 407 304 393 294 b 236 251 324 261 236 272 b 251 219 236 246 242 236 b 419 111 292 147 347 111 b 589 158 471 111 536 132 b 638 171 607 167 619 169 b 664 147 656 171 664 164 b 586 42 660 94 628 61 b 417 -3 531 14 472 -3 z "},"∂":{"ha":464,"x_min":0,"x_max":0,"o":"m 207 -3 b 47 150 125 -3 47 60 b 51 186 47 161 49 174 b 324 408 79 319 190 408 l 364 407 b 374 414 371 407 374 408 l 371 425 b 213 557 346 510 292 557 b 56 460 138 554 96 525 b 21 410 43 440 40 410 b 0 435 6 411 0 419 b 11 481 0 451 6 467 b 226 626 47 571 135 626 b 464 292 358 626 463 528 b 292 19 461 186 414 81 b 207 -3 264 6 235 -3 z m 193 58 b 260 78 215 58 240 67 b 386 311 353 131 386 206 b 372 324 386 319 382 324 b 310 329 351 325 331 329 b 113 143 204 326 115 244 b 193 58 113 93 146 58 z "},"∆":{"ha":586,"x_min":0,"x_max":0,"o":"m 64 4 b 0 50 29 4 0 15 b 24 128 1 81 11 100 b 233 574 83 281 143 435 b 301 628 250 601 272 628 b 388 543 339 628 367 585 b 478 344 422 479 450 411 b 568 156 504 279 540 219 b 586 100 576 136 586 119 b 546 40 586 75 572 54 b 457 22 518 28 488 24 l 254 13 b 254 11 254 13 254 11 z m 100 96 b 463 115 221 103 342 110 b 476 124 474 117 476 119 b 472 136 476 128 475 131 b 315 485 413 257 369 363 b 304 503 313 492 311 499 b 92 97 224 372 154 238 z "},"∏":{"ha":418,"x_min":0,"x_max":0,"o":"m 22 4 b 4 28 8 4 7 17 b 0 65 0 40 0 53 b 21 535 0 225 7 388 b 69 594 24 569 35 586 b 357 622 157 614 261 622 b 410 575 390 622 404 610 b 417 457 417 536 415 497 b 418 168 417 301 418 311 b 415 64 418 133 417 99 b 382 14 413 40 408 14 b 349 69 354 14 349 39 l 349 131 b 351 426 349 229 351 328 l 351 519 b 326 561 350 556 350 561 b 100 543 244 558 185 551 b 71 514 79 542 72 535 b 51 182 61 404 56 293 b 39 28 50 131 46 79 b 22 4 38 17 36 4 z "},"∑":{"ha":500,"x_min":0,"x_max":0,"o":"m 236 7 b 113 11 194 7 154 8 b 4 76 58 14 4 33 b 25 126 4 93 11 110 b 256 390 106 217 182 293 b 265 410 263 397 265 404 b 253 431 265 417 261 422 b 46 615 185 493 111 550 b 0 692 21 639 0 665 b 43 740 0 717 15 735 b 113 750 65 746 89 747 b 386 768 207 760 290 767 b 447 763 407 768 428 767 b 474 733 460 760 472 751 b 410 697 474 707 438 699 l 126 672 l 126 669 b 135 657 126 663 132 660 l 274 536 b 365 418 314 501 365 463 b 303 300 365 379 335 339 b 135 114 242 226 197 181 b 168 107 147 107 157 108 l 275 106 b 426 108 332 106 371 108 b 500 63 460 108 499 101 b 432 14 500 29 464 17 b 236 7 367 10 301 7 z "},"−":{"ha":671,"x_min":0,"x_max":0,"o":"m 328 282 l 100 282 b 39 289 79 282 60 286 b 0 326 17 293 0 306 b 38 364 0 346 14 358 b 106 372 60 367 82 371 b 549 393 253 383 400 392 l 565 394 b 632 382 589 394 611 392 b 671 343 653 374 669 364 l 671 342 b 635 301 671 321 654 310 b 561 288 613 292 588 288 l 328 288 z "},"√":{"ha":338,"x_min":0,"x_max":0,"o":"m 214 -8 l 210 -8 b 164 38 189 -7 171 8 b 118 233 147 101 133 167 b 88 268 110 263 108 268 l 31 268 b 0 294 11 269 1 275 b 22 322 0 308 10 317 b 117 339 51 335 93 339 b 214 194 176 339 182 289 b 232 303 224 233 226 268 b 261 697 253 433 257 565 b 299 765 264 732 261 763 b 338 706 325 765 338 735 b 290 153 329 521 328 335 b 267 50 283 118 275 85 b 214 -8 263 15 238 -8 z "},"∞":{"ha":693,"x_min":0,"x_max":0,"o":"m 119 110 b 49 135 93 110 68 118 b 0 257 17 161 0 210 b 10 315 0 278 3 297 b 114 417 28 369 60 401 b 167 424 132 421 150 424 b 275 385 206 424 242 411 b 303 374 286 378 294 374 b 332 390 311 374 321 379 b 514 485 382 442 443 472 b 547 488 525 486 536 488 b 693 346 633 488 693 428 b 683 292 693 329 690 310 b 485 150 658 207 582 150 b 332 215 433 151 379 172 b 314 225 325 222 319 225 b 296 214 307 225 301 221 b 244 167 281 196 263 182 b 213 140 235 157 224 149 b 119 110 181 119 149 110 z m 489 250 b 596 319 542 250 579 278 b 601 351 600 331 601 342 b 550 399 601 381 582 399 l 532 397 b 388 317 475 386 429 357 b 382 306 383 313 382 310 b 389 294 382 301 385 299 b 485 250 419 268 454 250 z m 117 196 b 151 208 126 196 138 200 b 236 285 183 229 208 260 b 240 293 239 288 240 290 b 236 301 240 296 239 299 b 160 336 213 319 189 336 l 157 336 b 107 328 139 335 124 333 b 88 307 97 324 90 318 b 79 263 82 292 79 278 b 83 232 79 253 81 243 b 117 196 93 207 103 196 z "},"∫":{"ha":275,"x_min":0,"x_max":0,"o":"m 71 -6 b 4 39 43 -6 14 11 b 0 56 1 44 0 50 b 7 75 0 63 3 68 b 24 82 11 81 17 82 b 38 79 28 82 33 82 b 51 76 43 76 47 76 b 75 103 65 76 71 89 b 88 196 85 133 88 165 b 83 446 88 279 85 363 l 82 564 b 92 736 82 621 83 679 b 125 826 97 769 104 800 b 215 875 149 857 178 875 b 233 874 221 875 226 875 b 263 860 243 872 254 868 b 275 833 271 853 275 843 b 251 810 275 822 267 811 b 181 715 193 803 183 763 b 176 611 178 682 176 647 b 181 415 176 553 179 490 l 181 407 b 185 243 181 363 185 304 b 182 167 185 218 185 192 b 164 78 179 138 174 107 b 106 4 153 47 133 22 b 71 -6 94 -1 82 -6 z "},"≈":{"ha":601,"x_min":0,"x_max":0,"o":"m 436 635 b 376 644 418 635 397 638 b 129 753 292 671 213 753 b 56 713 99 751 72 742 b 28 690 49 701 40 690 b 0 722 13 690 0 704 b 142 838 7 797 71 836 b 444 732 264 838 349 732 b 563 761 488 732 521 758 b 590 738 578 761 590 751 b 568 694 590 722 579 706 b 436 635 529 657 486 635 z m 392 429 l 383 429 b 203 497 325 429 261 458 l 139 540 b 106 551 128 547 117 551 b 69 538 93 551 82 546 b 42 522 61 532 51 522 b 21 546 31 522 21 535 b 35 578 21 557 28 568 b 124 626 57 610 88 626 b 226 592 158 626 196 610 l 289 557 b 396 526 325 536 361 526 b 506 558 433 526 469 538 b 578 583 526 571 554 583 b 601 560 590 583 601 572 b 596 536 601 551 599 543 b 507 457 576 499 542 478 b 392 429 475 438 440 429 z "},"≤":{"ha":364,"x_min":0,"x_max":0,"o":"m 294 15 l 268 21 b 61 119 194 46 124 74 b 14 185 36 138 14 158 b 39 238 14 203 24 219 b 232 425 101 303 165 365 b 294 461 250 443 271 460 b 317 440 307 461 317 451 b 289 400 317 426 300 413 b 93 201 224 335 156 269 b 83 189 86 194 83 192 b 96 176 83 185 88 182 b 289 68 165 128 207 114 b 318 31 301 60 318 46 b 294 15 318 19 306 17 z m 313 -114 l 169 -101 l 169 -106 l 46 -101 b 0 -71 25 -99 0 -94 b 56 -39 0 -44 28 -43 l 132 -37 b 315 -43 200 -37 253 -43 b 364 -81 339 -46 364 -57 b 313 -114 363 -108 338 -114 z "},"≥":{"ha":369,"x_min":0,"x_max":0,"o":"m 60 4 b 33 21 47 7 33 10 b 65 61 33 38 51 53 b 272 178 153 111 199 125 b 286 190 282 185 286 188 b 275 204 286 194 282 197 b 65 418 207 278 136 347 b 35 461 54 431 35 446 b 58 483 35 472 46 483 b 126 444 86 481 106 465 b 333 243 199 381 267 313 b 360 188 350 225 360 206 b 310 117 360 158 336 135 b 88 11 242 67 165 38 b 60 4 78 8 68 7 z m 49 -125 b 0 -92 25 -125 1 -118 b 15 -65 0 -81 6 -71 b 53 -53 28 -56 38 -53 b 281 -37 129 -46 204 -37 l 313 -39 b 369 -68 336 -39 368 -42 b 324 -100 369 -92 344 -96 l 199 -110 l 197 -106 l 71 -124 z "},"/":{"ha":368,"x_min":0,"x_max":0,"o":"m -14 -1 l -25 1 b -40 40 -43 8 -39 26 b -12 146 -39 78 -28 113 b 361 885 108 394 222 646 b 394 928 371 900 381 915 b 426 943 403 936 414 943 b 442 939 431 943 436 942 b 461 906 456 932 461 919 l 460 894 b 432 803 456 863 446 832 b 90 113 326 568 226 332 b 15 14 68 76 47 42 b -14 -1 7 7 -3 -1 z "}}}
